<svg width="33" height="33" viewBox="0 0 33 33" fill="none" xmlns="http://www.w3.org/2000/svg">
<rect x="0.786133" y="0.707031" width="32" height="32" rx="4" fill="url(#paint0_linear_360_97)"/>
<path d="M6.78012 18.4152C6.78012 18.4152 6.7893 18.4121 6.77459 18.4551C6.80835 18.5928 6.85682 18.6875 6.90529 18.7822C6.90529 18.7822 6.89768 18.7796 6.88637 18.8105C6.91101 18.9278 6.94696 19.0144 6.98292 19.1009C7.47967 19.9682 7.90816 20.8854 8.49377 21.6879C9.00489 22.3883 9.69141 22.9611 10.3069 23.5838C10.3448 23.6221 10.4396 23.6042 10.555 23.6246C10.6634 23.5915 10.7248 23.5462 10.7862 23.501C10.7862 23.501 10.7857 23.509 10.8127 23.5056C10.8565 23.4668 10.8733 23.4314 10.89 23.3961C10.89 23.3961 10.8908 23.4032 10.9182 23.3999C10.9621 23.3614 10.9786 23.3262 10.9951 23.2909C10.9951 23.2909 10.9959 23.298 11.0234 23.2948C11.0672 23.2563 11.0837 23.221 11.1002 23.1857C11.1002 23.1857 11.1011 23.1928 11.1286 23.1897C11.1724 23.1512 11.1888 23.1159 11.2052 23.0805C11.2052 23.0805 11.2061 23.0876 11.2337 23.0845C11.2776 23.0461 11.2939 23.0107 11.3103 22.9753C11.3103 22.9753 11.3112 22.9823 11.3388 22.9793C11.3827 22.9409 11.399 22.9055 11.4154 22.87C11.4154 22.87 11.4163 22.8771 11.4439 22.8741C11.4878 22.8357 11.5041 22.8002 11.5204 22.7648C11.5204 22.7648 11.5214 22.7719 11.549 22.769C11.5929 22.7306 11.6092 22.6951 11.6255 22.6596C11.6255 22.6596 11.6265 22.6666 11.6541 22.6638C11.698 22.6254 11.7143 22.5899 11.7305 22.5544C11.7305 22.5544 11.7316 22.5614 11.7593 22.5586C11.8032 22.5202 11.8194 22.4847 11.8356 22.4491C11.8356 22.4491 11.8367 22.4562 11.8644 22.4534C11.9083 22.4151 11.9245 22.3795 11.9407 22.3439C11.9407 22.3439 11.9418 22.351 11.9695 22.3482C12.0134 22.3099 12.0296 22.2743 12.0458 22.2387C12.0458 22.2387 12.0469 22.2458 12.0747 22.2431C12.1186 22.2048 12.1347 22.1692 12.1509 22.1335C12.1509 22.1335 12.152 22.1406 12.1798 22.1379C12.2237 22.0996 12.2398 22.064 12.256 22.0283C12.256 22.0283 12.2571 22.0354 12.2849 22.0327C12.3288 21.9943 12.345 21.9587 12.3611 21.9231C12.3611 21.9231 12.3622 21.9302 12.39 21.9274C12.4339 21.8891 12.4501 21.8535 12.4662 21.8179C12.4662 21.8179 12.4674 21.825 12.4951 21.8222C12.539 21.7839 12.5552 21.7483 12.5714 21.7127C12.5714 21.7127 12.5725 21.7198 12.6002 21.717C12.6441 21.6787 12.6603 21.6431 12.6765 21.6075C12.6765 21.6075 12.6776 21.6145 12.7053 21.6118C12.7492 21.5735 12.7654 21.5379 12.7816 21.5023C12.7816 21.5023 12.7827 21.5093 12.8104 21.5066C12.8543 21.4683 12.8705 21.4327 12.8867 21.3971C12.8867 21.3971 12.8878 21.4041 12.9156 21.4014C12.9595 21.3631 12.9756 21.3275 12.9918 21.2919C12.9918 21.2919 12.9929 21.2989 13.0207 21.2963C13.0646 21.258 13.0807 21.2223 13.0968 21.1867C13.0968 21.1867 13.098 21.1937 13.1258 21.1911C13.1697 21.1528 13.1858 21.1171 13.2019 21.0815C13.2019 21.0815 13.2031 21.0885 13.231 21.086C13.2749 21.0477 13.2909 21.012 13.307 20.9763C13.307 20.9763 13.3082 20.9833 13.3361 20.9808C13.38 20.9425 13.3961 20.9068 13.4121 20.8711C13.4121 20.8711 13.4133 20.8781 13.4412 20.8756C13.4851 20.8373 13.5012 20.8016 13.5172 20.7659C13.5172 20.7659 13.5185 20.7729 13.5463 20.7703C13.5902 20.7321 13.6063 20.6964 13.6223 20.6607C13.6223 20.6607 13.6236 20.6677 13.6514 20.6651C13.6954 20.6269 13.7114 20.5912 13.7274 20.5555C13.7274 20.5555 13.7287 20.5625 13.7565 20.5599C13.8005 20.5217 13.8165 20.486 13.8326 20.4503C13.8326 20.4503 13.8338 20.4573 13.8617 20.4547C13.9056 20.4165 13.9216 20.3808 13.9377 20.3451C13.9377 20.3451 13.9389 20.3521 13.9667 20.3494C14.0106 20.3112 14.0267 20.2755 14.0428 20.2398C14.0428 20.2398 14.044 20.2468 14.0718 20.2442C14.1157 20.2059 14.1318 20.1703 14.1479 20.1346C14.1479 20.1346 14.1491 20.1416 14.1769 20.139C14.2208 20.1007 14.2369 20.0651 14.253 20.0294C14.253 20.0294 14.2542 20.0364 14.2821 20.0339C14.326 19.9956 14.342 19.9599 14.3581 19.9242C14.3581 19.9242 14.3593 19.9312 14.3872 19.9287C14.4311 19.8904 14.4472 19.8547 14.4632 19.819C14.4632 19.819 14.4644 19.826 14.4923 19.8235C14.5362 19.7853 14.5523 19.7496 14.5683 19.7138C14.5683 19.7138 14.5696 19.7208 14.5975 19.7184C14.6414 19.6801 14.6574 19.6444 14.6733 19.6086C14.6733 19.6086 14.6747 19.6156 14.7026 19.6132C14.7465 19.575 14.7625 19.5392 14.7784 19.5034C14.7784 19.5034 14.7798 19.5104 14.8077 19.508C14.8516 19.4698 14.8676 19.434 14.8835 19.3982C14.8835 19.3982 14.8849 19.4052 14.9128 19.4028C14.9568 19.3646 14.9727 19.3288 14.9886 19.293C14.9886 19.293 14.99 19.3 15.018 19.2976C15.0619 19.2594 15.0778 19.2236 15.0937 19.1878C15.0937 19.1878 15.0951 19.1948 15.1231 19.1924C15.167 19.1542 15.1829 19.1184 15.1988 19.0826C15.1988 19.0826 15.2002 19.0895 15.2282 19.0872C15.2721 19.049 15.288 19.0132 15.3039 18.9774C15.3039 18.9774 15.3053 18.9843 15.3334 18.982C15.3773 18.9439 15.3931 18.908 15.409 18.8721C15.409 18.8721 15.4104 18.8791 15.4385 18.8769C15.4824 18.8387 15.4982 18.8028 15.514 18.7669C15.514 18.7669 15.5155 18.7739 15.5436 18.7717C15.5875 18.7335 15.6033 18.6976 15.6191 18.6617C15.6191 18.6617 15.6206 18.6686 15.6487 18.6665C15.6926 18.6283 15.7084 18.5924 15.7242 18.5564C15.7242 18.5564 15.7257 18.5634 15.7538 18.5613C15.7977 18.5231 15.8135 18.4872 15.8293 18.4512C15.8293 18.4512 15.8308 18.4582 15.8589 18.4561C15.9028 18.4179 15.9186 18.382 15.9344 18.346C15.9344 18.346 15.9359 18.353 15.964 18.3508C16.0079 18.3127 16.0237 18.2768 16.0395 18.2408C16.0395 18.2408 16.041 18.2478 16.0691 18.2456C16.113 18.2075 16.1288 18.1716 16.1446 18.1356C16.1446 18.1356 16.1461 18.1426 16.1742 18.1404C16.2181 18.1023 16.2339 18.0664 16.2497 18.0304C16.2497 18.0304 16.2512 18.0374 16.2793 18.0352C16.3232 17.9971 16.339 17.9612 16.3549 17.9252C16.3549 17.9252 16.3563 17.9322 16.3844 17.93C16.4284 17.8919 16.4442 17.856 16.46 17.82C16.46 17.82 16.4614 17.827 16.4895 17.8248C16.5335 17.7867 16.5493 17.7507 16.5651 17.7148C16.5651 17.7148 16.5665 17.7218 16.5947 17.7196C16.6386 17.6815 16.6544 17.6455 16.6702 17.6096C16.6702 17.6096 16.6717 17.6166 16.6998 17.6144C16.7437 17.5763 16.7595 17.5404 16.7754 17.5044C16.7754 17.5044 16.7768 17.5114 16.8049 17.5092C16.8488 17.471 16.8647 17.4352 16.8805 17.3993C16.8805 17.3993 16.8819 17.4062 16.91 17.404C16.9539 17.3658 16.9698 17.33 16.9857 17.2941C16.9857 17.2941 16.9871 17.301 17.0151 17.2988C17.0591 17.2606 17.0749 17.2248 17.0908 17.1889C17.0908 17.1889 17.0922 17.1958 17.1203 17.1936C17.1642 17.1555 17.18 17.1196 17.1959 17.0837C17.1959 17.0837 17.1973 17.0906 17.2254 17.0884C17.2693 17.0503 17.2851 17.0144 17.301 16.9785C17.301 16.9785 17.3024 16.9854 17.3305 16.9832C17.3744 16.9451 17.3902 16.9092 17.406 16.8732C17.4061 16.8732 17.4075 16.8802 17.4356 16.878C17.4796 16.8399 17.4953 16.804 17.5111 16.768C17.5111 16.768 17.5126 16.775 17.5408 16.7728C17.5847 16.7347 17.6004 16.6988 17.6162 16.6628C17.6162 16.6628 17.6177 16.6698 17.6459 16.6676C17.6898 16.6295 17.7055 16.5936 17.7213 16.5576C17.7213 16.5576 17.7228 16.5645 17.751 16.5624C17.7949 16.5243 17.8106 16.4883 17.8264 16.4523C17.8264 16.4523 17.8279 16.4593 17.856 16.4572C17.9 16.4191 17.9157 16.3831 17.9315 16.3471C17.9315 16.3471 17.933 16.3541 17.9611 16.352C18.0051 16.3139 18.0209 16.2779 18.0367 16.2419C18.0367 16.2419 18.0381 16.2489 18.0662 16.2467C18.1102 16.2086 18.126 16.1727 18.1418 16.1367C18.1418 16.1367 18.1432 16.1437 18.1714 16.1415C18.2153 16.1034 18.2311 16.0675 18.247 16.0315C18.247 16.0315 18.2484 16.0385 18.2765 16.0363C18.3204 15.9982 18.3362 15.9623 18.3521 15.9263C18.3521 15.9263 18.3535 15.9333 18.3816 15.9311C18.4255 15.893 18.4413 15.8571 18.4572 15.8211C18.4572 15.8211 18.4586 15.8281 18.4867 15.8259C18.5306 15.7878 18.5465 15.7519 18.5623 15.7159C18.5623 15.7159 18.5637 15.7229 18.5918 15.7207C18.6357 15.6826 18.6516 15.6467 18.6674 15.6107C18.6674 15.6107 18.6688 15.6177 18.6969 15.6155C18.7409 15.5774 18.7567 15.5415 18.7725 15.5055C18.7725 15.5055 18.7739 15.5125 18.802 15.5103C18.846 15.4722 18.8618 15.4362 18.8776 15.4003C18.8776 15.4003 18.879 15.4072 18.9071 15.4051C18.9511 15.367 18.9669 15.331 18.9827 15.2951C18.9827 15.2951 18.9841 15.302 19.0122 15.2999C19.0562 15.2618 19.072 15.2258 19.0878 15.1899C19.0878 15.1899 19.0892 15.1968 19.1173 15.1947C19.1613 15.1566 19.1771 15.1206 19.1929 15.0846C19.1929 15.0846 19.1945 15.0917 19.2243 15.0934C19.2735 15.0844 19.293 15.0738 19.3418 15.05C19.4909 15.0532 19.6107 15.0695 19.7305 15.0857C19.7305 15.0857 19.7237 15.0914 19.7205 15.1225C19.7575 15.1672 19.7978 15.1808 19.8381 15.1943C19.8381 15.1943 19.8309 15.1954 19.8267 15.2271C19.8628 15.2723 19.903 15.2859 19.9433 15.2995C19.9433 15.2995 19.9361 15.3006 19.9319 15.3322C19.968 15.3774 20.0083 15.391 20.0485 15.4046C20.0485 15.4046 20.0413 15.4057 20.0371 15.4373C20.0732 15.4825 20.1135 15.4961 20.1537 15.5097C20.1537 15.5097 20.1465 15.5108 20.1423 15.5424C20.1784 15.5876 20.2187 15.6012 20.2589 15.6148C20.2589 15.6148 20.2517 15.6159 20.2476 15.6475C20.2837 15.6927 20.3239 15.7063 20.3641 15.7199C20.3641 15.7199 20.3569 15.721 20.3528 15.7526C20.3889 15.7978 20.4291 15.8114 20.4693 15.825C20.4693 15.825 20.4621 15.8261 20.458 15.8577C20.4941 15.9029 20.5343 15.9165 20.5745 15.9301C20.5745 15.9301 20.5673 15.9312 20.5632 15.9628C20.5993 16.008 20.6395 16.0216 20.6798 16.0352C20.6798 16.0352 20.6717 16.0381 20.6578 16.0634C20.6815 16.1399 20.7192 16.191 20.7569 16.2422C21.4037 16.926 22.0504 17.6098 22.801 18.4034C23.0307 17.6546 23.218 17.0441 23.4447 16.3671C23.4628 15.6504 23.4414 15.0001 23.42 14.3499C23.1691 13.5869 22.9147 12.825 22.6708 12.0598C22.6351 11.9478 22.649 11.82 22.6541 11.6394C22.6682 11.5793 22.6837 11.5325 22.6837 11.5325C22.6837 11.5325 22.7061 11.5162 22.7531 11.5126C22.8246 11.4733 22.849 11.4377 22.8734 11.402C22.8734 11.402 22.8733 11.4092 22.9014 11.4072C22.9453 11.3692 22.9611 11.3332 22.9768 11.2972C22.9768 11.2972 22.9783 11.3041 23.0065 11.3021C23.0504 11.2641 23.0662 11.228 23.0819 11.192C23.0819 11.192 23.0834 11.1989 23.1116 11.197C23.1556 11.159 23.1713 11.1229 23.187 11.0868C23.187 11.0868 23.1885 11.0937 23.2168 11.0918C23.2607 11.0538 23.2764 11.0177 23.2921 10.9816C23.2921 10.9816 23.2936 10.9885 23.3219 10.9866C23.3658 10.9486 23.3815 10.9125 23.3972 10.8763C23.3972 10.8763 23.3987 10.8833 23.427 10.8814C23.4709 10.8433 23.4866 10.8072 23.5023 10.7711C23.5023 10.7711 23.5038 10.7781 23.5321 10.7762C23.5761 10.7381 23.5917 10.702 23.6074 10.6659C23.6074 10.6659 23.6089 10.6729 23.6372 10.671C23.6812 10.6329 23.6969 10.5968 23.7125 10.5607C23.7125 10.5607 23.714 10.5677 23.7423 10.5658C23.7863 10.5278 23.802 10.4916 23.8176 10.4555C23.8176 10.4555 23.8191 10.4625 23.8475 10.4606C23.8914 10.4226 23.9071 10.3865 23.9227 10.3503C23.9227 10.3503 23.9243 10.3572 23.9526 10.3555C23.9966 10.3175 24.0122 10.2813 24.0278 10.2451C24.0278 10.2451 24.03 10.2524 24.0577 10.2575C24.1327 10.2244 24.1801 10.1862 24.2274 10.148C24.4156 10.3456 24.6523 10.5154 24.7835 10.7454C25.3963 11.8195 25.782 12.9567 25.9479 14.2039C26.3048 16.8886 25.5434 19.1944 23.8023 21.2843C23.7468 21.3538 23.7309 21.3802 23.7217 21.4106C23.7217 21.4106 23.7227 21.4032 23.6943 21.4043C23.6509 21.4421 23.6358 21.4788 23.6208 21.5154C23.6208 21.5154 23.6184 21.5085 23.5905 21.5109C23.5467 21.5491 23.5308 21.5849 23.515 21.6207C23.515 21.6207 23.5133 21.6138 23.4858 21.617C23.4421 21.6554 23.4258 21.6907 23.4096 21.7259C23.4096 21.7259 23.4082 21.719 23.3807 21.7222C23.337 21.7606 23.3207 21.7959 23.3045 21.8312C23.3045 21.8312 23.3027 21.8242 23.2622 21.8215C23.1052 21.8215 22.9886 21.8243 22.8719 21.827C22.8719 21.827 22.8786 21.8244 22.8751 21.797C22.8365 21.7532 22.8013 21.7369 22.7661 21.7206C22.7661 21.7206 22.773 21.7193 22.7697 21.6919C22.7312 21.6481 22.6961 21.6318 22.6609 21.6155C22.6609 21.6155 22.6678 21.6142 22.6645 21.5868C22.626 21.543 22.5908 21.5267 22.5556 21.5103C22.5556 21.5103 22.5626 21.5091 22.5593 21.4817C22.5208 21.4379 22.4856 21.4216 22.4504 21.4052C22.4504 21.4052 22.4574 21.404 22.454 21.3766C22.4155 21.3328 22.3804 21.3165 22.3452 21.3001C22.3452 21.3001 22.3522 21.2989 22.3488 21.2715C22.3103 21.2277 22.2752 21.2114 22.24 21.195C22.24 21.195 22.2469 21.1938 22.2436 21.1664C22.2051 21.1226 22.17 21.1063 22.1348 21.0899C22.1348 21.0899 22.1417 21.0887 22.1384 21.0613C22.0999 21.0175 22.0648 21.0012 22.0296 20.9848C22.0296 20.9848 22.0365 20.9835 22.0332 20.9561C21.9948 20.9124 21.9596 20.8961 21.9244 20.8797C21.9244 20.8797 21.9313 20.8784 21.928 20.851C21.8896 20.8073 21.8544 20.791 21.8192 20.7746C21.8192 20.7746 21.8261 20.7733 21.8229 20.7459C21.7844 20.7022 21.7492 20.6858 21.714 20.6695C21.714 20.6695 21.7209 20.6682 21.7176 20.6408C21.6792 20.597 21.644 20.5807 21.6087 20.5644C21.6087 20.5644 21.6157 20.5631 21.6124 20.5357C21.574 20.4919 21.5387 20.4756 21.5035 20.4593C21.5035 20.4593 21.5105 20.458 21.5072 20.4306C21.4687 20.3868 21.4335 20.3705 21.3983 20.3542C21.3983 20.3542 21.4053 20.3529 21.402 20.3255C21.3636 20.2817 21.3283 20.2654 21.2931 20.2491C21.2931 20.2491 21.3001 20.2478 21.2968 20.2203C21.2584 20.1766 21.2231 20.1603 21.1879 20.144C21.1879 20.144 21.1948 20.1427 21.1916 20.1152C21.1532 20.0715 21.1179 20.0552 21.0827 20.0389C21.0827 20.0389 21.0896 20.0376 21.0864 20.0101C21.048 19.9664 21.0127 19.9501 20.9775 19.9338C20.9775 19.9338 20.9844 19.9325 20.9812 19.905C20.9427 19.8613 20.9075 19.845 20.8722 19.8287C20.8722 19.8287 20.8792 19.8274 20.876 19.7999C20.8375 19.7562 20.8023 19.7399 20.767 19.7236C20.767 19.7236 20.774 19.7223 20.7708 19.6948C20.7323 19.6511 20.6971 19.6348 20.6618 19.6185C20.6618 19.6185 20.6688 19.6172 20.6655 19.5897C20.6271 19.546 20.5918 19.5297 20.5566 19.5134C20.5566 19.5134 20.5636 19.5121 20.5603 19.4846C20.5218 19.4409 20.4866 19.4246 20.4514 19.4082C20.4514 19.4082 20.4584 19.4069 20.4551 19.3795C20.4166 19.3358 20.3814 19.3194 20.3462 19.3031C20.3462 19.3031 20.3532 19.3018 20.3499 19.2744C20.3114 19.2307 20.2762 19.2143 20.241 19.1979C20.241 19.1979 20.248 19.1967 20.2447 19.1693C20.2062 19.1256 20.171 19.1092 20.1358 19.0928C20.1358 19.0928 20.1428 19.0916 20.1395 19.0642C20.101 19.0204 20.0658 19.0041 20.0306 18.9877C20.0306 18.9877 20.0376 18.9865 20.0343 18.9591C19.9958 18.9153 19.9606 18.899 19.9254 18.8826C19.9254 18.8826 19.9324 18.8813 19.929 18.854C19.8905 18.8102 19.8554 18.7939 19.8202 18.7775C19.8202 18.7775 19.8272 18.7762 19.8237 18.749C19.7851 18.7052 19.7501 18.6888 19.715 18.6723C19.715 18.6723 19.722 18.6711 19.7184 18.6439C19.6799 18.6001 19.6448 18.5837 19.6098 18.5672C19.6098 18.5672 19.6168 18.566 19.6128 18.5387C19.5735 18.4947 19.5382 18.4779 19.5029 18.4611C19.5029 18.4611 19.5113 18.4599 19.5073 18.4465C19.4906 18.4133 19.4778 18.3935 19.465 18.3737C19.4547 18.3958 19.4444 18.4179 19.4341 18.4401C19.1506 18.7059 18.8671 18.9717 18.5821 19.2879C18.6144 19.3602 18.6481 19.3822 18.6818 19.4041C18.6818 19.4041 18.6743 19.4031 18.6768 19.431C18.7153 19.4749 18.7513 19.4909 18.7872 19.507C18.7872 19.507 18.7803 19.5085 18.7827 19.5365C18.8208 19.5803 18.8566 19.5962 18.8924 19.612C18.8924 19.612 18.8855 19.6136 18.8879 19.6416C18.926 19.6854 18.9618 19.7013 18.9977 19.7171C18.9977 19.7171 18.9907 19.7187 18.9931 19.7467C19.0312 19.7905 19.067 19.8064 19.1029 19.8222C19.1029 19.8222 19.0959 19.8238 19.0983 19.8518C19.1364 19.8956 19.1723 19.9115 19.2081 19.9273C19.2081 19.9273 19.2011 19.9289 19.2035 19.9569C19.2416 20.0007 19.2775 20.0166 19.3133 20.0324C19.3133 20.0324 19.3063 20.034 19.3087 20.062C19.3469 20.1058 19.3827 20.1217 19.4185 20.1375C19.4185 20.1375 19.4115 20.1391 19.4139 20.1671C19.4521 20.2109 19.4879 20.2268 19.5237 20.2427C19.5237 20.2427 19.5168 20.2442 19.5192 20.2722C19.5574 20.316 19.5931 20.3319 19.6289 20.3478C19.6289 20.3478 19.622 20.3493 19.6245 20.3772C19.6627 20.4211 19.6984 20.437 19.7342 20.453C19.7342 20.453 19.7272 20.4544 19.7298 20.4823C19.7681 20.5261 19.8037 20.5421 19.8394 20.5581C19.8394 20.5581 19.8324 20.5595 19.835 20.5874C19.8733 20.6312 19.9089 20.6472 19.9446 20.6633C19.9446 20.6633 19.9376 20.6646 19.9402 20.6925C19.9785 20.7363 20.0141 20.7524 20.0498 20.7684C20.0498 20.7684 20.0428 20.7698 20.0454 20.7976C20.0837 20.8414 20.1193 20.8575 20.155 20.8735C20.155 20.8735 20.148 20.8749 20.1506 20.9027C20.1889 20.9466 20.2245 20.9626 20.2601 20.9786C20.2601 20.9786 20.2532 20.98 20.2558 21.0078C20.2941 21.0517 20.3297 21.0677 20.3653 21.0838C20.3653 21.0838 20.3584 21.0852 20.361 21.113C20.3993 21.1568 20.4349 21.1729 20.4705 21.1889C20.4705 21.1889 20.4635 21.1903 20.4662 21.2181C20.5045 21.2619 20.5401 21.278 20.5757 21.294C20.5757 21.294 20.5688 21.2954 20.5715 21.3232C20.6097 21.367 20.6453 21.3831 20.6809 21.3992C20.6809 21.3992 20.674 21.4005 20.6767 21.4283C20.715 21.4721 20.7506 21.4882 20.7861 21.5043C20.7861 21.5043 20.7792 21.5056 20.7819 21.5334C20.8202 21.5772 20.8558 21.5933 20.8913 21.6094C20.8913 21.6094 20.8844 21.6107 20.8872 21.6384C20.9255 21.6823 20.961 21.6984 20.9966 21.7146C20.9966 21.7146 20.9896 21.7158 20.9925 21.7435C21.0309 21.7873 21.0663 21.8035 21.1018 21.8197C21.1018 21.8197 21.0948 21.8209 21.0977 21.8486C21.1361 21.8924 21.1715 21.9086 21.207 21.9248C21.207 21.9248 21.2 21.9261 21.2029 21.9537C21.2413 21.9975 21.2767 22.0137 21.3122 22.03C21.3122 22.03 21.3052 22.0312 21.3081 22.0588C21.3465 22.1027 21.3819 22.1189 21.4174 22.135C21.4174 22.135 21.4104 22.1363 21.4132 22.164C21.4516 22.2078 21.4871 22.224 21.5226 22.2401C21.5226 22.2401 21.5156 22.2414 21.5184 22.2691C21.5568 22.3129 21.5923 22.3291 21.6278 22.3452C21.6278 22.3452 21.6208 22.3465 21.6236 22.3742C21.662 22.4181 21.6975 22.4342 21.733 22.4503C21.733 22.4503 21.7261 22.4516 21.7289 22.4792C21.7673 22.5231 21.8028 22.5393 21.8383 22.5555C21.8383 22.5555 21.8313 22.5567 21.8342 22.5843C21.8725 22.6282 21.908 22.6444 21.9435 22.6606C21.9435 22.6606 21.9365 22.6618 21.9394 22.6894C21.9777 22.7333 22.0132 22.7495 22.0487 22.7657C22.0487 22.7657 22.0417 22.7669 22.0446 22.7945C22.083 22.8384 22.1184 22.8546 22.1539 22.8708C22.1539 22.8708 22.1469 22.872 22.1498 22.8997C22.1882 22.9435 22.2236 22.9597 22.2591 22.9759C22.2591 22.9759 22.2521 22.9771 22.255 23.0048C22.2934 23.0486 22.3289 23.0648 22.3643 23.0811C22.3643 23.0811 22.3573 23.0822 22.3603 23.1099C22.3986 23.1537 22.4341 23.17 22.4695 23.1862C22.4695 23.1862 22.4625 23.1874 22.4655 23.2149C22.504 23.2588 22.5393 23.2751 22.5747 23.2914C22.5747 23.2914 22.5677 23.2925 22.5708 23.32C22.6092 23.3639 22.6445 23.3802 22.6799 23.3965C22.6799 23.3965 22.6729 23.3976 22.6761 23.4251C22.7145 23.4689 22.7498 23.4853 22.7851 23.5017C22.7851 23.5017 22.7782 23.5029 22.7795 23.5303C22.8092 23.5869 22.8376 23.616 22.8659 23.6451C23.0776 23.5492 23.3372 23.5017 23.4925 23.3486C24.0507 22.7981 24.6174 22.2461 25.0999 21.6312C25.8254 20.7068 26.29 19.6461 26.7013 18.5352C27.1456 17.3351 27.193 16.1303 27.2279 14.8157C27.1681 14.1172 27.0675 13.4984 26.9669 12.8795C26.9669 12.8795 26.9746 12.8823 26.9876 12.848C26.9286 12.6647 26.8566 12.5157 26.7846 12.3666C26.5178 11.3038 26.0675 10.3279 25.4498 9.42046C25.355 9.2812 25.4342 9.02348 25.4329 8.82054C25.5798 8.87736 25.8038 8.89195 25.8617 8.99758C26.3832 9.94841 26.9562 10.883 27.3561 11.8855C27.863 13.156 27.9895 14.5248 27.917 15.8875C27.8342 17.4428 27.4549 18.918 26.6951 20.3105C26.1145 21.3745 25.4515 22.3583 24.5927 23.2009C24.0929 23.6913 23.524 24.1113 22.9531 24.5908C21.2345 22.8701 19.5446 21.1781 17.8458 19.4111C17.8334 19.2514 17.8297 19.1667 17.826 19.0819C17.826 19.0819 17.8291 19.0887 17.8581 19.0879C17.9023 19.0501 17.9174 19.013 17.9325 18.9759C17.9325 18.9759 17.934 18.9829 17.9632 18.9824C18.0074 18.9449 18.0225 18.9078 18.0376 18.8707C18.0376 18.8707 18.0391 18.8777 18.0683 18.8772C18.1125 18.8397 18.1276 18.8026 18.1427 18.7655C18.1427 18.7655 18.1442 18.7725 18.1734 18.7721C18.2177 18.7345 18.2327 18.6974 18.2478 18.6602C18.2478 18.6602 18.2494 18.6672 18.2785 18.6669C18.3228 18.6293 18.3378 18.5922 18.3529 18.555C18.3529 18.555 18.3545 18.562 18.3837 18.5617C18.4279 18.5242 18.4429 18.487 18.458 18.4498C18.458 18.4498 18.4596 18.4568 18.4888 18.4565C18.533 18.419 18.548 18.3818 18.563 18.3446C18.563 18.3446 18.5647 18.3516 18.5939 18.3513C18.6381 18.3138 18.6531 18.2766 18.6681 18.2394C18.6681 18.2394 18.6698 18.2464 18.699 18.2461C18.7432 18.2086 18.7582 18.1714 18.7732 18.1342C18.7732 18.1342 18.7749 18.1412 18.8041 18.1409C18.8484 18.1034 18.8634 18.0662 18.8784 18.029C18.8784 18.029 18.88 18.036 18.9092 18.0356C18.9534 17.9981 18.9685 17.9609 18.9835 17.9238C18.9835 17.9238 18.9851 17.9308 19.0143 17.9304C19.0586 17.8929 19.0736 17.8557 19.0886 17.8186C19.0886 17.8186 19.0902 17.8256 19.1195 17.8253C19.1637 17.7877 19.1787 17.7506 19.1937 17.7134C19.1937 17.7134 19.1957 17.7204 19.2256 17.7226C19.2867 17.6939 19.318 17.663 19.3492 17.6321C19.4315 17.6382 19.5476 17.6111 19.5911 17.6554C20.6427 18.7257 21.6906 19.7996 22.7283 20.8833C22.9396 21.104 23.1157 21.1709 23.3234 20.9043C24.1464 19.8474 24.8104 18.7109 25.131 17.3254C25.2702 16.8338 25.4145 16.4013 25.4501 15.96C25.5318 14.9475 25.495 13.9393 25.0747 12.9852C25.0747 12.9852 25.0828 12.9879 25.0902 12.9599C25.0639 12.8798 25.0301 12.8277 24.9963 12.7755C24.8 12.2899 24.6039 11.8043 24.4074 11.3188C24.3024 11.0593 24.1738 11.0325 23.9505 11.2238C23.3343 11.7519 23.3197 11.8465 23.6103 12.5749C24.4327 14.6363 24.3542 16.6685 23.3634 18.6601C23.3333 18.7208 23.3074 18.7835 23.2114 18.8723C23.0922 19.0002 23.041 19.1011 22.9899 19.202C22.9899 19.202 22.9859 19.1934 22.9588 19.1843C22.9114 19.1837 22.8912 19.1923 22.871 19.2009C22.871 19.2009 22.8774 19.1933 22.8818 19.1616C22.8106 19.0823 22.7351 19.0349 22.6596 18.9874C22.6596 18.9874 22.6665 18.9855 22.6655 18.9566C22.6277 18.9123 22.5909 18.897 22.554 18.8816C22.554 18.8816 22.5611 18.8804 22.5602 18.8515C22.5225 18.8072 22.4857 18.7918 22.4488 18.7764C22.4488 18.7764 22.4559 18.7753 22.455 18.7464C22.4173 18.7021 22.3804 18.6867 22.3436 18.6713C22.3436 18.6713 22.3507 18.6702 22.3498 18.6413C22.312 18.597 22.2752 18.5816 22.2384 18.5662C22.2384 18.5662 22.2455 18.565 22.2446 18.5362C22.2068 18.4919 22.17 18.4765 22.1332 18.4611C22.1332 18.4611 22.1403 18.4599 22.1394 18.4311C22.1016 18.3868 22.0648 18.3714 22.028 18.356C22.028 18.356 22.0351 18.3548 22.0342 18.3259C21.9965 18.2817 21.9596 18.2663 21.9228 18.2509C21.9228 18.2509 21.9298 18.2497 21.929 18.2208C21.8913 18.1765 21.8544 18.1612 21.8176 18.1458C21.8176 18.1458 21.8246 18.1446 21.8238 18.1157C21.7861 18.0714 21.7492 18.0561 21.7124 18.0407C21.7124 18.0407 21.7194 18.0395 21.7186 18.0106C21.6809 17.9663 21.644 17.951 21.6072 17.9357C21.6072 17.9357 21.6142 17.9344 21.6134 17.9055C21.5757 17.8612 21.5388 17.8459 21.502 17.8305C21.502 17.8305 21.509 17.8293 21.5081 17.8004C21.4704 17.7561 21.4336 17.7408 21.3967 17.7254C21.3967 17.7254 21.4038 17.7242 21.4028 17.6953C21.3651 17.6511 21.3283 17.6357 21.2915 17.6202C21.2915 17.6202 21.2986 17.6191 21.2976 17.5902C21.2599 17.546 21.2231 17.5305 21.1863 17.5151C21.1863 17.5151 21.1934 17.514 21.1924 17.4851C21.1547 17.4409 21.1179 17.4255 21.0811 17.4101C21.0811 17.4101 21.0882 17.4089 21.0873 17.38C21.0496 17.3357 21.0128 17.3203 20.9759 17.305C20.9759 17.305 20.9829 17.3038 20.9821 17.2748C20.9444 17.2306 20.9076 17.2152 20.8707 17.1999C20.8707 17.1999 20.8777 17.1987 20.8769 17.1697C20.8393 17.1255 20.8024 17.1101 20.7655 17.0948C20.7655 17.0948 20.7725 17.0936 20.7717 17.0646C20.734 17.0203 20.6972 17.005 20.6603 16.9897C20.6603 16.9897 20.6673 16.9884 20.6665 16.9595C20.6288 16.9152 20.592 16.8999 20.5551 16.8846C20.5551 16.8846 20.5621 16.8833 20.5613 16.8544C20.5236 16.8101 20.4867 16.7948 20.4499 16.7795C20.4499 16.7795 20.4569 16.7782 20.4561 16.7493C20.4184 16.705 20.3815 16.6897 20.3447 16.6743C20.3447 16.6743 20.3517 16.6731 20.3508 16.6442C20.3131 16.5999 20.2763 16.5846 20.2395 16.5692C20.2395 16.5692 20.2465 16.568 20.2456 16.5391C20.2078 16.4949 20.171 16.4794 20.1343 16.464C20.1343 16.464 20.1413 16.4629 20.1403 16.434C20.1026 16.3898 20.0658 16.3743 20.0291 16.3589C20.0291 16.3589 20.0361 16.3578 20.0351 16.3289C19.9974 16.2847 19.9606 16.2692 19.9239 16.2538C19.9239 16.2538 19.9309 16.2526 19.9299 16.2238C19.8922 16.1795 19.8554 16.1641 19.8187 16.1487C19.8187 16.1487 19.8257 16.1475 19.8247 16.1187C19.787 16.0744 19.7502 16.059 19.7135 16.0436C19.7135 16.0436 19.7205 16.0424 19.7196 16.0135C19.6819 15.9693 19.6451 15.9539 19.6083 15.9385C19.6083 15.9385 19.6153 15.9373 19.6144 15.9084C19.5766 15.8642 19.5398 15.8487 19.503 15.8333C19.503 15.8333 19.5103 15.8325 19.5052 15.8034C19.4354 15.7971 19.3708 15.8198 19.3061 15.8426C17.5112 17.652 15.7165 19.4615 13.9214 21.2705C13.6016 21.5928 13.28 21.9134 12.893 22.2608C12.8157 22.3466 12.8045 22.4065 12.7933 22.4663C12.7933 22.4663 12.7876 22.4594 12.7555 22.4542C12.7106 22.4906 12.6978 22.5322 12.685 22.5738C12.685 22.5738 12.6836 22.5666 12.6509 22.5604C12.6055 22.5958 12.5927 22.6374 12.5799 22.679C12.5799 22.679 12.5785 22.6718 12.5458 22.6656C12.5003 22.701 12.4875 22.7426 12.4747 22.7842C12.4747 22.7842 12.4734 22.777 12.4407 22.7708C12.3952 22.8062 12.3824 22.8478 12.3696 22.8894C12.3696 22.8894 12.3683 22.8822 12.3356 22.876C12.2901 22.9114 12.2773 22.953 12.2645 22.9946C12.2645 22.9946 12.2632 22.9874 12.2305 22.9812C12.185 23.0166 12.1722 23.0582 12.1594 23.0998C12.1594 23.0998 12.1581 23.0926 12.1254 23.0864C12.0799 23.1218 12.0671 23.1634 12.0543 23.205C12.0543 23.205 12.053 23.1978 12.0203 23.1916C11.9748 23.227 11.962 23.2686 11.9492 23.3102C11.9492 23.3102 11.9479 23.303 11.9152 23.2968C11.8697 23.3322 11.8569 23.3738 11.8441 23.4154C11.8441 23.4154 11.8427 23.4082 11.8101 23.402C11.7646 23.4374 11.7518 23.479 11.7389 23.5206C11.7389 23.5206 11.7376 23.5134 11.705 23.5073C11.6595 23.5427 11.6466 23.5843 11.6338 23.6258C11.6338 23.6258 11.6325 23.6186 11.5999 23.6125C11.5544 23.6479 11.5415 23.6895 11.5287 23.731C11.5287 23.731 11.5274 23.7238 11.4948 23.7177C11.4493 23.7531 11.4364 23.7947 11.4236 23.8362C11.4236 23.8362 11.4223 23.829 11.3897 23.8229C11.3442 23.8584 11.3313 23.8999 11.3185 23.9415C11.3185 23.9415 11.3172 23.9343 11.2845 23.9281C11.2391 23.9636 11.2262 24.0051 11.2134 24.0467C11.2134 24.0467 11.2121 24.0395 11.1794 24.0333C11.1339 24.0688 11.1211 24.1103 11.1083 24.1519C11.1083 24.1519 11.107 24.1447 11.0743 24.1386C11.0289 24.174 11.016 24.2155 11.0031 24.2571C11.0031 24.2571 11.0019 24.2499 10.9693 24.2438C10.9238 24.2793 10.9109 24.3208 10.898 24.3623C10.898 24.3623 10.8948 24.3541 10.8673 24.3373C10.6801 24.334 10.5204 24.3474 10.3607 24.3608C8.53826 23.147 7.29521 21.4357 6.43149 19.4795C6.02918 18.5683 5.93768 17.5146 5.74716 16.5176C5.65714 16.0464 5.62789 15.5558 5.63655 15.0752C5.66253 13.6351 5.8812 12.2299 6.56173 10.9351C6.90319 10.2854 7.26277 9.64488 7.62986 9.0093C7.68679 8.91073 7.82811 8.8609 7.98631 8.82311C8.08183 8.86874 8.12144 8.87979 8.16105 8.89084C8.16105 8.89084 8.1541 8.89231 8.15569 8.92086C8.1937 8.96509 8.23013 8.98077 8.26656 8.99645C8.26656 8.99645 8.25949 8.9975 8.26112 9.02592C8.29909 9.0701 8.33543 9.08587 8.37178 9.10164C8.37178 9.10164 8.3647 9.10262 8.36637 9.13101C8.40436 9.17519 8.44067 9.19097 8.47699 9.20676C8.47699 9.20676 8.46991 9.20772 8.47167 9.23606C8.5097 9.28023 8.54596 9.29606 8.58223 9.3119C8.58223 9.3119 8.57513 9.31283 8.57691 9.34115C8.61494 9.38531 8.65119 9.40116 8.68745 9.41701C8.68745 9.41701 8.68034 9.41793 8.68214 9.44624C8.72018 9.4904 8.75642 9.50626 8.79266 9.52212C8.79266 9.52212 8.78555 9.52304 8.78736 9.55134C8.8254 9.5955 8.86164 9.61137 8.89787 9.62723C8.89787 9.62723 8.89076 9.62814 8.89256 9.65645C8.9306 9.70062 8.96684 9.71648 9.00307 9.73233C9.00307 9.73234 8.99597 9.73326 8.99774 9.76158C9.03577 9.80574 9.07202 9.82159 9.10828 9.83743C9.10828 9.83743 9.10118 9.83837 9.10284 9.86676C9.14083 9.91093 9.17715 9.92671 9.21347 9.9425C9.21347 9.9425 9.20638 9.94348 9.20803 9.97188C9.246 10.0161 9.28234 10.0318 9.31867 10.0476C9.31867 10.0476 9.31159 10.0486 9.31321 10.077C9.35118 10.1212 9.38753 10.1369 9.42388 10.1527C9.42388 10.1527 9.4168 10.1537 9.41841 10.1821C9.45637 10.2263 9.49273 10.242 9.52908 10.2578C9.52908 10.2578 9.52208 10.2594 9.5152 10.3034C9.50988 10.475 9.51144 10.6027 9.513 10.7303C9.513 10.7303 9.51974 10.7345 9.4812 10.7476C9.43547 10.8073 9.42827 10.854 9.42108 10.9006C9.42108 10.9006 9.41674 10.8936 9.38805 10.8941C9.34379 10.9319 9.32822 10.9692 9.31266 11.0065C9.31266 11.0065 9.31113 10.9979 9.28033 11.0153C9.23202 11.107 9.21451 11.1813 9.197 11.2555C9.197 11.2555 9.20444 11.2602 9.16848 11.2759C9.12292 11.3366 9.11331 11.3818 9.1037 11.4269C9.1037 11.4269 9.1024 11.4197 9.07209 11.43C9.02776 11.5057 9.01375 11.5712 8.99974 11.6367C8.99974 11.6367 8.99749 11.6299 8.96774 11.6409C8.92342 11.717 8.90885 11.7821 8.89429 11.8471C8.89429 11.8471 8.89222 11.8401 8.87564 11.8479C8.84923 11.8666 8.829 11.8815 8.83137 11.8875C8.84174 11.9135 8.85866 11.9369 8.87321 11.9612C8.66945 12.7781 8.40862 13.5856 8.27315 14.4137C7.93091 16.5055 8.56288 18.3903 9.63952 20.1519C9.85174 20.4991 10.1472 20.7954 10.4485 21.1702C12.8572 18.7573 15.225 16.3853 17.6071 13.961C17.5825 13.8841 17.5436 13.8596 17.5047 13.8351C17.5047 13.8351 17.5119 13.835 17.5103 13.8064C17.4722 13.7622 17.4355 13.7467 17.3989 13.7312C17.3989 13.7312 17.4059 13.73 17.4046 13.7013C17.3668 13.6572 17.3302 13.6416 17.2937 13.6261C17.2937 13.6261 17.3007 13.6249 17.2994 13.5962C17.2616 13.5521 17.225 13.5365 17.1885 13.521C17.1885 13.521 17.1955 13.5198 17.1942 13.4912C17.1563 13.447 17.1198 13.4314 17.0833 13.4158C17.0833 13.4158 17.0903 13.4147 17.0889 13.3861C17.0511 13.3419 17.0146 13.3263 16.9781 13.3107C16.9781 13.3107 16.9851 13.3095 16.9837 13.281C16.9458 13.2368 16.9093 13.2212 16.8729 13.2055C16.8729 13.2055 16.88 13.2044 16.8835 13.177C16.817 13.1702 16.7468 13.1907 16.6766 13.2112C16.6766 13.2112 16.6742 13.2045 16.6456 13.2059C16.6015 13.2438 16.5859 13.2803 16.5703 13.3168C16.5703 13.3168 16.5691 13.3097 16.5405 13.3111C16.4964 13.349 16.4808 13.3855 16.4651 13.422C16.4651 13.422 16.464 13.4149 16.4354 13.4163C16.3913 13.4542 16.3756 13.4907 16.36 13.5272C16.36 13.5272 16.3589 13.5201 16.3303 13.5216C16.2862 13.5595 16.2705 13.5959 16.2549 13.6324C16.2549 13.6324 16.2538 13.6253 16.2252 13.6268C16.1811 13.6647 16.1654 13.7011 16.1498 13.7376C16.1498 13.7376 16.1487 13.7305 16.1201 13.732C16.0759 13.7699 16.0603 13.8063 16.0447 13.8428C16.0447 13.8428 16.0436 13.8358 16.015 13.8371C15.9708 13.875 15.9552 13.9115 15.9396 13.948C15.9396 13.948 15.9385 13.941 15.9098 13.9423C15.8656 13.9801 15.8501 14.0167 15.8346 14.0532C15.8346 14.0532 15.8334 14.0462 15.8047 14.0474C15.7605 14.0853 15.745 14.1219 15.7295 14.1584C15.7295 14.1584 15.7283 14.1514 15.6996 14.1526C15.6554 14.1905 15.6399 14.2271 15.6244 14.2637C15.6244 14.2637 15.6232 14.2566 15.5945 14.2579C15.5503 14.2957 15.5348 14.3323 15.5193 14.3689C15.5193 14.3689 15.5181 14.3618 15.4895 14.3632C15.4453 14.4011 15.4297 14.4376 15.4141 14.4741C15.4141 14.4741 15.4129 14.467 15.3843 14.4684C15.3402 14.5063 15.3246 14.5428 15.309 14.5793C15.309 14.5793 15.3078 14.5722 15.2792 14.5736C15.235 14.6115 15.2195 14.648 15.2039 14.6845C15.2039 14.6845 15.2027 14.6774 15.174 14.6787C15.1299 14.7165 15.1143 14.7531 15.0988 14.7897C15.0988 14.7897 15.0976 14.7826 15.0689 14.7839C15.0247 14.8217 15.0093 14.8583 14.9938 14.8949C14.9938 14.8949 14.9925 14.8879 14.9637 14.8889C14.9195 14.9267 14.9041 14.9634 14.8887 15.0001C14.8887 15.0001 14.8874 14.9931 14.8586 14.9941C14.8144 15.0319 14.799 15.0686 14.7836 15.1053C14.7836 15.1053 14.7823 15.0983 14.7535 15.0993C14.7093 15.1371 14.6939 15.1738 14.6785 15.2105C14.6785 15.2105 14.6772 15.2035 14.6484 15.2045C14.6042 15.2423 14.5888 15.279 14.5734 15.3157C14.5734 15.3157 14.5721 15.3087 14.5433 15.3097C14.4991 15.3475 14.4837 15.3842 14.4684 15.4209C14.4684 15.4209 14.467 15.4139 14.4382 15.4149C14.394 15.4527 14.3786 15.4894 14.3633 15.5262C14.3633 15.5262 14.3619 15.5192 14.333 15.5201C14.2889 15.5579 14.2735 15.5946 14.2582 15.6314C14.2582 15.6314 14.2568 15.6244 14.2279 15.6253C14.1837 15.6631 14.1684 15.6998 14.1531 15.7366C14.1531 15.7366 14.1517 15.7296 14.1228 15.7305C14.0786 15.7683 14.0633 15.805 14.048 15.8418C14.048 15.8418 14.0466 15.8348 14.0177 15.8358C13.9735 15.8735 13.9582 15.9102 13.9428 15.947C13.9428 15.947 13.9415 15.94 13.9126 15.941C13.8684 15.9787 13.8531 16.0154 13.8377 16.0522C13.8377 16.0522 13.8363 16.0452 13.8075 16.0462C13.7633 16.0839 13.748 16.1207 13.7326 16.1574C13.7326 16.1574 13.7312 16.1504 13.7024 16.1514C13.6582 16.1891 13.6429 16.2259 13.6275 16.2626C13.6275 16.2626 13.6261 16.2556 13.5973 16.2566C13.5531 16.2943 13.5377 16.3311 13.5224 16.3678C13.5224 16.3678 13.521 16.3608 13.4922 16.3618C13.448 16.3995 13.4326 16.4363 13.4173 16.473C13.4173 16.473 13.4159 16.466 13.3871 16.467C13.3429 16.5048 13.3275 16.5415 13.3122 16.5782C13.3122 16.5782 13.3108 16.5712 13.282 16.5722C13.2378 16.61 13.2224 16.6467 13.207 16.6834C13.207 16.6834 13.2057 16.6764 13.1769 16.6775C13.1327 16.7152 13.1173 16.7519 13.1019 16.7886C13.1019 16.7886 13.1006 16.7816 13.0717 16.7827C13.0275 16.8204 13.0122 16.8571 12.9968 16.8939C12.9968 16.8939 12.9955 16.8868 12.9666 16.8879C12.9224 16.9256 12.9071 16.9623 12.8917 16.9991C12.8917 16.9991 12.8903 16.9921 12.8615 16.9931C12.8173 17.0308 12.8019 17.0675 12.7866 17.1043C12.7866 17.1043 12.7852 17.0973 12.7564 17.0983C12.7122 17.136 12.6968 17.1728 12.6815 17.2095C12.6815 17.2095 12.6801 17.2025 12.6513 17.2035C12.6071 17.2412 12.5917 17.278 12.5763 17.3147C12.5763 17.3147 12.575 17.3077 12.5462 17.3087C12.502 17.3465 12.4866 17.3832 12.4712 17.4199C12.4712 17.4199 12.4699 17.4129 12.4411 17.4139C12.3969 17.4517 12.3815 17.4884 12.3661 17.5251C12.3661 17.5251 12.3648 17.5181 12.336 17.5191C12.2918 17.5569 12.2764 17.5936 12.261 17.6303C12.261 17.6303 12.2597 17.6233 12.2309 17.6243C12.1867 17.6621 12.1713 17.6988 12.1559 17.7355C12.1559 17.7355 12.1546 17.7285 12.1257 17.7295C12.0815 17.7672 12.0662 17.804 12.0509 17.8407C12.0509 17.8407 12.0495 17.8337 12.0206 17.8346C11.9764 17.8723 11.9611 17.9091 11.9458 17.9459C11.9458 17.9459 11.9443 17.9389 11.9154 17.9398C11.8712 17.9774 11.856 18.0143 11.8407 18.0511C11.8407 18.0511 11.8392 18.0441 11.8103 18.045C11.7661 18.0826 11.7509 18.1195 11.7356 18.1563C11.7356 18.1563 11.7341 18.1493 11.7052 18.1502C11.661 18.1878 11.6458 18.2247 11.6305 18.2615C11.6305 18.2615 11.629 18.2545 11.6001 18.2554C11.5559 18.293 11.5406 18.3299 11.5254 18.3667C11.5254 18.3667 11.5239 18.3597 11.495 18.3606C11.4508 18.3982 11.4355 18.4351 11.4203 18.4719C11.4203 18.4719 11.4188 18.465 11.3898 18.4658C11.3457 18.5034 11.3304 18.5403 11.3152 18.5771C11.3152 18.5771 11.3137 18.5702 11.2847 18.571C11.2405 18.6086 11.2253 18.6455 11.2101 18.6823C11.2101 18.6823 11.2086 18.6754 11.1796 18.6762C11.1354 18.7138 11.1202 18.7507 11.105 18.7876C11.105 18.7876 11.1035 18.7806 11.0745 18.7814C11.0303 18.8191 11.0151 18.8559 10.9999 18.8928C10.9999 18.8928 10.9984 18.8858 10.9694 18.8866C10.9252 18.9243 10.91 18.9611 10.8947 18.998C10.8947 18.998 10.893 18.991 10.8598 18.9888C10.7795 19.0603 10.7323 19.134 10.6852 19.2076C10.6852 19.2076 10.6822 19.2006 10.6552 19.1954C10.6078 19.1948 10.5875 19.1993 10.5672 19.2038C10.5672 19.2038 10.5739 19.2006 10.5783 19.1684C10.5038 19.0519 10.425 18.9677 10.3462 18.8835C9.43471 17.3959 9.19439 15.7718 9.52654 14.0928C9.69787 13.2267 10.0855 12.4034 10.4469 11.5505C10.6798 11.6026 10.8411 11.6651 11.0025 11.7276C11.0025 11.7276 10.995 11.7315 10.9811 11.7676C10.973 11.8316 10.9789 11.8595 10.9847 11.8875C10.9847 11.8875 10.9912 11.8889 10.9508 11.9014C10.8696 12.0316 10.8288 12.1494 10.788 12.2671C10.788 12.2671 10.786 12.2601 10.7541 12.2685C10.7091 12.3438 10.696 12.4107 10.6829 12.4776C10.6829 12.4776 10.681 12.4705 10.6496 12.479C10.6045 12.5543 10.5906 12.6211 10.5768 12.6879C10.5768 12.6879 10.5746 12.6798 10.544 12.6965C10.5004 12.8097 10.4873 12.9062 10.4743 13.0027C10.4743 13.0027 10.4709 12.9963 10.4427 13.0023C10.4083 13.0698 10.4021 13.1313 10.3958 13.1927C10.2794 13.7754 10.1111 14.3534 10.058 14.9418C9.9676 15.9435 10.1872 16.9113 10.5369 17.9043C10.5795 18.0078 10.6264 18.0552 10.6733 18.1027C10.6733 18.1027 10.6779 18.1005 10.6843 18.1296C10.7215 18.1511 10.7524 18.1435 10.7833 18.1359C10.7833 18.1359 10.7832 18.144 10.8143 18.148C10.8589 18.1119 10.8725 18.0718 10.8861 18.0317C10.8861 18.0317 10.8871 18.0389 10.9187 18.0429C10.9639 18.0067 10.9776 17.9666 10.9912 17.9265C10.9912 17.9265 10.9923 17.9337 11.0238 17.9377C11.069 17.9015 11.0827 17.8614 11.0963 17.8213C11.0963 17.8213 11.0974 17.8285 11.1289 17.8325C11.1741 17.7963 11.1878 17.7562 11.2015 17.7161C11.2015 17.7161 11.2025 17.7233 11.234 17.7273C11.2792 17.6911 11.2929 17.651 11.3066 17.6109C11.3066 17.6109 11.3076 17.6181 11.3391 17.6221C11.3843 17.5859 11.398 17.5458 11.4117 17.5057C11.4117 17.5057 11.4127 17.5129 11.4442 17.5169C11.4894 17.4807 11.5031 17.4406 11.5168 17.4005C11.5168 17.4005 11.5178 17.4077 11.5493 17.4117C11.5946 17.3755 11.6082 17.3354 11.6219 17.2953C11.6219 17.2953 11.6229 17.3025 11.6545 17.3065C11.6997 17.2703 11.7133 17.2302 11.727 17.19C11.727 17.19 11.728 17.1973 11.7596 17.2012C11.8048 17.1651 11.8184 17.125 11.8321 17.0848C11.8321 17.0848 11.8331 17.0921 11.8647 17.096C11.9099 17.0599 11.9235 17.0198 11.9372 16.9796C11.9372 16.9796 11.9382 16.9868 11.9698 16.9909C12.015 16.9547 12.0287 16.9146 12.0423 16.8744C12.0423 16.8744 12.0434 16.8816 12.075 16.8858C12.1202 16.8497 12.1338 16.8094 12.1474 16.7692C12.1474 16.7692 12.1485 16.7764 12.1801 16.7806C12.2253 16.7445 12.2389 16.7043 12.2525 16.664C12.2525 16.664 12.2536 16.6712 12.2852 16.6754C12.3304 16.6393 12.344 16.5991 12.3576 16.5588C12.3576 16.5588 12.3587 16.566 12.3903 16.5702C12.4355 16.5341 12.4491 16.4939 12.4627 16.4536C12.4627 16.4536 12.4638 16.4608 12.4954 16.465C12.5406 16.4289 12.5542 16.3886 12.5678 16.3484C12.5678 16.3484 12.5689 16.3556 12.6005 16.3598C12.6457 16.3237 12.6593 16.2834 12.6729 16.2432C12.6729 16.2432 12.674 16.2504 12.7056 16.2545C12.7508 16.2184 12.7644 16.1782 12.778 16.138C12.778 16.138 12.7791 16.1452 12.8107 16.1493C12.856 16.1132 12.8695 16.073 12.8831 16.0328C12.8831 16.0328 12.8842 16.04 12.9158 16.0441C12.9611 16.008 12.9747 15.9678 12.9882 15.9276C12.9882 15.9276 12.9893 15.9348 13.021 15.9389C13.0662 15.9028 13.0798 15.8626 13.0934 15.8223C13.0934 15.8223 13.0944 15.8296 13.1261 15.8337C13.1713 15.7976 13.1849 15.7574 13.1985 15.7171C13.1985 15.7171 13.1996 15.7244 13.2312 15.7285C13.2764 15.6924 13.29 15.6522 13.3036 15.6119C13.3036 15.6119 13.3047 15.6192 13.3363 15.6233C13.3815 15.5872 13.3951 15.547 13.4087 15.5067C13.4087 15.5067 13.4098 15.5139 13.4414 15.5181C13.4866 15.482 13.5002 15.4418 13.5138 15.4015C13.5138 15.4015 13.5149 15.4087 13.5465 15.4129C13.5917 15.3768 13.6053 15.3366 13.6189 15.2963C13.6189 15.2963 13.62 15.3035 13.6516 15.3077C13.6968 15.2716 13.7104 15.2313 13.724 15.1911C13.724 15.1911 13.7251 15.1983 13.7567 15.2025C13.8019 15.1664 13.8155 15.1261 13.8291 15.0859C13.8291 15.0859 13.8302 15.0931 13.8618 15.0973C13.9071 15.0612 13.9206 15.0209 13.9342 14.9807C13.9342 14.9807 13.9353 14.9879 13.967 14.9921C14.0122 14.956 14.0258 14.9157 14.0393 14.8755C14.0393 14.8755 14.0404 14.8827 14.0721 14.8869C14.1173 14.8508 14.1309 14.8105 14.1444 14.7703C14.1444 14.7703 14.1456 14.7775 14.1772 14.7817C14.2224 14.7456 14.236 14.7053 14.2495 14.6651C14.2495 14.6651 14.2507 14.6723 14.2823 14.6765C14.3275 14.6404 14.3411 14.6002 14.3546 14.5599C14.3546 14.5599 14.3558 14.5671 14.3875 14.5713C14.4327 14.5353 14.4462 14.495 14.4597 14.4547C14.4597 14.4547 14.4609 14.4619 14.4926 14.4661C14.5378 14.4301 14.5513 14.3898 14.5648 14.3495C14.5648 14.3495 14.566 14.3567 14.5977 14.3609C14.6429 14.3249 14.6564 14.2846 14.6699 14.2443C14.6699 14.2443 14.6711 14.2515 14.7028 14.2557C14.748 14.2197 14.7615 14.1794 14.7751 14.139C14.7751 14.139 14.7762 14.1463 14.8079 14.1506C14.8532 14.1145 14.8667 14.0742 14.8802 14.0338C14.8802 14.0338 14.8813 14.041 14.913 14.0454C14.9583 14.0093 14.9718 13.969 14.9853 13.9286C14.9853 13.9286 14.9864 13.9358 15.0182 13.9402C15.0634 13.9041 15.0769 13.8638 15.0904 13.8234C15.0904 13.8234 15.0915 13.8306 15.1233 13.835C15.1685 13.7989 15.182 13.7586 15.1955 13.7182C15.1955 13.7182 15.1967 13.7254 15.2284 13.7298C15.2736 13.6938 15.2871 13.6534 15.3006 13.613C15.3006 13.613 15.3018 13.6202 15.3335 13.6246C15.3788 13.5886 15.3922 13.5482 15.4057 13.5078C15.4057 13.5078 15.4069 13.515 15.4387 13.5195C15.4839 13.4836 15.4973 13.4431 15.5107 13.4026C15.5107 13.4026 15.512 13.4098 15.5438 13.4143C15.5891 13.3784 15.6024 13.3379 15.6158 13.2974C15.6158 13.2974 15.6171 13.3046 15.649 13.3092C15.6942 13.2732 15.7075 13.2327 15.7209 13.1922C15.7209 13.1922 15.7222 13.1994 15.7541 13.204C15.7993 13.168 15.8127 13.1275 15.826 13.087C15.826 13.087 15.8273 13.0942 15.8592 13.0988C15.9044 13.0628 15.9178 13.0223 15.9311 12.9818C15.9311 12.9818 15.9324 12.989 15.9643 12.9936C16.0095 12.9576 16.0229 12.9171 16.0362 12.8766C16.0362 12.8766 16.0375 12.8837 16.0694 12.8884C16.1146 12.8524 16.128 12.8119 16.1413 12.7714C16.1413 12.7714 16.1426 12.7785 16.1745 12.7832C16.2198 12.7472 16.2331 12.7067 16.2464 12.6661C16.2464 12.6661 16.2477 12.6733 16.2796 12.678C16.3249 12.6421 16.3382 12.6015 16.3515 12.5609C16.3515 12.5609 16.3529 12.5681 16.3848 12.5728C16.43 12.5369 16.4433 12.4963 16.4566 12.4557C16.4566 12.4557 16.458 12.4629 16.4899 12.4676C16.5351 12.4318 16.5484 12.3911 16.5617 12.3505C16.5617 12.3505 16.5638 12.3577 16.5967 12.3663C16.663 12.3392 16.6964 12.3036 16.7299 12.2679C16.7482 12.2512 16.7695 12.2456 16.8268 12.2927C16.9055 12.3413 16.9511 12.3482 16.9966 12.3552C16.9966 12.3552 16.9895 12.3575 16.9852 12.3894C17.0214 12.4347 17.062 12.448 17.1026 12.4613C17.1026 12.4613 17.0954 12.4626 17.0908 12.4945C17.1267 12.5398 17.1672 12.5531 17.2078 12.5664C17.2078 12.5664 17.2006 12.5677 17.196 12.5996C17.2319 12.6449 17.2725 12.6582 17.313 12.6715C17.313 12.6715 17.3047 12.6747 17.2901 12.7002C17.3137 12.7778 17.352 12.8299 17.3903 12.8821C17.7457 13.2528 18.1011 13.6234 18.4315 14.0442C18.3911 14.1177 18.3728 14.1383 18.3514 14.1562C18.3514 14.1562 18.3554 14.1461 18.3298 14.1519C18.287 14.1925 18.2699 14.2274 18.2528 14.2622C18.2528 14.2622 18.2519 14.2552 18.2249 14.259C18.1812 14.2977 18.1645 14.3326 18.1478 14.3674C18.1478 14.3674 18.1468 14.3604 18.1198 14.3642C18.0761 14.4029 18.0594 14.4378 18.0427 14.4726C18.0427 14.4726 18.0417 14.4656 18.0147 14.4694C17.9709 14.5081 17.9543 14.543 17.9376 14.5778C17.9376 14.5778 17.9366 14.5708 17.9096 14.5747C17.8659 14.6134 17.8492 14.6482 17.8325 14.683C17.8325 14.683 17.8315 14.676 17.8045 14.6799C17.7607 14.7186 17.744 14.7534 17.7273 14.7882C17.7273 14.7882 17.7263 14.7812 17.6993 14.7851C17.6556 14.8238 17.6389 14.8586 17.6222 14.8934C17.6222 14.8934 17.6212 14.8864 17.5942 14.8903C17.5505 14.929 17.5338 14.9638 17.5171 14.9986C17.5171 14.9986 17.5161 14.9916 17.4891 14.9955C17.4454 15.0342 17.4287 15.069 17.412 15.1038C17.412 15.1038 17.411 15.0968 17.384 15.1007C17.3403 15.1394 17.3236 15.1742 17.3069 15.209C17.3069 15.209 17.3059 15.202 17.2789 15.2059C17.2352 15.2446 17.2185 15.2794 17.2018 15.3142C17.2018 15.3142 17.2008 15.3072 17.1737 15.311C17.13 15.3496 17.1134 15.3845 17.0967 15.4194C17.0967 15.4194 17.0957 15.4124 17.0686 15.4162C17.0249 15.4548 17.0082 15.4897 16.9916 15.5246C16.9916 15.5246 16.9906 15.5176 16.9635 15.5214C16.9197 15.56 16.9031 15.5949 16.8865 15.6298C16.8865 15.6298 16.8854 15.6228 16.8584 15.6266C16.8146 15.6653 16.798 15.7002 16.7814 15.735C16.7814 15.735 16.7803 15.728 16.7532 15.7318C16.7095 15.7705 16.6929 15.8054 16.6763 15.8403C16.6763 15.8403 16.6752 15.8332 16.6481 15.837C16.6044 15.8757 16.5878 15.9106 16.5712 15.9455C16.5712 15.9455 16.5701 15.9385 16.543 15.9422C16.4993 15.9809 16.4827 16.0158 16.4661 16.0507C16.4661 16.0507 16.465 16.0437 16.4379 16.0474C16.3942 16.086 16.3776 16.121 16.361 16.1559C16.361 16.1559 16.3599 16.1489 16.3328 16.1526C16.2891 16.1912 16.2725 16.2262 16.2559 16.2611C16.2559 16.2611 16.2548 16.2541 16.2277 16.2578C16.1839 16.2964 16.1674 16.3314 16.1508 16.3663C16.1508 16.3663 16.1497 16.3593 16.1225 16.363C16.0788 16.4016 16.0622 16.4366 16.0457 16.4715C16.0457 16.4715 16.0446 16.4645 16.0174 16.4682C15.9737 16.5069 15.9571 16.5418 15.9405 16.5767C15.9405 16.5767 15.9394 16.5697 15.9123 16.5734C15.8686 16.6121 15.852 16.647 15.8354 16.6819C15.8354 16.6819 15.8343 16.6749 15.8072 16.6786C15.7635 16.7173 15.7469 16.7522 15.7303 16.7871C15.7303 16.7871 15.7292 16.7801 15.7021 16.7838C15.6584 16.8225 15.6418 16.8574 15.6252 16.8923C15.6252 16.8923 15.6241 16.8853 15.597 16.8891C15.5533 16.9277 15.5367 16.9626 15.5201 16.9975C15.5201 16.9975 15.519 16.9905 15.4919 16.9943C15.4482 17.0329 15.4316 17.0678 15.415 17.1027C15.415 17.1027 15.4139 17.0957 15.3868 17.0995C15.3431 17.1381 15.3265 17.173 15.3099 17.2079C15.3099 17.2079 15.3088 17.2009 15.2817 17.2047C15.238 17.2434 15.2214 17.2783 15.2047 17.3132C15.2047 17.3132 15.2037 17.3061 15.1766 17.3099C15.1329 17.3486 15.1162 17.3835 15.0996 17.4184C15.0996 17.4184 15.0986 17.4114 15.0715 17.4151C15.0278 17.4538 15.0111 17.4887 14.9945 17.5236C14.9945 17.5236 14.9935 17.5166 14.9664 17.5204C14.9227 17.5591 14.906 17.594 14.8894 17.6288C14.8894 17.6288 14.8883 17.6218 14.8613 17.6255C14.8175 17.6642 14.8009 17.6991 14.7843 17.734C14.7843 17.734 14.7832 17.727 14.7561 17.7307C14.7124 17.7694 14.6958 17.8043 14.6792 17.8392C14.6792 17.8392 14.6781 17.8322 14.6509 17.8358C14.6072 17.8744 14.5907 17.9094 14.5742 17.9444C14.5742 17.9444 14.573 17.9374 14.5458 17.9409C14.5021 17.9795 14.4856 18.0146 14.4691 18.0496C14.4691 18.0496 14.4679 18.0426 14.4407 18.0461C14.3969 18.0847 14.3805 18.1197 14.364 18.1548C14.364 18.1548 14.3628 18.1478 14.3356 18.1514C14.2918 18.1899 14.2754 18.225 14.2589 18.26C14.2589 18.26 14.2577 18.253 14.2305 18.2566C14.1867 18.2952 14.1702 18.3302 14.1537 18.3652C14.1537 18.3652 14.1526 18.3582 14.1253 18.3618C14.0816 18.4004 14.0651 18.4354 14.0486 18.4704C14.0486 18.4704 14.0475 18.4634 14.0202 18.467C13.9765 18.5056 13.96 18.5406 13.9435 18.5756C13.9435 18.5756 13.9424 18.5686 13.9151 18.5722C13.8714 18.6108 13.8549 18.6458 13.8384 18.6808C13.8384 18.6808 13.8372 18.6738 13.81 18.6774C13.7663 18.716 13.7498 18.751 13.7333 18.786C13.7333 18.786 13.7321 18.779 13.7049 18.7826C13.6612 18.8212 13.6447 18.8562 13.6282 18.8912C13.6282 18.8912 13.627 18.8843 13.5998 18.8879C13.5561 18.9264 13.5396 18.9614 13.5231 18.9965C13.5231 18.9965 13.5219 18.9895 13.4947 18.9931C13.451 19.0317 13.4345 19.0667 13.418 19.1017C13.418 19.1017 13.4168 19.0947 13.3896 19.0983C13.3459 19.1369 13.3294 19.1719 13.3129 19.2069C13.3129 19.2069 13.3117 19.1999 13.2845 19.2035C13.2408 19.242 13.2243 19.2771 13.2078 19.3121C13.2078 19.3121 13.2066 19.3051 13.1794 19.3086C13.1356 19.3472 13.1192 19.3823 13.1028 19.4174C13.1028 19.4174 13.1016 19.4104 13.0742 19.4137C13.0305 19.4523 13.0141 19.4874 12.9977 19.5226C12.9977 19.5226 12.9965 19.5156 12.9691 19.5189C12.9253 19.5574 12.909 19.5926 12.8926 19.6278C12.8926 19.6278 12.8914 19.6208 12.864 19.6241C12.8202 19.6626 12.8039 19.6978 12.7875 19.733C12.7875 19.733 12.7863 19.726 12.7589 19.7293C12.7151 19.7678 12.6988 19.803 12.6824 19.8382C12.6824 19.8382 12.6811 19.8312 12.6537 19.8345C12.61 19.873 12.5937 19.9082 12.5773 19.9434C12.5773 19.9434 12.576 19.9364 12.5486 19.9397C12.5049 19.9782 12.4886 20.0134 12.4723 20.0486C12.4723 20.0486 12.4709 20.0416 12.4435 20.0449C12.3997 20.0833 12.3834 20.1186 12.3672 20.1538C12.3672 20.1538 12.3658 20.1469 12.3384 20.1501C12.2946 20.1885 12.2783 20.2238 12.262 20.259C12.262 20.259 12.2607 20.2521 12.2333 20.2553C12.1895 20.2937 12.1732 20.329 12.1569 20.3642C12.1569 20.3642 12.1556 20.3573 12.1281 20.3605C12.0844 20.399 12.0681 20.4342 12.0518 20.4694C12.0518 20.4694 12.0505 20.4625 12.023 20.4657C11.9793 20.5042 11.963 20.5394 11.9467 20.5746C11.9467 20.5746 11.9454 20.5677 11.9179 20.5709C11.8742 20.6094 11.8579 20.6446 11.8416 20.6799C11.8416 20.6799 11.8403 20.6729 11.8128 20.6761C11.7691 20.7146 11.7528 20.7498 11.7365 20.7851C11.7365 20.7851 11.7352 20.7781 11.7077 20.7813C11.6639 20.8198 11.6477 20.855 11.6314 20.8903C11.6314 20.8903 11.6301 20.8833 11.6026 20.8865C11.5588 20.925 11.5426 20.9602 11.5263 20.9955C11.5263 20.9955 11.5249 20.9885 11.4975 20.9917C11.4537 21.0302 11.4375 21.0654 11.4212 21.1007C11.4212 21.1007 11.4198 21.0937 11.3924 21.0969C11.3486 21.1354 11.3323 21.1706 11.3161 21.2059C11.3161 21.2059 11.3147 21.1989 11.2873 21.2022C11.2435 21.2406 11.2272 21.2759 11.2109 21.3111C11.2109 21.3111 11.2096 21.3041 11.1822 21.3074C11.1384 21.3459 11.1221 21.3811 11.1058 21.4163C11.1058 21.4163 11.1045 21.4093 11.0771 21.4126C11.0333 21.4511 11.017 21.4863 11.0006 21.5215C11.0006 21.5215 10.9994 21.5145 10.972 21.5179C10.9282 21.5564 10.9119 21.5915 10.8955 21.6267C10.8955 21.6267 10.8942 21.6197 10.8669 21.6231C10.8231 21.6616 10.8068 21.6967 10.7904 21.7319C10.7904 21.7319 10.7891 21.7249 10.7617 21.7283C10.718 21.7668 10.7016 21.8019 10.6853 21.8371C10.6853 21.8371 10.6836 21.8301 10.6432 21.8274C10.4861 21.8275 10.3695 21.8303 10.2529 21.833C10.2529 21.833 10.2595 21.8303 10.2562 21.8029C10.2175 21.7592 10.1823 21.7429 10.147 21.7267C10.147 21.7267 10.1539 21.7253 10.151 21.6976C10.1126 21.654 10.0772 21.6379 10.0418 21.6218C10.0418 21.6218 10.0487 21.6202 10.0463 21.592C10.008 21.5478 9.97217 21.5319 9.93631 21.5159C9.93631 21.5159 9.94478 21.5135 9.93362 21.4992C9.90776 21.458 9.8865 21.4381 9.85869 21.4252C8.81385 20.2063 8.04779 18.8429 7.71968 17.2577C7.35026 15.4729 7.42088 13.7187 8.12346 12.0163C8.25879 11.6884 8.41776 11.3702 8.59283 10.9925C8.62858 10.9024 8.65106 10.8861 8.68726 10.8888C8.68726 10.8888 8.67791 10.9028 8.70334 10.8844C8.74575 10.8018 8.76273 10.7376 8.77971 10.6733C8.77971 10.6733 8.78126 10.6811 8.80916 10.6704C8.81572 10.5981 8.79438 10.5365 8.77304 10.4749C8.77304 10.4749 8.78028 10.4743 8.78441 10.4429C8.74855 10.3983 8.70857 10.3852 8.66858 10.372C8.66858 10.372 8.67578 10.3694 8.6795 10.338C8.64326 10.2934 8.60331 10.2802 8.56335 10.2669C8.56335 10.2669 8.57056 10.2643 8.57427 10.2329C8.53803 10.1881 8.49808 10.1747 8.45812 10.1613C8.45812 10.1613 8.46518 10.1595 8.46628 10.1294C8.42915 10.0848 8.39091 10.0702 8.35268 10.0556C8.35268 10.0556 8.35984 10.0542 8.36374 10.0228C8.32766 9.97791 8.28768 9.96451 8.24771 9.95111C8.24771 9.95111 8.25477 9.94927 8.25613 9.9191C8.21911 9.87432 8.18073 9.8597 8.14235 9.84508C8.14235 9.84508 8.14953 9.84406 8.15097 9.81393C8.11406 9.76911 8.07572 9.75442 8.03738 9.73973C8.03738 9.73973 8.04459 9.739 8.04561 9.71195C8.0129 9.70527 7.97917 9.72563 7.94544 9.746C7.94544 9.746 7.94464 9.73878 7.91545 9.73798C7.87057 9.77502 7.85488 9.81285 7.83919 9.85069C7.83919 9.85069 7.83816 9.84174 7.8092 9.85357C7.7658 9.9304 7.75137 9.9954 7.73694 10.0604C7.73694 10.0604 7.73523 10.0532 7.70364 10.0621C7.65875 10.1376 7.64545 10.2041 7.63216 10.2707C7.63216 10.2707 7.63022 10.2636 7.59894 10.2717C7.55376 10.348 7.53987 10.4161 7.52598 10.4843C6.9757 11.4728 6.60686 12.5218 6.42703 13.7092C6.09659 14.7746 6.17661 15.7866 6.32997 16.7988C6.33504 16.8323 6.4121 16.8549 6.4556 16.8826C6.4556 16.8826 6.47209 16.9274 6.4375 16.9809C6.50017 17.4065 6.59744 17.7786 6.6947 18.1507C6.6947 18.1507 6.68709 18.1486 6.67659 18.1829C6.70411 18.2832 6.74212 18.3492 6.78012 18.4152Z" fill="white"/>
<defs>
<linearGradient id="paint0_linear_360_97" x1="0.786133" y1="0.707031" x2="38.7798" y2="11.3892" gradientUnits="userSpaceOnUse">
<stop stop-color="#4A8EFF"/>
<stop offset="0.53125" stop-color="#BC2FFF"/>
<stop offset="1" stop-color="#652FFF"/>
</linearGradient>
</defs>
</svg>
