<svg width="844" height="230" viewBox="0 0 844 230" fill="none" xmlns="http://www.w3.org/2000/svg">
<path d="M332.217 86.2506C332.217 86.2506 332.3 86.2223 332.168 86.608C332.47 87.8424 332.904 88.691 333.337 89.5397C333.337 89.5397 333.269 89.5168 333.168 89.793C333.388 90.8449 333.71 91.6205 334.032 92.3962C338.48 100.171 342.316 108.392 347.561 115.586C352.138 121.865 358.288 127.001 363.801 132.584C364.141 132.928 364.991 132.767 366.024 132.951C366.996 132.654 367.546 132.249 368.097 131.844C368.097 131.844 368.092 131.916 368.334 131.885C368.727 131.538 368.877 131.221 369.028 130.904C369.028 130.904 369.035 130.968 369.28 130.939C369.674 130.594 369.822 130.278 369.969 129.962C369.969 129.962 369.977 130.026 370.223 129.997C370.616 129.652 370.764 129.336 370.912 129.02C370.912 129.02 370.92 129.083 371.166 129.056C371.56 128.711 371.706 128.394 371.853 128.077C371.853 128.077 371.862 128.141 372.109 128.113C372.502 127.769 372.649 127.452 372.796 127.135C372.796 127.135 372.804 127.198 373.051 127.171C373.444 126.827 373.591 126.51 373.738 126.192C373.738 126.192 373.746 126.256 373.993 126.229C374.387 125.885 374.533 125.567 374.68 125.25C374.68 125.25 374.688 125.313 374.936 125.287C375.33 124.943 375.475 124.625 375.621 124.307C375.621 124.307 375.631 124.37 375.878 124.345C376.272 124.001 376.418 123.683 376.564 123.365C376.564 123.365 376.573 123.428 376.821 123.402C377.214 123.059 377.36 122.74 377.506 122.422C377.506 122.422 377.515 122.485 377.764 122.461C378.157 122.117 378.303 121.799 378.448 121.48C378.448 121.48 378.458 121.543 378.706 121.519C379.1 121.175 379.245 120.856 379.39 120.538C379.39 120.538 379.4 120.601 379.649 120.576C380.042 120.233 380.187 119.914 380.332 119.595C380.332 119.595 380.342 119.658 380.591 119.634C380.985 119.291 381.13 118.972 381.275 118.653C381.275 118.653 381.285 118.716 381.534 118.692C381.927 118.348 382.072 118.03 382.217 117.711C382.217 117.711 382.227 117.774 382.476 117.749C382.87 117.406 383.015 117.087 383.16 116.768C383.16 116.768 383.17 116.831 383.418 116.807C383.812 116.463 383.957 116.145 384.102 115.826C384.102 115.826 384.112 115.889 384.361 115.864C384.754 115.521 384.899 115.202 385.045 114.883C385.045 114.883 385.054 114.946 385.303 114.922C385.697 114.579 385.842 114.26 385.987 113.941C385.987 113.941 385.997 114.004 386.245 113.98C386.639 113.636 386.784 113.317 386.929 112.999C386.929 112.999 386.939 113.062 387.188 113.037C387.582 112.694 387.726 112.375 387.871 112.056C387.871 112.056 387.882 112.119 388.131 112.095C388.524 111.752 388.669 111.433 388.813 111.114C388.813 111.114 388.824 111.177 389.073 111.153C389.467 110.81 389.611 110.491 389.756 110.172C389.756 110.172 389.766 110.234 390.016 110.212C390.41 109.869 390.554 109.549 390.698 109.229C390.698 109.229 390.709 109.292 390.959 109.269C391.352 108.927 391.496 108.607 391.64 108.287C391.64 108.287 391.651 108.35 391.901 108.327C392.295 107.985 392.439 107.665 392.582 107.345C392.582 107.345 392.594 107.407 392.843 107.385C393.237 107.042 393.381 106.722 393.525 106.402C393.525 106.402 393.536 106.465 393.786 106.442C394.179 106.1 394.323 105.78 394.467 105.46C394.467 105.46 394.478 105.523 394.728 105.5C395.122 105.157 395.266 104.837 395.41 104.518C395.41 104.518 395.421 104.58 395.671 104.557C396.064 104.215 396.208 103.895 396.352 103.575C396.352 103.575 396.363 103.638 396.612 103.614C397.006 103.272 397.15 102.952 397.295 102.633C397.295 102.633 397.306 102.695 397.555 102.672C397.948 102.329 398.093 102.01 398.237 101.69C398.237 101.69 398.248 101.753 398.497 101.73C398.891 101.387 399.035 101.067 399.18 100.748C399.18 100.748 399.19 100.811 399.44 100.788C399.834 100.445 399.978 100.125 400.122 99.8056C400.122 99.8056 400.133 99.8683 400.383 99.8457C400.776 99.5031 400.92 99.1832 401.064 98.8632C401.064 98.8632 401.075 98.9259 401.325 98.9036C401.719 98.5611 401.862 98.241 402.006 97.9209C402.006 97.9209 402.018 97.9835 402.268 97.9616C402.661 97.6193 402.805 97.2989 402.948 96.9785C402.948 96.9785 402.96 97.0411 403.21 97.0195C403.604 96.6773 403.747 96.3567 403.89 96.0362C403.89 96.0362 403.902 96.0986 404.153 96.0773C404.547 95.7352 404.69 95.4145 404.833 95.0938C404.833 95.0938 404.845 95.1563 405.095 95.135C405.489 94.7929 405.632 94.4722 405.775 94.1514C405.775 94.1514 405.787 94.2139 406.038 94.1926C406.431 93.8506 406.574 93.5298 406.717 93.209C406.717 93.209 406.729 93.2715 406.98 93.2502C407.374 92.9082 407.517 92.5874 407.66 92.2665C407.66 92.2665 407.672 92.329 407.923 92.3079C408.316 91.9658 408.459 91.6449 408.602 91.324C408.602 91.324 408.614 91.3865 408.866 91.3662C409.259 91.0245 409.401 90.7029 409.543 90.3814C409.543 90.3814 409.556 90.4439 409.808 90.424C410.202 90.0823 410.343 89.7606 410.485 89.4388C410.485 89.4388 410.498 89.5013 410.75 89.4817C411.144 89.1402 411.286 88.8182 411.428 88.4963C411.428 88.4963 411.441 88.5588 411.693 88.5394C412.086 88.198 412.228 87.8759 412.37 87.5538C412.37 87.5538 412.383 87.6163 412.635 87.5971C413.029 87.2557 413.17 86.9335 413.312 86.6114C413.312 86.6114 413.325 86.6739 413.577 86.6547C413.971 86.3133 414.113 85.9912 414.255 85.669C414.255 85.669 414.268 85.7315 414.52 85.7123C414.913 85.3709 415.055 85.0487 415.197 84.7266C415.197 84.7266 415.21 84.7891 415.462 84.7699C415.856 84.4285 415.998 84.1064 416.139 83.7842C416.139 83.7842 416.153 83.8467 416.404 83.8275C416.798 83.4861 416.94 83.164 417.082 82.8418C417.082 82.8418 417.095 82.9044 417.347 82.8852C417.741 82.5438 417.882 82.2216 418.024 81.8995C418.024 81.8995 418.037 81.962 418.289 81.9428C418.683 81.6014 418.825 81.2793 418.967 80.9571C418.967 80.9571 418.98 81.0196 419.232 81.0004C419.626 80.659 419.767 80.3369 419.909 80.0148C419.909 80.0148 419.922 80.0773 420.174 80.058C420.568 79.7166 420.71 79.3946 420.852 79.0726C420.852 79.0726 420.865 79.1351 421.116 79.1156C421.51 78.7742 421.653 78.4523 421.795 78.1305C421.795 78.1305 421.807 78.193 422.059 78.1731C422.453 77.8316 422.595 77.51 422.737 77.1884C422.737 77.1884 422.75 77.2508 423.002 77.2308C423.395 76.8892 423.538 76.5677 423.68 76.2462C423.68 76.2462 423.693 76.3085 423.944 76.2885C424.338 75.947 424.48 75.6254 424.622 75.3039C424.622 75.3039 424.635 75.3662 424.887 75.3463C425.28 75.0048 425.422 74.6832 425.565 74.3615C425.565 74.3615 425.577 74.4238 425.829 74.4042C426.223 74.0627 426.365 73.7409 426.507 73.4191C426.507 73.4191 426.52 73.4814 426.772 73.462C427.165 73.1206 427.307 72.7987 427.449 72.4768C427.449 72.4768 427.462 72.539 427.714 72.5198C428.108 72.1785 428.25 71.8564 428.391 71.5343C428.391 71.5343 428.405 71.5966 428.657 71.5776C429.05 71.2363 429.192 70.914 429.333 70.5918C429.333 70.5918 429.347 70.6541 429.599 70.6352C429.993 70.2939 430.134 69.9715 430.276 69.6491C430.276 69.6491 430.289 69.7114 430.541 69.6926C430.935 69.3513 431.076 69.0288 431.218 68.7064C431.218 68.7064 431.231 68.7688 431.483 68.7501C431.877 68.4089 432.019 68.0865 432.16 67.764C432.16 67.764 432.173 67.8264 432.426 67.8077C432.82 67.4666 432.961 67.1442 433.103 66.8218C433.103 66.8218 433.116 66.8842 433.368 66.8651C433.762 66.5238 433.904 66.2017 434.046 65.8796C434.046 65.8796 434.059 65.942 434.311 65.9227C434.704 65.5813 434.846 65.2593 434.988 64.9373C434.988 64.9373 435.001 64.9997 435.253 64.9802C435.647 64.6388 435.789 64.3169 435.931 63.9949C435.931 63.9949 435.943 64.0573 436.195 64.0378C436.589 63.6964 436.731 63.3745 436.873 63.0525C436.873 63.0525 436.886 63.1149 437.138 63.0955C437.532 62.7541 437.674 62.4321 437.816 62.1101C437.816 62.1101 437.828 62.1725 438.08 62.1532C438.474 61.8119 438.616 61.4898 438.758 61.1677C438.758 61.1677 438.771 61.2301 439.023 61.2109C439.417 60.8696 439.558 60.5475 439.7 60.2253C439.7 60.2253 439.713 60.2877 439.965 60.2685C440.359 59.9271 440.501 59.605 440.643 59.2829C440.643 59.2829 440.655 59.3453 440.907 59.326C441.301 58.9846 441.443 58.6625 441.585 58.3404C441.585 58.3404 441.598 58.4029 441.85 58.3836C442.244 58.0421 442.385 57.72 442.527 57.3979C442.527 57.3979 442.54 57.4604 442.792 57.4413C443.186 57.1 443.328 56.7777 443.47 56.4555C443.47 56.4555 443.484 56.5184 443.751 56.534C444.192 56.454 444.367 56.3585 444.804 56.1457C446.14 56.1748 447.214 56.3212 448.287 56.4676C448.287 56.4676 448.227 56.5185 448.198 56.7973C448.529 57.1978 448.89 57.3196 449.251 57.4413C449.251 57.4413 449.186 57.4512 449.149 57.7347C449.472 58.1401 449.833 58.2619 450.193 58.3837C450.193 58.3837 450.129 58.3936 450.091 58.6771C450.415 59.0824 450.775 59.2043 451.136 59.3262C451.136 59.3262 451.071 59.336 451.034 59.6195C451.357 60.0248 451.718 60.1467 452.078 60.2686C452.078 60.2686 452.014 60.2784 451.976 60.5618C452.299 60.9672 452.66 61.0891 453.021 61.211C453.021 61.211 452.956 61.2208 452.919 61.5042C453.242 61.9095 453.602 62.0315 453.963 62.1534C453.963 62.1534 453.898 62.1632 453.861 62.4465C454.185 62.8518 454.545 62.9739 454.905 63.0959C454.905 63.0959 454.841 63.1056 454.804 63.3889C455.127 63.7942 455.487 63.9162 455.848 64.0383C455.848 64.0383 455.783 64.048 455.746 64.3312C456.069 64.7366 456.43 64.8586 456.79 64.9807C456.79 64.9807 456.718 65.0059 456.593 65.2329C456.806 65.9184 457.143 66.377 457.481 66.8355C463.274 72.9661 469.067 79.0968 475.79 86.2123C477.852 79.5025 479.532 74.0324 481.567 67.9664C481.732 61.5433 481.543 55.7159 481.354 49.8885C479.109 43.0502 476.833 36.2215 474.65 29.3631C474.331 28.3592 474.456 27.214 474.502 25.5954C474.629 25.0565 474.767 24.6374 474.767 24.6374C474.767 24.6374 474.968 24.4916 475.39 24.4593C476.03 24.1075 476.249 23.7881 476.468 23.4688C476.468 23.4688 476.468 23.5337 476.72 23.5159C477.113 23.1753 477.254 22.8525 477.396 22.5297C477.396 22.5297 477.409 22.592 477.661 22.5742C478.055 22.2333 478.197 21.9103 478.338 21.5872C478.338 21.5872 478.351 21.6496 478.604 21.6326C478.998 21.292 479.139 20.9685 479.28 20.645C479.28 20.645 479.293 20.7073 479.547 20.6903C479.941 20.3497 480.082 20.0262 480.222 19.7026C480.222 19.7026 480.236 19.7649 480.489 19.7479C480.883 19.4073 481.024 19.0838 481.165 18.7603C481.165 18.7603 481.178 18.8225 481.432 18.8054C481.826 18.4648 481.966 18.1413 482.107 17.8179C482.107 17.8179 482.121 17.8802 482.374 17.863C482.768 17.5223 482.909 17.1989 483.05 16.8754C483.05 16.8754 483.063 16.9377 483.316 16.9206C483.71 16.58 483.851 16.2565 483.992 15.933C483.992 15.9329 484.005 15.9953 484.259 15.9785C484.653 15.638 484.793 15.3143 484.934 14.9906C484.934 14.9906 484.948 15.0529 485.201 15.0365C485.596 14.6962 485.736 14.3722 485.876 14.0483C485.876 14.0483 485.89 14.1105 486.144 14.0945C486.538 13.7544 486.678 13.4302 486.818 13.106C486.818 13.106 486.838 13.171 487.086 13.2174C487.759 12.9213 488.183 12.5788 488.608 12.2364C490.293 14.0078 492.414 15.531 493.589 17.593C499.076 27.2206 502.527 37.4137 504.009 48.5916C507.196 72.6522 500.363 93.3127 484.751 112.034C484.253 112.656 484.111 112.893 484.029 113.165C484.029 113.165 484.038 113.099 483.783 113.109C483.393 113.447 483.259 113.776 483.124 114.104C483.124 114.104 483.102 114.043 482.852 114.064C482.459 114.406 482.317 114.727 482.175 115.047C482.175 115.047 482.16 114.986 481.914 115.014C481.521 115.358 481.376 115.674 481.23 115.99C481.23 115.99 481.217 115.928 480.971 115.956C480.579 116.3 480.433 116.616 480.288 116.932C480.288 116.932 480.272 116.87 479.909 116.845C478.501 116.845 477.456 116.869 476.411 116.893C476.411 116.893 476.471 116.87 476.44 116.624C476.094 116.232 475.778 116.086 475.463 115.939C475.463 115.939 475.525 115.928 475.496 115.682C475.151 115.29 474.836 115.143 474.521 114.997C474.521 114.997 474.583 114.985 474.553 114.74C474.208 114.347 473.893 114.201 473.578 114.054C473.578 114.054 473.64 114.043 473.611 113.797C473.266 113.405 472.951 113.259 472.636 113.112C472.636 113.112 472.698 113.101 472.668 112.855C472.323 112.463 472.008 112.316 471.693 112.17C471.693 112.17 471.755 112.158 471.726 111.913C471.381 111.521 471.066 111.374 470.751 111.227C470.751 111.227 470.813 111.216 470.783 110.97C470.439 110.578 470.123 110.432 469.808 110.285C469.808 110.285 469.871 110.274 469.841 110.028C469.496 109.636 469.181 109.489 468.866 109.342C468.866 109.342 468.928 109.331 468.899 109.085C468.554 108.693 468.239 108.547 467.924 108.4C467.924 108.4 467.986 108.389 467.957 108.143C467.612 107.751 467.297 107.604 466.981 107.458C466.981 107.458 467.044 107.446 467.014 107.2C466.67 106.808 466.354 106.662 466.039 106.516C466.039 106.516 466.101 106.504 466.072 106.258C465.727 105.866 465.412 105.72 465.096 105.573C465.096 105.573 465.159 105.562 465.13 105.316C464.785 104.924 464.469 104.777 464.154 104.631C464.154 104.631 464.216 104.619 464.187 104.373C463.842 103.981 463.527 103.835 463.211 103.689C463.211 103.689 463.274 103.677 463.245 103.431C462.9 103.039 462.585 102.893 462.269 102.746C462.269 102.746 462.331 102.735 462.303 102.489C461.958 102.096 461.642 101.95 461.327 101.804C461.327 101.804 461.389 101.792 461.36 101.546C461.016 101.154 460.7 101.008 460.384 100.862C460.384 100.862 460.446 100.85 460.418 100.604C460.073 100.212 459.758 100.066 459.442 99.9196C459.442 99.9196 459.504 99.9076 459.475 99.6615C459.131 99.2693 458.815 99.1232 458.499 98.9771C458.499 98.9771 458.562 98.9652 458.533 98.7192C458.188 98.327 457.873 98.1808 457.557 98.0347C457.557 98.0347 457.619 98.0228 457.59 97.7769C457.246 97.3846 456.93 97.2384 456.614 97.0922C456.614 97.0922 456.677 97.0804 456.648 96.8345C456.303 96.4423 455.988 96.296 455.672 96.1497C455.672 96.1497 455.734 96.138 455.705 95.8922C455.361 95.5 455.045 95.3535 454.73 95.2071C454.73 95.2071 454.792 95.1955 454.763 94.9499C454.418 94.5576 454.103 94.411 453.788 94.2643C453.788 94.2643 453.85 94.2529 453.82 94.0075C453.476 93.6153 453.16 93.4685 452.845 93.3217C452.845 93.3217 452.908 93.3104 452.878 93.065C452.533 92.6728 452.218 92.5261 451.903 92.3793C451.903 92.3793 451.965 92.368 451.936 92.1225C451.591 91.7304 451.276 91.5837 450.961 91.4369C450.961 91.4369 451.023 91.4256 450.993 91.1802C450.648 90.788 450.333 90.6413 450.018 90.4945C450.018 90.4945 450.081 90.4832 450.051 90.2379C449.706 89.8457 449.391 89.6988 449.076 89.5519C449.076 89.5519 449.138 89.5408 449.107 89.2963C448.762 88.9041 448.447 88.7566 448.133 88.609C448.133 88.609 448.196 88.5984 448.164 88.3542C447.819 87.9621 447.505 87.8142 447.191 87.6664C447.191 87.6664 447.253 87.6562 447.218 87.4115C446.866 87.0164 446.55 86.8661 446.233 86.7157C446.233 86.7157 446.308 86.7048 446.273 86.5844C446.123 86.2865 446.009 86.1091 445.895 85.9317C445.802 86.13 445.709 86.3282 445.617 86.5265C443.075 88.9074 440.534 91.2883 437.978 94.1207C438.267 94.769 438.569 94.9659 438.871 95.1628C438.871 95.1628 438.804 95.1539 438.826 95.4037C439.171 95.7973 439.493 95.9411 439.815 96.0849C439.815 96.0849 439.753 96.0985 439.774 96.3492C440.116 96.7423 440.437 96.8846 440.758 97.0269C440.758 97.0269 440.696 97.0408 440.717 97.2916C441.059 97.6847 441.38 97.8269 441.7 97.9691C441.7 97.9691 441.638 97.9831 441.659 98.234C442.001 98.6271 442.322 98.7692 442.643 98.9114C442.643 98.9114 442.581 98.9255 442.601 99.1764C442.943 99.5695 443.264 99.7116 443.585 99.8537C443.585 99.8537 443.523 99.8678 443.544 100.119C443.886 100.512 444.207 100.654 444.528 100.796C444.528 100.796 444.465 100.81 444.486 101.061C444.828 101.454 445.149 101.596 445.47 101.739C445.47 101.739 445.408 101.753 445.429 102.003C445.771 102.397 446.092 102.539 446.412 102.681C446.412 102.681 446.35 102.695 446.372 102.946C446.714 103.339 447.034 103.481 447.355 103.624C447.355 103.624 447.293 103.637 447.315 103.887C447.657 104.281 447.977 104.424 448.297 104.567C448.297 104.567 448.235 104.58 448.258 104.829C448.601 105.222 448.92 105.366 449.24 105.51C449.24 105.51 449.177 105.522 449.201 105.771C449.543 106.165 449.863 106.308 450.182 106.452C450.182 106.452 450.12 106.464 450.143 106.714C450.486 107.107 450.805 107.251 451.125 107.394C451.125 107.394 451.062 107.407 451.085 107.656C451.428 108.049 451.748 108.193 452.067 108.337C452.067 108.337 452.004 108.349 452.028 108.599C452.37 108.992 452.69 109.136 453.009 109.28C453.009 109.28 452.947 109.292 452.97 109.541C453.313 109.934 453.632 110.078 453.951 110.222C453.951 110.222 453.889 110.235 453.912 110.484C454.255 110.877 454.574 111.021 454.893 111.165C454.893 111.165 454.831 111.177 454.855 111.426C455.198 111.819 455.517 111.963 455.836 112.107C455.836 112.107 455.773 112.12 455.797 112.369C456.14 112.762 456.459 112.906 456.778 113.05C456.778 113.05 456.716 113.062 456.74 113.311C457.083 113.704 457.402 113.848 457.72 113.993C457.72 113.993 457.658 114.004 457.683 114.253C458.026 114.646 458.344 114.791 458.663 114.935C458.663 114.935 458.6 114.947 458.625 115.195C458.969 115.588 459.287 115.733 459.605 115.878C459.605 115.878 459.543 115.889 459.569 116.137C459.912 116.53 460.23 116.675 460.548 116.821C460.548 116.821 460.485 116.832 460.511 117.079C460.855 117.472 461.173 117.618 461.49 117.763C461.49 117.763 461.428 117.774 461.454 118.022C461.797 118.415 462.115 118.56 462.433 118.706C462.433 118.706 462.37 118.716 462.396 118.964C462.74 119.357 463.057 119.503 463.375 119.648C463.375 119.648 463.312 119.659 463.338 119.907C463.681 120.3 463.999 120.445 464.317 120.59C464.317 120.59 464.255 120.601 464.28 120.849C464.623 121.243 464.942 121.387 465.26 121.532C465.26 121.532 465.197 121.543 465.222 121.792C465.566 122.185 465.884 122.33 466.202 122.475C466.202 122.475 466.14 122.486 466.165 122.734C466.509 123.127 466.827 123.272 467.145 123.417C467.145 123.417 467.082 123.428 467.108 123.676C467.451 124.069 467.769 124.214 468.087 124.36C468.087 124.36 468.025 124.371 468.05 124.618C468.394 125.011 468.712 125.157 469.03 125.302C469.03 125.302 468.967 125.313 468.993 125.561C469.336 125.954 469.654 126.099 469.972 126.245C469.972 126.245 469.909 126.255 469.935 126.503C470.279 126.896 470.597 127.042 470.914 127.187C470.914 127.187 470.852 127.198 470.878 127.445C471.221 127.839 471.539 127.984 471.857 128.13C471.857 128.13 471.794 128.14 471.82 128.388C472.164 128.781 472.482 128.927 472.799 129.073C472.799 129.073 472.736 129.083 472.763 129.33C473.108 129.723 473.424 129.869 473.741 130.015C473.741 130.015 473.678 130.025 473.706 130.272C474.05 130.665 474.367 130.812 474.684 130.958C474.684 130.958 474.621 130.968 474.649 131.214C474.994 131.607 475.31 131.754 475.626 131.901C475.626 131.901 475.564 131.912 475.576 132.157C475.842 132.664 476.096 132.926 476.35 133.187C478.247 132.328 480.573 131.904 481.966 130.532C486.971 125.601 492.051 120.657 496.378 115.148C502.884 106.867 507.051 97.3631 510.742 87.4095C514.729 76.6568 515.159 65.8598 515.478 54.0794C514.944 47.8191 514.045 42.2731 513.147 36.7271C513.147 36.7271 513.215 36.7515 513.332 36.4444C512.804 34.8014 512.159 33.4656 511.515 32.1298C509.129 22.6039 505.097 13.8566 499.565 5.72185C498.716 4.47341 499.427 2.16418 499.416 0.345553C500.733 0.8553 502.74 0.987012 503.258 1.93385C507.928 10.4571 513.059 18.8352 516.639 27.8202C521.175 39.2084 522.304 51.4755 521.648 63.6873C520.899 77.6247 517.494 90.843 510.679 103.319C505.472 112.852 499.526 121.665 491.826 129.213C487.345 133.606 482.246 137.367 477.127 141.662C461.733 126.235 446.595 111.064 431.379 95.2221C431.268 93.791 431.236 93.0313 431.203 92.2716C431.203 92.2716 431.23 92.3325 431.491 92.3258C431.887 91.9867 432.023 91.6543 432.158 91.3219C432.158 91.3219 432.172 91.3846 432.433 91.3808C432.83 91.0445 432.965 90.712 433.1 90.3795C433.1 90.3795 433.114 90.4422 433.376 90.4386C433.772 90.1023 433.907 89.7697 434.042 89.4371C434.042 89.4371 434.056 89.4998 434.318 89.4964C434.715 89.1602 434.85 88.8274 434.985 88.4947C434.985 88.4947 434.999 88.5574 435.26 88.5542C435.657 88.218 435.792 87.8852 435.927 87.5523C435.927 87.5523 435.941 87.615 436.203 87.6119C436.599 87.2758 436.734 86.9428 436.869 86.6099C436.869 86.6099 436.884 86.6726 437.145 86.6697C437.542 86.3336 437.677 86.0006 437.811 85.6675C437.811 85.6675 437.826 85.7302 438.088 85.7274C438.484 85.3914 438.619 85.0582 438.754 84.725C438.754 84.725 438.768 84.7878 439.03 84.7851C439.427 84.4491 439.561 84.1159 439.696 83.7826C439.696 83.7826 439.711 83.8453 439.973 83.8426C440.369 83.5067 440.504 83.1734 440.639 82.8402C440.639 82.8402 440.653 82.903 440.915 82.8997C441.311 82.5635 441.446 82.2307 441.581 81.8979C441.581 81.8979 441.596 81.9606 441.857 81.9575C442.254 81.6214 442.389 81.2885 442.524 80.9556C442.524 80.9556 442.538 81.0183 442.8 81.0155C443.196 80.6796 443.331 80.3464 443.466 80.0132C443.466 80.0132 443.484 80.0761 443.752 80.096C444.3 79.8392 444.58 79.5623 444.859 79.2854C445.597 79.3408 446.638 79.0983 447.027 79.4952C456.447 89.091 465.834 98.7196 475.128 108.436C477.021 110.414 478.599 111.015 480.461 108.626C487.841 99.1587 493.796 88.9765 496.675 76.5617C497.924 72.1568 499.22 68.2812 499.541 64.3265C500.277 55.2535 499.951 46.2178 496.189 37.6659C496.189 37.6659 496.261 37.6906 496.328 37.4397C496.092 36.7214 495.79 36.254 495.487 35.7866C493.73 31.4342 491.974 27.0815 490.216 22.7297C489.276 20.4039 488.124 20.1627 486.122 21.8765C480.597 26.6065 480.466 27.4541 483.067 33.9827C490.428 52.4597 489.717 70.6714 480.829 88.5153C480.558 89.0584 480.326 89.6204 479.466 90.4159C478.397 91.5621 477.938 92.466 477.48 93.37C477.48 93.37 477.444 93.2929 477.2 93.2105C476.776 93.2051 476.595 93.282 476.414 93.3589C476.414 93.3589 476.472 93.2917 476.511 93.0071C475.873 92.2966 475.197 91.8707 474.52 91.4449C474.52 91.4449 474.582 91.4285 474.573 91.1694C474.235 90.7723 473.905 90.6343 473.575 90.4964C473.575 90.4964 473.638 90.4857 473.63 90.2268C473.292 89.8299 472.962 89.6918 472.633 89.5537C472.633 89.5537 472.696 89.5432 472.688 89.2844C472.35 88.8875 472.02 88.7494 471.69 88.6112C471.69 88.6112 471.753 88.6008 471.745 88.342C471.407 87.9451 471.078 87.807 470.748 87.6688C470.748 87.6688 470.811 87.6584 470.803 87.3996C470.465 87.0027 470.135 86.8646 469.805 86.7265C469.805 86.7265 469.869 86.716 469.861 86.4572C469.523 86.0603 469.193 85.9223 468.863 85.7842C468.863 85.7842 468.926 85.7737 468.918 85.5147C468.581 85.1178 468.251 84.9799 467.921 84.842C467.921 84.842 467.984 84.8313 467.976 84.5722C467.638 84.1753 467.308 84.0376 466.978 83.8998C466.978 83.8998 467.041 83.8889 467.034 83.6297C466.696 83.2329 466.366 83.0952 466.036 82.9576C466.036 82.9576 466.099 82.9466 466.092 82.6873C465.754 82.2904 465.424 82.1529 465.093 82.0153C465.093 82.0153 465.156 82.0043 465.149 81.745C464.812 81.3481 464.481 81.2105 464.151 81.0729C464.151 81.0729 464.214 81.0619 464.206 80.8027C463.869 80.4058 463.539 80.268 463.208 80.1302C463.208 80.1302 463.272 80.1195 463.263 79.8609C462.925 79.4639 462.596 79.3257 462.266 79.1874C462.266 79.1874 462.329 79.1771 462.321 78.9186C461.983 78.5217 461.653 78.3833 461.324 78.2449C461.324 78.2449 461.387 78.2347 461.378 77.9761C461.04 77.5793 460.711 77.4411 460.381 77.3029C460.381 77.3029 460.444 77.2924 460.437 77.0332C460.099 76.6363 459.769 76.4987 459.439 76.361C459.439 76.361 459.502 76.35 459.495 76.0907C459.157 75.6938 458.827 75.5563 458.497 75.4188C458.497 75.4188 458.56 75.4077 458.552 75.1483C458.215 74.7514 457.885 74.6139 457.554 74.4765C457.554 74.4765 457.617 74.4652 457.61 74.2058C457.273 73.809 456.942 73.6715 456.612 73.5341C456.612 73.5341 456.675 73.5229 456.668 73.2634C456.33 72.8666 456 72.7291 455.669 72.5917C455.669 72.5917 455.732 72.5805 455.725 72.3211C455.388 71.9242 455.057 71.7867 454.727 71.6492C454.727 71.6492 454.79 71.6381 454.783 71.3788C454.445 70.9819 454.115 70.8443 453.785 70.7066C453.785 70.7066 453.848 70.6956 453.84 70.4366C453.502 70.0396 453.172 69.9018 452.842 69.7639C452.842 69.7639 452.905 69.7532 452.897 69.4945C452.559 69.0976 452.23 68.9593 451.9 68.8211C451.9 68.8211 451.963 68.8107 451.955 68.5522C451.617 68.1553 451.287 68.0169 450.958 67.8785C450.958 67.8785 451.021 67.8682 451.012 67.6098C450.674 67.2129 450.345 67.0745 450.015 66.936C450.015 66.936 450.078 66.9258 450.07 66.6674C449.732 66.2705 449.402 66.132 449.073 65.9936C449.073 65.9936 449.136 65.9833 449.127 65.725C448.789 65.3281 448.46 65.1897 448.131 65.0512C448.131 65.0512 448.194 65.0408 448.186 64.7821C447.848 64.3853 447.518 64.2471 447.188 64.109C447.188 64.109 447.251 64.0983 447.243 63.8397C446.905 63.4428 446.575 63.3046 446.246 63.1664C446.246 63.1664 446.311 63.1589 446.265 62.898C445.64 62.8409 445.06 63.0447 444.481 63.2485C428.389 79.4557 412.297 95.6641 396.202 111.869C393.335 114.756 390.451 117.627 386.982 120.738C386.289 121.508 386.188 122.044 386.088 122.58C386.088 122.58 386.037 122.518 385.749 122.472C385.346 122.798 385.231 123.17 385.116 123.543C385.116 123.543 385.105 123.478 384.812 123.423C384.404 123.74 384.289 124.112 384.174 124.485C384.174 124.485 384.162 124.42 383.869 124.365C383.461 124.682 383.347 125.055 383.232 125.427C383.232 125.427 383.22 125.363 382.927 125.307C382.519 125.624 382.404 125.997 382.289 126.37C382.289 126.37 382.278 126.305 381.985 126.25C381.577 126.567 381.462 126.939 381.347 127.312C381.347 127.312 381.335 127.248 381.042 127.192C380.634 127.509 380.519 127.882 380.405 128.255C380.405 128.255 380.393 128.19 380.1 128.134C379.692 128.451 379.577 128.824 379.462 129.197C379.462 129.197 379.45 129.132 379.157 129.077C378.75 129.394 378.635 129.767 378.52 130.139C378.52 130.139 378.508 130.075 378.215 130.019C377.807 130.336 377.692 130.709 377.577 131.082C377.577 131.082 377.565 131.017 377.273 130.962C376.865 131.279 376.75 131.651 376.635 132.024C376.635 132.024 376.623 131.959 376.33 131.904C375.922 132.221 375.807 132.594 375.692 132.966C375.692 132.966 375.681 132.902 375.388 132.847C374.98 133.164 374.865 133.536 374.75 133.909C374.75 133.909 374.738 133.844 374.446 133.789C374.038 134.106 373.923 134.479 373.807 134.851C373.807 134.851 373.796 134.787 373.503 134.732C373.095 135.049 372.98 135.421 372.865 135.793C372.865 135.793 372.853 135.729 372.561 135.674C372.153 135.991 372.038 136.364 371.923 136.736C371.923 136.736 371.911 136.671 371.618 136.616C371.211 136.934 371.095 137.306 370.98 137.678C370.98 137.678 370.969 137.614 370.676 137.559C370.268 137.876 370.153 138.249 370.038 138.621C370.038 138.621 370.026 138.556 369.734 138.502C369.326 138.819 369.211 139.191 369.095 139.563C369.095 139.563 369.066 139.49 368.82 139.339C367.142 139.308 365.711 139.428 364.28 139.547C347.953 128.662 336.821 113.321 329.089 95.7868C325.487 87.6195 324.671 78.1763 322.968 69.24C322.164 65.0176 321.903 60.6207 321.983 56.3137C322.222 43.4081 324.188 30.8165 330.292 19.2154C333.354 13.3945 336.58 7.65621 339.872 1.96193C340.383 1.07885 341.649 0.632892 343.067 0.294922C343.923 0.70423 344.278 0.803411 344.633 0.902588C344.633 0.902588 344.571 0.915778 344.585 1.17161C344.925 1.56815 345.251 1.70885 345.578 1.84955C345.578 1.84955 345.515 1.85887 345.529 2.11356C345.869 2.50969 346.195 2.65114 346.52 2.79259C346.52 2.79259 346.457 2.80138 346.472 3.05583C346.812 3.45188 347.137 3.59348 347.463 3.73509C347.463 3.73509 347.399 3.74373 347.415 3.99764C347.756 4.39361 348.081 4.53568 348.405 4.67774C348.405 4.67774 348.342 4.68606 348.358 4.93987C348.698 5.33582 349.023 5.47798 349.348 5.62013C349.348 5.62013 349.284 5.62838 349.3 5.88207C349.641 6.27803 349.966 6.4203 350.29 6.56257C350.29 6.56257 350.227 6.57075 350.243 6.82438C350.583 7.22034 350.908 7.36266 351.233 7.50499C351.233 7.50499 351.169 7.51314 351.185 7.76681C351.526 8.16276 351.85 8.30504 352.175 8.44732C352.175 8.44732 352.111 8.45554 352.127 8.70936C352.468 9.10532 352.793 9.24745 353.117 9.38959C353.117 9.38959 353.054 9.39797 353.069 9.65239C353.409 10.0484 353.734 10.19 354.06 10.3316C354.06 10.3316 353.996 10.3403 354.011 10.5949C354.351 10.991 354.677 11.1324 355.002 11.2739C355.002 11.2739 354.939 11.2827 354.953 11.5374C355.293 11.9335 355.619 12.0748 355.944 12.2162C355.944 12.2162 355.881 12.2251 355.895 12.4799C356.235 12.8759 356.561 13.0172 356.887 13.1585C356.887 13.1585 356.824 13.1728 356.762 13.5669C356.714 15.1052 356.727 16.2492 356.741 17.3933C356.741 17.3933 356.801 17.4305 356.456 17.5474C356.046 18.0824 355.981 18.5006 355.916 18.9188C355.916 18.9188 355.877 18.8555 355.62 18.86C355.223 19.1986 355.084 19.5327 354.944 19.8669C354.944 19.8669 354.93 19.79 354.654 19.9462C354.221 20.7678 354.064 21.4332 353.907 22.0986C353.907 22.0986 353.973 22.1406 353.651 22.2804C353.242 22.8248 353.156 23.2294 353.07 23.6339C353.07 23.6339 353.058 23.569 352.786 23.6611C352.389 24.34 352.263 24.9267 352.137 25.5135C352.137 25.5135 352.117 25.4521 351.85 25.5512C351.453 26.2332 351.322 26.8159 351.191 27.3987C351.191 27.3987 351.173 27.3356 351.024 27.4057C350.787 27.5727 350.606 27.7066 350.627 27.7599C350.72 27.9932 350.872 28.203 351.002 28.4214C349.173 35.7409 346.832 42.9766 345.614 50.3965C342.538 69.1414 348.194 86.035 357.835 101.826C359.735 104.938 362.382 107.595 365.08 110.955C386.676 89.3416 407.906 68.095 429.263 46.379C429.043 45.69 428.694 45.4703 428.346 45.2506C428.346 45.2506 428.41 45.2498 428.397 44.9933C428.055 44.5975 427.727 44.4582 427.398 44.319C427.398 44.319 427.461 44.3081 427.45 44.0514C427.111 43.6553 426.783 43.516 426.456 43.3766C426.456 43.3766 426.519 43.3658 426.507 43.1091C426.169 42.7129 425.841 42.5736 425.513 42.4342C425.513 42.4342 425.576 42.4235 425.564 42.1672C425.225 41.771 424.898 41.6312 424.571 41.4913C424.571 41.4913 424.634 41.481 424.622 41.2249C424.283 40.8287 423.956 40.6886 423.629 40.5486C423.629 40.5486 423.692 40.5384 423.679 40.2825C423.34 39.8864 423.013 39.7462 422.687 39.6059C422.687 39.6059 422.75 39.5955 422.782 39.3507C422.186 39.2892 421.557 39.4726 420.928 39.6559C420.928 39.6559 420.906 39.5956 420.65 39.6083C420.254 39.9478 420.114 40.2746 419.974 40.6013C419.974 40.6013 419.964 40.5382 419.708 40.5508C419.312 40.8902 419.172 41.217 419.032 41.5437C419.032 41.5437 419.021 41.4806 418.765 41.4933C418.369 41.8326 418.229 42.1594 418.089 42.4861C418.089 42.4861 418.079 42.423 417.823 42.4358C417.427 42.7752 417.287 43.1019 417.147 43.4285C417.147 43.4286 417.137 43.3654 416.881 43.3781C416.485 43.7176 416.345 44.0443 416.204 44.371C416.204 44.371 416.194 44.3078 415.938 44.3204C415.542 44.6598 415.402 44.9866 415.262 45.3134C415.262 45.3134 415.252 45.2503 414.996 45.2625C414.6 45.6017 414.46 45.9288 414.32 46.2558C414.32 46.2558 414.31 46.1928 414.053 46.2041C413.657 46.5429 413.518 46.8706 413.378 47.1982C413.378 47.1982 413.367 47.1353 413.11 47.1462C412.714 47.4851 412.575 47.8129 412.436 48.1408C412.436 48.1408 412.425 48.0778 412.168 48.0887C411.772 48.4274 411.633 48.7553 411.494 49.0831C411.494 49.0831 411.483 49.0202 411.226 49.0312C410.83 49.3699 410.69 49.6976 410.551 50.0254C410.551 50.0254 410.54 49.9624 410.284 49.9746C409.888 50.3138 409.748 50.6408 409.608 50.9678C409.608 50.9678 409.598 50.9047 409.342 50.917C408.945 51.2563 408.805 51.5832 408.665 51.9101C408.665 51.9101 408.655 51.847 408.399 51.8592C408.003 52.1984 407.863 52.5255 407.723 52.8526C407.723 52.8526 407.713 52.7895 407.456 52.8007C407.06 53.1395 406.921 53.4672 406.781 53.7949C406.781 53.7949 406.771 53.7319 406.513 53.7426C406.117 54.0813 405.978 54.4094 405.84 54.7374C405.84 54.7374 405.828 54.6744 405.57 54.684C405.174 55.0222 405.036 55.351 404.898 55.6797C404.898 55.6797 404.886 55.6169 404.628 55.6262C404.232 55.9643 404.094 56.2932 403.956 56.6221C403.956 56.6221 403.944 56.5594 403.685 56.5685C403.289 56.9066 403.151 57.2356 403.013 57.5645C403.013 57.5645 403.001 57.5017 402.743 57.5109C402.347 57.849 402.209 58.178 402.071 58.507C402.071 58.507 402.059 58.4442 401.801 58.4532C401.404 58.7913 401.267 59.1203 401.129 59.4494C401.129 59.4494 401.117 59.3866 400.858 59.3955C400.462 59.7335 400.324 60.0627 400.187 60.3919C400.187 60.3919 400.174 60.3291 399.916 60.3378C399.52 60.6757 399.382 61.005 399.244 61.3343C399.244 61.3343 399.232 61.2715 398.973 61.2801C398.577 61.618 398.44 61.9473 398.302 62.2767C398.302 62.2767 398.29 62.2139 398.031 62.2225C397.635 62.5604 397.497 62.8897 397.36 63.219C397.36 63.219 397.347 63.1563 397.089 63.1649C396.692 63.5028 396.555 63.8321 396.417 64.1614C396.417 64.1614 396.405 64.0986 396.146 64.1073C395.75 64.4452 395.612 64.7745 395.475 65.1038C395.475 65.1038 395.462 65.041 395.204 65.0496C394.808 65.3876 394.67 65.7169 394.532 66.0462C394.532 66.0462 394.52 65.9834 394.261 65.992C393.865 66.3299 393.728 66.6592 393.59 66.9886C393.59 66.9886 393.578 66.9258 393.319 66.9344C392.923 67.2723 392.785 67.6016 392.648 67.931C392.648 67.931 392.635 67.8682 392.377 67.8768C391.98 68.2148 391.843 68.544 391.705 68.8733C391.705 68.8733 391.693 68.8106 391.434 68.8193C391.038 69.1573 390.9 69.4865 390.762 69.8157C390.762 69.8157 390.75 69.7529 390.492 69.7618C390.096 70.0998 389.958 70.4289 389.82 70.758C389.82 70.758 389.808 70.6953 389.55 70.7043C389.153 71.0423 389.015 71.3714 388.877 71.7004C388.877 71.7004 388.865 71.6376 388.607 71.6467C388.211 71.9848 388.073 72.3138 387.935 72.6428C387.935 72.6428 387.923 72.58 387.665 72.5891C387.269 72.9272 387.131 73.2562 386.993 73.5852C386.993 73.5852 386.981 73.5224 386.722 73.5315C386.326 73.8695 386.188 74.1985 386.05 74.5275C386.05 74.5275 386.038 74.4647 385.78 74.4738C385.384 74.8119 385.246 75.1409 385.108 75.4699C385.108 75.4699 385.096 75.4071 384.838 75.4162C384.441 75.7543 384.303 76.0833 384.165 76.4123C384.165 76.4123 384.153 76.3495 383.895 76.3586C383.499 76.6968 383.361 77.0257 383.223 77.3547C383.223 77.3547 383.211 77.2919 382.953 77.3011C382.557 77.6392 382.418 77.9681 382.28 78.297C382.28 78.297 382.269 78.2343 382.01 78.2434C381.614 78.5815 381.476 78.9105 381.338 79.2394C381.338 79.2394 381.326 79.1767 381.068 79.1857C380.672 79.5237 380.534 79.8528 380.396 80.1818C380.396 80.1818 380.384 80.119 380.125 80.1278C379.729 80.4657 379.592 80.7949 379.454 81.1241C379.454 81.1241 379.441 81.0614 379.182 81.0691C378.786 81.4067 378.649 81.7365 378.512 82.0663C378.512 82.0663 378.499 82.0038 378.24 82.0113C377.844 82.3487 377.707 82.6787 377.57 83.0087C377.57 83.0087 377.557 82.9461 377.297 82.9535C376.901 83.291 376.764 83.621 376.627 83.951C376.627 83.951 376.614 83.8885 376.355 83.8959C375.959 84.2333 375.822 84.5634 375.685 84.8934C375.685 84.8934 375.672 84.8309 375.412 84.8382C375.016 85.1756 374.88 85.5057 374.743 85.8359C374.743 85.8359 374.729 85.7733 374.47 85.7805C374.074 86.1179 373.937 86.4481 373.801 86.7783C373.801 86.7783 373.787 86.7157 373.528 86.7228C373.131 87.0601 372.995 87.3904 372.858 87.7206C372.858 87.7206 372.845 87.6581 372.585 87.6652C372.189 88.0025 372.052 88.3328 371.916 88.663C371.916 88.663 371.902 88.6005 371.643 88.6076C371.247 88.9449 371.11 89.2752 370.973 89.6054C370.973 89.6054 370.96 89.5429 370.7 89.5501C370.304 89.8875 370.168 90.2177 370.031 90.5478C370.031 90.5478 370.017 90.4853 369.758 90.4927C369.362 90.8301 369.225 91.1602 369.088 91.4902C369.088 91.4902 369.073 91.4276 368.775 91.408C368.055 92.0483 367.632 92.7082 367.21 93.3681C367.21 93.3681 367.183 93.3051 366.941 93.2588C366.516 93.253 366.334 93.2934 366.152 93.3338C366.152 93.3338 366.212 93.3045 366.251 93.0158C365.585 91.9719 364.879 91.2168 364.173 90.4616C356.011 77.1265 353.864 62.5713 356.848 47.526C358.387 39.7653 361.864 32.3891 365.107 24.7466C367.193 25.2149 368.639 25.7756 370.085 26.3364C370.085 26.3364 370.017 26.3718 369.893 26.6947C369.82 27.2681 369.872 27.5186 369.925 27.7691C369.925 27.7691 369.983 27.7816 369.621 27.8936C368.892 29.0607 368.526 30.1157 368.16 31.1708C368.16 31.1708 368.143 31.1079 367.857 31.1826C367.453 31.857 367.335 32.4567 367.217 33.0565C367.217 33.0565 367.2 32.9931 366.919 33.0691C366.514 33.7437 366.39 34.3422 366.266 34.9408C366.266 34.9408 366.246 34.8678 365.972 35.0175C365.58 36.032 365.463 36.8968 365.345 37.7616C365.345 37.7616 365.316 37.7036 365.063 37.7577C364.754 38.3624 364.698 38.9131 364.642 39.4638C363.596 44.685 362.086 49.8641 361.607 55.1368C360.793 64.113 362.756 72.7869 365.886 81.6877C366.268 82.6152 366.688 83.0407 367.108 83.4662C367.108 83.4662 367.149 83.4464 367.206 83.7073C367.54 83.9002 367.817 83.8322 368.093 83.7643C368.093 83.7643 368.092 83.8365 368.371 83.8727C368.771 83.5496 368.893 83.1903 369.015 82.8309C369.015 82.8309 369.024 82.8957 369.307 82.9311C369.712 82.6071 369.835 82.2478 369.958 81.8884C369.958 81.8884 369.967 81.9533 370.249 81.9887C370.654 81.6648 370.777 81.3054 370.9 80.946C370.9 80.946 370.909 81.0109 371.192 81.0464C371.597 80.7225 371.72 80.3631 371.842 80.0037C371.842 80.0037 371.852 80.0685 372.134 80.1041C372.539 79.7802 372.662 79.4208 372.785 79.0613C372.785 79.0613 372.794 79.1261 373.077 79.1618C373.482 78.8379 373.604 78.4784 373.727 78.1189C373.727 78.1189 373.736 78.1837 374.019 78.2195C374.424 77.8957 374.547 77.5361 374.67 77.1766C374.67 77.1766 374.679 77.2414 374.961 77.2771C375.367 76.9533 375.489 76.5937 375.612 76.2342C375.612 76.2342 375.621 76.299 375.904 76.3347C376.309 76.0109 376.432 75.6513 376.554 75.2918C376.554 75.2918 376.564 75.3565 376.846 75.3923C377.251 75.0685 377.374 74.7089 377.497 74.3493C377.497 74.3493 377.506 74.4142 377.789 74.45C378.194 74.1262 378.316 73.7666 378.439 73.407C378.439 73.407 378.448 73.4717 378.731 73.5078C379.136 73.1841 379.259 72.8243 379.381 72.4646C379.381 72.4646 379.391 72.5293 379.674 72.5664C380.079 72.2431 380.201 71.8827 380.323 71.5223C380.323 71.5223 380.333 71.587 380.617 71.6243C381.022 71.301 381.144 70.9405 381.266 70.58C381.266 70.58 381.276 70.6446 381.559 70.682C381.964 70.3588 382.086 69.9982 382.208 69.6376C382.208 69.6376 382.218 69.7022 382.501 69.7397C382.907 69.4165 383.029 69.0558 383.15 68.6952C383.15 68.6952 383.16 68.7598 383.444 68.7972C383.849 68.474 383.971 68.1134 384.093 67.7528C384.093 67.7528 384.103 67.8175 384.386 67.8547C384.791 67.5315 384.913 67.1709 385.035 66.8104C385.035 66.8104 385.045 66.8751 385.328 66.9123C385.734 66.589 385.856 66.2285 385.978 65.868C385.978 65.868 385.987 65.9327 386.271 65.9698C386.676 65.6465 386.798 65.286 386.92 64.9256C386.92 64.9256 386.93 64.9903 387.213 65.0274C387.619 64.7041 387.741 64.3437 387.863 63.9832C387.863 63.9832 387.872 64.0479 388.156 64.085C388.561 63.7617 388.683 63.4013 388.805 63.0408C388.805 63.0408 388.815 63.1055 389.098 63.1427C389.503 62.8194 389.625 62.4589 389.747 62.0985C389.747 62.0985 389.757 62.1631 390.04 62.2004C390.446 61.8771 390.568 61.5166 390.69 61.1561C390.69 61.1561 390.699 61.2207 390.983 61.258C391.388 60.9348 391.51 60.5742 391.632 60.2137C391.632 60.2137 391.642 60.2784 391.925 60.3157C392.331 59.9925 392.453 59.6319 392.574 59.2713C392.574 59.2713 392.584 59.336 392.868 59.3733C393.273 59.0501 393.395 58.6895 393.517 58.3289C393.517 58.3289 393.527 58.3936 393.81 58.4309C394.215 58.1076 394.337 57.7471 394.459 57.3865C394.459 57.3865 394.469 57.4512 394.752 57.4884C395.158 57.1652 395.28 56.8047 395.402 56.4441C395.402 56.4441 395.411 56.5088 395.695 56.5461C396.1 56.2228 396.222 55.8623 396.344 55.5018C396.344 55.5018 396.354 55.5664 396.637 55.6038C397.043 55.2805 397.164 54.92 397.286 54.5594C397.286 54.5594 397.296 54.6241 397.58 54.6616C397.985 54.3384 398.107 53.9777 398.229 53.6171C398.229 53.6171 398.239 53.6817 398.522 53.7194C398.928 53.3963 399.049 53.0355 399.171 52.6747C399.171 52.6747 399.181 52.7393 399.465 52.7772C399.87 52.4542 399.992 52.0933 400.113 51.7323C400.113 51.7323 400.123 51.7969 400.407 51.835C400.813 51.512 400.934 51.151 401.056 50.79C401.056 50.79 401.066 50.8546 401.35 50.8928C401.755 50.5699 401.877 50.2087 401.998 49.8476C401.998 49.8476 402.008 49.9122 402.292 49.9506C402.698 49.6277 402.819 49.2665 402.94 48.9052C402.94 48.9052 402.951 48.9698 403.235 49.0084C403.64 48.6855 403.761 48.3242 403.883 47.9629C403.883 47.9629 403.893 48.0274 404.177 48.0661C404.583 47.7434 404.704 47.3819 404.825 47.0205C404.825 47.0205 404.835 47.085 405.12 47.1239C405.525 46.8012 405.646 46.4397 405.767 46.0781C405.767 46.0781 405.778 46.1427 406.062 46.1816C406.468 45.8589 406.589 45.4973 406.71 45.1358C406.71 45.1358 406.72 45.2003 407.005 45.2393C407.41 44.9167 407.531 44.555 407.652 44.1934C407.652 44.1934 407.663 44.2579 407.947 44.2971C408.353 43.9745 408.473 43.6128 408.594 43.251C408.594 43.251 408.605 43.3155 408.89 43.355C409.295 43.0325 409.416 42.6706 409.537 42.3086C409.537 42.3086 409.547 42.3731 409.833 42.4136C410.238 42.0916 410.358 41.7289 410.479 41.3663C410.479 41.3663 410.49 41.4307 410.775 41.4716C411.181 41.1496 411.301 40.7867 411.421 40.4239C411.421 40.4239 411.432 40.4883 411.718 40.5295C412.123 40.2076 412.243 39.8445 412.363 39.4814C412.363 39.4814 412.375 39.5459 412.66 39.5872C413.066 39.2654 413.186 38.9022 413.305 38.539C413.305 38.539 413.317 38.6035 413.603 38.6449C414.008 38.323 414.128 37.9598 414.248 37.5967C414.248 37.5967 414.259 37.6611 414.545 37.7025C414.95 37.3806 415.07 37.0175 415.19 36.6543C415.19 36.6543 415.202 36.7187 415.487 36.7601C415.893 36.4383 416.013 36.0751 416.133 35.7119C416.133 35.7119 416.144 35.7763 416.43 35.8178C416.835 35.4961 416.955 35.1328 417.075 34.7695C417.075 34.7695 417.087 34.8339 417.372 34.8757C417.778 34.554 417.898 34.1906 418.017 33.8272C418.017 33.8272 418.029 33.8916 418.315 33.9337C418.721 33.6121 418.84 33.2485 418.959 32.8848C418.959 32.8848 418.971 32.9492 419.258 32.9916C419.663 32.6702 419.782 32.3063 419.902 31.9424C419.902 31.9424 419.92 32.007 420.215 32.0839C420.81 31.8416 421.109 31.5223 421.409 31.203C421.573 31.053 421.764 31.003 422.278 31.4256C422.983 31.8609 423.391 31.9236 423.799 31.9863C423.799 31.9863 423.736 32.007 423.696 32.2929C424.021 32.6983 424.385 32.8179 424.748 32.9376C424.748 32.9376 424.684 32.9493 424.642 33.2351C424.964 33.6407 425.327 33.7603 425.691 33.88C425.691 33.88 425.626 33.8917 425.585 34.1775C425.906 34.583 426.27 34.7027 426.633 34.8224C426.633 34.8224 426.559 34.8508 426.427 35.0787C426.639 35.7742 426.982 36.242 427.325 36.7097C430.509 40.0328 433.692 43.3559 436.651 47.1285C436.289 47.7866 436.124 47.971 435.932 48.1314C435.932 48.1314 435.968 48.0415 435.739 48.0932C435.356 48.4571 435.202 48.7693 435.049 49.0816C435.049 49.0816 435.04 49.0182 434.798 49.0527C434.406 49.3993 434.257 49.7115 434.107 50.0237C434.107 50.0237 434.098 49.9606 433.856 49.995C433.464 50.3416 433.314 50.6538 433.165 50.966C433.165 50.966 433.156 50.9029 432.913 50.9374C432.521 51.284 432.372 51.5962 432.222 51.9084C432.222 51.9084 432.213 51.8453 431.971 51.8799C431.579 52.2266 431.429 52.5387 431.28 52.8507C431.28 52.8507 431.271 52.7876 431.029 52.8224C430.637 53.1692 430.487 53.4811 430.337 53.7931C430.337 53.7931 430.328 53.73 430.086 53.7648C429.694 54.1116 429.545 54.4235 429.395 54.7354C429.395 54.7354 429.386 54.6723 429.144 54.707C428.752 55.0537 428.602 55.3658 428.452 55.6778C428.452 55.6778 428.443 55.6147 428.201 55.6493C427.81 55.996 427.66 56.3081 427.51 56.6201C427.51 56.6201 427.501 56.557 427.259 56.5917C426.867 56.9383 426.717 57.2504 426.568 57.5624C426.568 57.5624 426.559 57.4994 426.316 57.5339C425.925 57.8805 425.775 58.1926 425.625 58.5047C425.625 58.5047 425.616 58.4418 425.373 58.4754C424.981 58.8217 424.832 59.1343 424.683 59.447C424.683 59.447 424.674 59.3841 424.431 59.4176C424.039 59.7638 423.89 60.0766 423.741 60.3893C423.741 60.3893 423.731 60.3264 423.488 60.36C423.097 60.7063 422.947 61.019 422.798 61.3316C422.798 61.3316 422.789 61.2688 422.546 61.3025C422.154 61.6488 422.005 61.9614 421.856 62.274C421.856 62.274 421.846 62.2112 421.604 62.245C421.212 62.5913 421.063 62.9039 420.914 63.2164C420.914 63.2164 420.904 63.1536 420.661 63.1873C420.269 63.5336 420.12 63.8462 419.971 64.1588C419.971 64.1588 419.962 64.096 419.719 64.1295C419.327 64.4758 419.178 64.7885 419.029 65.1012C419.029 65.1012 419.019 65.0384 418.776 65.0717C418.384 65.4179 418.236 65.7307 418.087 66.0436C418.087 66.0436 418.077 65.9808 417.834 66.0139C417.442 66.3601 417.293 66.673 417.144 66.9859C417.144 66.9859 417.135 66.9231 416.891 66.9563C416.499 67.3024 416.351 67.6153 416.202 67.9283C416.202 67.9283 416.192 67.8655 415.949 67.8987C415.557 68.2448 415.408 68.5577 415.259 68.8706C415.259 68.8706 415.25 68.8079 415.007 68.8411C414.615 69.1872 414.466 69.5001 414.317 69.813C414.317 69.813 414.307 69.7502 414.064 69.7835C413.672 70.1297 413.523 70.4425 413.375 70.7554C413.375 70.7554 413.365 70.6926 413.122 70.726C412.73 71.0721 412.581 71.385 412.432 71.6978C412.432 71.6978 412.422 71.635 412.179 71.6684C411.788 72.0146 411.639 72.3274 411.49 72.6402C411.49 72.6402 411.48 72.5773 411.237 72.6108C410.845 72.9571 410.696 73.2698 410.547 73.5826C410.547 73.5826 410.538 73.5197 410.295 73.5532C409.903 73.8995 409.754 74.2122 409.605 74.5249C409.605 74.5249 409.595 74.4621 409.352 74.4957C408.96 74.8419 408.811 75.1546 408.662 75.4673C408.662 75.4673 408.653 75.4045 408.41 75.4381C408.018 75.7844 407.869 76.0971 407.72 76.4098C407.72 76.4098 407.71 76.3469 407.468 76.3806C407.076 76.727 406.927 77.0396 406.778 77.3522C406.778 77.3522 406.768 77.2893 406.525 77.3231C406.133 77.6695 405.984 77.982 405.835 78.2946C405.835 78.2946 405.826 78.2317 405.583 78.2662C405.192 78.6128 405.042 78.9249 404.892 79.2371C404.892 79.2371 404.883 79.1741 404.641 79.2078C404.249 79.5541 404.1 79.8667 403.95 80.1793C403.95 80.1793 403.941 80.1165 403.698 80.1498C403.306 80.496 403.157 80.8089 403.008 81.1217C403.008 81.1217 402.999 81.0589 402.755 81.0909C402.363 81.4365 402.215 81.7502 402.067 82.0639C402.067 82.0639 402.056 82.0013 401.812 82.033C401.42 82.3785 401.272 82.6924 401.124 83.0062C401.124 83.0062 401.114 82.9437 400.87 82.9752C400.478 83.3208 400.33 83.6346 400.182 83.9485C400.182 83.9485 400.171 83.886 399.927 83.9177C399.535 84.2632 399.387 84.577 399.239 84.8909C399.239 84.8909 399.229 84.8284 398.985 84.8601C398.593 85.2057 398.445 85.5195 398.297 85.8332C398.297 85.8332 398.286 85.7707 398.042 85.8026C397.65 86.1482 397.502 86.4619 397.354 86.7756C397.354 86.7756 397.344 86.7131 397.1 86.745C396.708 87.0907 396.56 87.4043 396.412 87.718C396.412 87.718 396.402 87.6555 396.158 87.6875C395.766 88.0331 395.618 88.3468 395.47 88.6604C395.47 88.6604 395.459 88.5978 395.215 88.6299C394.823 88.9756 394.675 89.2892 394.527 89.6028C394.527 89.6028 394.517 89.5402 394.273 89.5723C393.881 89.918 393.733 90.2316 393.585 90.5452C393.585 90.5452 393.575 90.4826 393.331 90.5147C392.939 90.8605 392.791 91.1741 392.642 91.4877C392.642 91.4877 392.632 91.4251 392.388 91.4572C391.996 91.8029 391.848 92.1165 391.7 92.4301C391.7 92.4301 391.69 92.3675 391.446 92.3995C391.054 92.7452 390.906 93.0589 390.758 93.3727C390.758 93.3727 390.748 93.3101 390.503 93.3418C390.111 93.6874 389.964 94.0014 389.816 94.3153C389.816 94.3153 389.805 94.2527 389.561 94.2838C389.169 94.6292 389.021 94.9436 388.874 95.2579C388.874 95.2579 388.863 95.1953 388.618 95.2253C388.226 95.5703 388.079 95.8853 387.932 96.2003C387.932 96.2003 387.921 96.1378 387.676 96.1676C387.283 96.5124 387.137 96.8276 386.99 97.1428C386.99 97.1428 386.979 97.0803 386.733 97.1098C386.341 97.4546 386.194 97.7699 386.048 98.0852C386.048 98.0852 386.036 98.0227 385.791 98.0521C385.399 98.3968 385.252 98.7122 385.105 99.0275C385.105 99.0275 385.094 98.9651 384.848 98.9943C384.456 99.3389 384.31 99.6544 384.163 99.9699C384.163 99.9699 384.152 99.9075 383.906 99.9365C383.513 100.281 383.367 100.597 383.221 100.912C383.221 100.912 383.209 100.85 382.963 100.879C382.571 101.223 382.425 101.539 382.279 101.855C382.279 101.855 382.267 101.792 382.021 101.821C381.629 102.165 381.482 102.481 381.336 102.797C381.336 102.797 381.324 102.735 381.078 102.763C380.686 103.108 380.54 103.424 380.394 103.739C380.394 103.739 380.382 103.677 380.136 103.706C379.744 104.05 379.598 104.366 379.452 104.682C379.452 104.682 379.44 104.619 379.194 104.648C378.801 104.993 378.655 105.308 378.509 105.624C378.509 105.624 378.497 105.562 378.251 105.591C377.859 105.935 377.713 106.251 377.567 106.567C377.567 106.567 377.555 106.504 377.309 106.533C376.917 106.877 376.77 107.193 376.624 107.509C376.624 107.509 376.612 107.447 376.366 107.475C375.974 107.82 375.828 108.135 375.682 108.451C375.682 108.451 375.67 108.389 375.424 108.417C375.032 108.762 374.886 109.078 374.74 109.394C374.74 109.394 374.728 109.331 374.481 109.36C374.089 109.704 373.943 110.02 373.797 110.336C373.797 110.336 373.785 110.274 373.539 110.302C373.147 110.647 373.001 110.963 372.855 111.278C372.855 111.278 372.843 111.216 372.597 111.245C372.205 111.589 372.058 111.905 371.912 112.221C371.912 112.221 371.9 112.158 371.655 112.188C371.262 112.532 371.116 112.848 370.969 113.163C370.969 113.163 370.958 113.101 370.712 113.13C370.32 113.475 370.173 113.79 370.027 114.105C370.027 114.105 370.015 114.043 369.77 114.073C369.378 114.418 369.231 114.733 369.084 115.048C369.084 115.048 369.073 114.985 368.828 115.015C368.435 115.36 368.289 115.675 368.142 115.99C368.142 115.99 368.13 115.928 367.885 115.957C367.493 116.302 367.346 116.617 367.199 116.932C367.199 116.932 367.185 116.87 366.822 116.845C365.415 116.845 364.369 116.87 363.324 116.894C363.324 116.894 363.384 116.87 363.354 116.624C363.008 116.232 362.692 116.086 362.376 115.941C362.376 115.941 362.438 115.928 362.412 115.68C362.068 115.289 361.751 115.145 361.433 115.001C361.433 115.001 361.495 114.986 361.474 114.733C361.131 114.337 360.81 114.194 360.489 114.051C360.489 114.051 360.565 114.029 360.465 113.901C360.233 113.532 360.043 113.353 359.793 113.237C350.435 102.31 343.576 90.0884 340.642 75.8808C337.339 59.885 337.979 44.1651 344.283 28.9115C345.497 25.9733 346.923 23.1227 348.493 19.7388C348.814 18.9312 349.016 18.7858 349.34 18.8096C349.34 18.8096 349.256 18.9354 349.484 18.7707C349.865 18.0305 350.017 17.4549 350.169 16.8794C350.169 16.8794 350.183 16.9485 350.433 16.8529C350.492 16.2054 350.302 15.6534 350.111 15.1014C350.111 15.1014 350.175 15.0957 350.213 14.8142C349.891 14.4147 349.533 14.2967 349.175 14.1787C349.175 14.1787 349.239 14.155 349.273 13.874C348.948 13.4741 348.59 13.3551 348.232 13.2361C348.232 13.2361 348.297 13.2127 348.33 12.9316C348.006 12.5301 347.648 12.4096 347.29 12.2891C347.29 12.2891 347.353 12.2732 347.363 12.0038C347.03 11.6035 346.688 11.4724 346.345 11.3414C346.345 11.3414 346.409 11.3294 346.444 11.0474C346.121 10.6452 345.763 10.525 345.405 10.4047C345.405 10.4047 345.468 10.3882 345.48 10.1179C345.149 9.71638 344.805 9.58522 344.461 9.45406C344.461 9.45406 344.526 9.44498 344.539 9.17494C344.208 8.77311 343.865 8.64131 343.521 8.50953C343.521 8.50953 343.586 8.50299 343.595 8.26062C343.302 8.20058 342.999 8.38293 342.697 8.56528C342.697 8.56528 342.69 8.50061 342.428 8.49333C342.026 8.82505 341.885 9.16405 341.744 9.50306C341.744 9.50305 341.735 9.42286 341.476 9.52872C341.086 10.2171 340.957 10.7995 340.827 11.382C340.827 11.382 340.812 11.3177 340.529 11.3973C340.126 12.0731 340.007 12.6694 339.887 13.2657C339.887 13.2657 339.87 13.2028 339.59 13.2751C339.184 13.9581 339.06 14.5689 338.935 15.1797C333.999 24.0364 330.689 33.4353 329.073 44.0753C326.107 53.6218 326.82 62.6916 328.19 71.7631C328.235 72.0632 328.926 72.2658 329.316 72.5139C329.316 72.5139 329.463 72.9159 329.153 73.3954C329.713 77.2098 330.583 80.5448 331.453 83.8799C331.453 83.8799 331.385 83.861 331.29 84.168C331.537 85.0668 331.877 85.6587 332.217 86.2506Z" fill="url(#paint0_linear_362_98)"/>
<path d="M23.7368 228.078L12.0368 193.078H17.1868L27.9368 225.378H25.3368L36.4868 193.078H41.0868L51.9868 225.378H49.4868L60.3868 193.078H65.1368L53.4368 228.078H48.1868L37.9868 198.128H39.3368L29.0868 228.078H23.7368ZM100.353 193.078H105.353V228.078H100.353V193.078ZM80.2532 228.078H75.2532V193.078H80.2532V228.078ZM100.803 212.478H79.7532V208.128H100.803V212.478ZM119.829 228.078V193.078H124.829V228.078H119.829ZM146.258 228.078V197.428H134.258V193.078H163.208V197.428H151.208V228.078H146.258ZM177.204 208.178H195.204V212.428H177.204V208.178ZM177.654 223.728H198.054V228.078H172.654V193.078H197.354V197.428H177.654V223.728ZM214.65 228.478C212.583 228.478 210.65 228.045 208.85 227.178C207.05 226.311 205.583 225.061 204.45 223.428L207.35 220.028C208.316 221.361 209.4 222.395 210.6 223.128C211.833 223.828 213.183 224.178 214.65 224.178C218.65 224.178 220.65 221.811 220.65 217.078V197.428H208V193.078H225.6V216.828C225.6 220.728 224.666 223.645 222.8 225.578C220.966 227.511 218.25 228.478 214.65 228.478ZM249.984 228.478C247.318 228.478 244.768 228.078 242.334 227.278C239.901 226.445 237.984 225.378 236.584 224.078L238.434 220.178C239.768 221.345 241.468 222.311 243.534 223.078C245.601 223.845 247.751 224.228 249.984 224.228C252.018 224.228 253.668 223.995 254.934 223.528C256.201 223.061 257.134 222.428 257.734 221.628C258.334 220.795 258.634 219.861 258.634 218.828C258.634 217.628 258.234 216.661 257.434 215.928C256.668 215.195 255.651 214.611 254.384 214.178C253.151 213.711 251.784 213.311 250.284 212.978C248.784 212.645 247.268 212.261 245.734 211.828C244.234 211.361 242.851 210.778 241.584 210.078C240.351 209.378 239.351 208.445 238.584 207.278C237.818 206.078 237.434 204.545 237.434 202.678C237.434 200.878 237.901 199.228 238.834 197.728C239.801 196.195 241.268 194.978 243.234 194.078C245.234 193.145 247.768 192.678 250.834 192.678C252.868 192.678 254.884 192.945 256.884 193.478C258.884 194.011 260.618 194.778 262.084 195.778L260.434 199.778C258.934 198.778 257.351 198.061 255.684 197.628C254.018 197.161 252.401 196.928 250.834 196.928C248.868 196.928 247.251 197.178 245.984 197.678C244.718 198.178 243.784 198.845 243.184 199.678C242.618 200.511 242.334 201.445 242.334 202.478C242.334 203.711 242.718 204.695 243.484 205.428C244.284 206.161 245.301 206.745 246.534 207.178C247.801 207.611 249.184 208.011 250.684 208.378C252.184 208.711 253.684 209.095 255.184 209.528C256.718 209.961 258.101 210.528 259.334 211.228C260.601 211.928 261.618 212.861 262.384 214.028C263.151 215.195 263.534 216.695 263.534 218.528C263.534 220.295 263.051 221.945 262.084 223.478C261.118 224.978 259.618 226.195 257.584 227.128C255.584 228.028 253.051 228.478 249.984 228.478ZM290.639 228.478C287.972 228.478 285.489 228.028 283.189 227.128C280.922 226.228 278.956 224.978 277.289 223.378C275.622 221.745 274.322 219.845 273.389 217.678C272.456 215.511 271.989 213.145 271.989 210.578C271.989 208.011 272.456 205.645 273.389 203.478C274.322 201.311 275.622 199.428 277.289 197.828C278.956 196.195 280.922 194.928 283.189 194.028C285.456 193.128 287.939 192.678 290.639 192.678C293.306 192.678 295.756 193.128 297.989 194.028C300.256 194.895 302.222 196.145 303.889 197.778C305.589 199.378 306.889 201.261 307.789 203.428C308.722 205.595 309.189 207.978 309.189 210.578C309.189 213.178 308.722 215.561 307.789 217.728C306.889 219.895 305.589 221.795 303.889 223.428C302.222 225.028 300.256 226.278 297.989 227.178C295.756 228.045 293.306 228.478 290.639 228.478ZM290.639 224.028C292.572 224.028 294.356 223.695 295.989 223.028C297.656 222.361 299.089 221.428 300.289 220.228C301.522 218.995 302.472 217.561 303.139 215.928C303.839 214.295 304.189 212.511 304.189 210.578C304.189 208.645 303.839 206.861 303.139 205.228C302.472 203.595 301.522 202.178 300.289 200.978C299.089 199.745 297.656 198.795 295.989 198.128C294.356 197.461 292.572 197.128 290.639 197.128C288.672 197.128 286.856 197.461 285.189 198.128C283.556 198.795 282.122 199.745 280.889 200.978C279.656 202.178 278.689 203.595 277.989 205.228C277.322 206.861 276.989 208.645 276.989 210.578C276.989 212.511 277.322 214.295 277.989 215.928C278.689 217.561 279.656 218.995 280.889 220.228C282.122 221.428 283.556 222.361 285.189 223.028C286.856 223.695 288.672 224.028 290.639 224.028ZM320.831 228.078V193.078H324.931L348.081 221.828H345.931V193.078H350.931V228.078H346.831L323.681 199.328H325.831V228.078H320.831ZM389.785 228.078V197.428H377.785V193.078H406.735V197.428H394.735V228.078H389.785ZM420.731 208.178H438.731V212.428H420.731V208.178ZM421.181 223.728H441.581V228.078H416.181V193.078H440.881V197.428H421.181V223.728ZM469.278 228.478C466.612 228.478 464.145 228.045 461.878 227.178C459.645 226.278 457.695 225.028 456.028 223.428C454.395 221.795 453.112 219.895 452.178 217.728C451.245 215.561 450.778 213.178 450.778 210.578C450.778 207.978 451.245 205.595 452.178 203.428C453.112 201.261 454.412 199.378 456.078 197.778C457.745 196.145 459.695 194.895 461.928 194.028C464.195 193.128 466.662 192.678 469.328 192.678C472.028 192.678 474.512 193.145 476.778 194.078C479.078 194.978 481.028 196.328 482.628 198.128L479.378 201.278C478.045 199.878 476.545 198.845 474.878 198.178C473.212 197.478 471.428 197.128 469.528 197.128C467.562 197.128 465.728 197.461 464.028 198.128C462.362 198.795 460.912 199.728 459.678 200.928C458.445 202.128 457.478 203.561 456.778 205.228C456.112 206.861 455.778 208.645 455.778 210.578C455.778 212.511 456.112 214.311 456.778 215.978C457.478 217.611 458.445 219.028 459.678 220.228C460.912 221.428 462.362 222.361 464.028 223.028C465.728 223.695 467.562 224.028 469.528 224.028C471.428 224.028 473.212 223.695 474.878 223.028C476.545 222.328 478.045 221.261 479.378 219.828L482.628 222.978C481.028 224.778 479.078 226.145 476.778 227.078C474.512 228.011 472.012 228.478 469.278 228.478ZM518.861 193.078H523.861V228.078H518.861V193.078ZM498.761 228.078H493.761V193.078H498.761V228.078ZM519.311 212.478H498.261V208.128H519.311V212.478ZM538.337 228.078V193.078H542.437L565.587 221.828H563.437V193.078H568.437V228.078H564.337L541.187 199.328H543.337V228.078H538.337ZM598.713 228.478C596.047 228.478 593.563 228.028 591.263 227.128C588.997 226.228 587.03 224.978 585.363 223.378C583.697 221.745 582.397 219.845 581.463 217.678C580.53 215.511 580.063 213.145 580.063 210.578C580.063 208.011 580.53 205.645 581.463 203.478C582.397 201.311 583.697 199.428 585.363 197.828C587.03 196.195 588.997 194.928 591.263 194.028C593.53 193.128 596.013 192.678 598.713 192.678C601.38 192.678 603.83 193.128 606.063 194.028C608.33 194.895 610.297 196.145 611.963 197.778C613.663 199.378 614.963 201.261 615.863 203.428C616.797 205.595 617.263 207.978 617.263 210.578C617.263 213.178 616.797 215.561 615.863 217.728C614.963 219.895 613.663 221.795 611.963 223.428C610.297 225.028 608.33 226.278 606.063 227.178C603.83 228.045 601.38 228.478 598.713 228.478ZM598.713 224.028C600.647 224.028 602.43 223.695 604.063 223.028C605.73 222.361 607.163 221.428 608.363 220.228C609.597 218.995 610.547 217.561 611.213 215.928C611.913 214.295 612.263 212.511 612.263 210.578C612.263 208.645 611.913 206.861 611.213 205.228C610.547 203.595 609.597 202.178 608.363 200.978C607.163 199.745 605.73 198.795 604.063 198.128C602.43 197.461 600.647 197.128 598.713 197.128C596.747 197.128 594.93 197.461 593.263 198.128C591.63 198.795 590.197 199.745 588.963 200.978C587.73 202.178 586.763 203.595 586.063 205.228C585.397 206.861 585.063 208.645 585.063 210.578C585.063 212.511 585.397 214.295 586.063 215.928C586.763 217.561 587.73 218.995 588.963 220.228C590.197 221.428 591.63 222.361 593.263 223.028C594.93 223.695 596.747 224.028 598.713 224.028ZM628.906 228.078V193.078H633.906V223.728H652.856V228.078H628.906ZM677.758 228.478C675.092 228.478 672.608 228.028 670.308 227.128C668.042 226.228 666.075 224.978 664.408 223.378C662.742 221.745 661.442 219.845 660.508 217.678C659.575 215.511 659.108 213.145 659.108 210.578C659.108 208.011 659.575 205.645 660.508 203.478C661.442 201.311 662.742 199.428 664.408 197.828C666.075 196.195 668.042 194.928 670.308 194.028C672.575 193.128 675.058 192.678 677.758 192.678C680.425 192.678 682.875 193.128 685.108 194.028C687.375 194.895 689.342 196.145 691.008 197.778C692.708 199.378 694.008 201.261 694.908 203.428C695.842 205.595 696.308 207.978 696.308 210.578C696.308 213.178 695.842 215.561 694.908 217.728C694.008 219.895 692.708 221.795 691.008 223.428C689.342 225.028 687.375 226.278 685.108 227.178C682.875 228.045 680.425 228.478 677.758 228.478ZM677.758 224.028C679.692 224.028 681.475 223.695 683.108 223.028C684.775 222.361 686.208 221.428 687.408 220.228C688.642 218.995 689.592 217.561 690.258 215.928C690.958 214.295 691.308 212.511 691.308 210.578C691.308 208.645 690.958 206.861 690.258 205.228C689.592 203.595 688.642 202.178 687.408 200.978C686.208 199.745 684.775 198.795 683.108 198.128C681.475 197.461 679.692 197.128 677.758 197.128C675.792 197.128 673.975 197.461 672.308 198.128C670.675 198.795 669.242 199.745 668.008 200.978C666.775 202.178 665.808 203.595 665.108 205.228C664.442 206.861 664.108 208.645 664.108 210.578C664.108 212.511 664.442 214.295 665.108 215.928C665.808 217.561 666.775 218.995 668.008 220.228C669.242 221.428 670.675 222.361 672.308 223.028C673.975 223.695 675.792 224.028 677.758 224.028ZM723.75 228.478C721.05 228.478 718.567 228.045 716.3 227.178C714.034 226.278 712.067 225.028 710.4 223.428C708.734 221.795 707.434 219.895 706.5 217.728C705.567 215.561 705.1 213.178 705.1 210.578C705.1 207.978 705.567 205.595 706.5 203.428C707.434 201.261 708.734 199.378 710.4 197.778C712.1 196.145 714.084 194.895 716.35 194.028C718.617 193.128 721.117 192.678 723.85 192.678C726.617 192.678 729.15 193.128 731.45 194.028C733.75 194.928 735.7 196.278 737.3 198.078L734.2 201.178C732.767 199.778 731.2 198.761 729.5 198.128C727.834 197.461 726.017 197.128 724.05 197.128C722.05 197.128 720.184 197.461 718.45 198.128C716.75 198.795 715.267 199.728 714 200.928C712.767 202.128 711.8 203.561 711.1 205.228C710.434 206.861 710.1 208.645 710.1 210.578C710.1 212.478 710.434 214.261 711.1 215.928C711.8 217.561 712.767 218.995 714 220.228C715.267 221.428 716.75 222.361 718.45 223.028C720.15 223.695 722 224.028 724 224.028C725.867 224.028 727.65 223.745 729.35 223.178C731.084 222.578 732.684 221.595 734.15 220.228L737 224.028C735.267 225.495 733.234 226.611 730.9 227.378C728.6 228.111 726.217 228.478 723.75 228.478ZM732.2 223.378V210.378H737V224.028L732.2 223.378ZM750.573 228.078V193.078H755.573V228.078H750.573ZM774.602 208.178H792.602V212.428H774.602V208.178ZM775.052 223.728H795.452V228.078H770.052V193.078H794.752V197.428H775.052V223.728ZM817.748 228.478C815.081 228.478 812.531 228.078 810.098 227.278C807.665 226.445 805.748 225.378 804.348 224.078L806.198 220.178C807.531 221.345 809.231 222.311 811.298 223.078C813.365 223.845 815.515 224.228 817.748 224.228C819.781 224.228 821.431 223.995 822.698 223.528C823.965 223.061 824.898 222.428 825.498 221.628C826.098 220.795 826.398 219.861 826.398 218.828C826.398 217.628 825.998 216.661 825.198 215.928C824.431 215.195 823.415 214.611 822.148 214.178C820.915 213.711 819.548 213.311 818.048 212.978C816.548 212.645 815.031 212.261 813.498 211.828C811.998 211.361 810.615 210.778 809.348 210.078C808.115 209.378 807.115 208.445 806.348 207.278C805.581 206.078 805.198 204.545 805.198 202.678C805.198 200.878 805.665 199.228 806.598 197.728C807.565 196.195 809.031 194.978 810.998 194.078C812.998 193.145 815.531 192.678 818.598 192.678C820.631 192.678 822.648 192.945 824.648 193.478C826.648 194.011 828.381 194.778 829.848 195.778L828.198 199.778C826.698 198.778 825.115 198.061 823.448 197.628C821.781 197.161 820.165 196.928 818.598 196.928C816.631 196.928 815.015 197.178 813.748 197.678C812.481 198.178 811.548 198.845 810.948 199.678C810.381 200.511 810.098 201.445 810.098 202.478C810.098 203.711 810.481 204.695 811.248 205.428C812.048 206.161 813.065 206.745 814.298 207.178C815.565 207.611 816.948 208.011 818.448 208.378C819.948 208.711 821.448 209.095 822.948 209.528C824.481 209.961 825.865 210.528 827.098 211.228C828.365 211.928 829.381 212.861 830.148 214.028C830.915 215.195 831.298 216.695 831.298 218.528C831.298 220.295 830.815 221.945 829.848 223.478C828.881 224.978 827.381 226.195 825.348 227.128C823.348 228.028 820.815 228.478 817.748 228.478Z" fill="#317EFF"/>
<defs>
<linearGradient id="paint0_linear_362_98" x1="321.969" y1="65.3274" x2="509.423" y2="98.5357" gradientUnits="userSpaceOnUse">
<stop stop-color="#4285F4"/>
<stop offset="0.530246" stop-color="#9738F6"/>
<stop offset="1" stop-color="#3054F8"/>
</linearGradient>
</defs>
</svg>
