<svg width="142" height="101" viewBox="0 0 142 101" fill="none" xmlns="http://www.w3.org/2000/svg">
<path d="M7.5791 61.065C7.5791 61.065 7.637 61.0451 7.54408 61.3166C7.75669 62.1857 8.06224 62.7832 8.36778 63.3807C8.36778 63.3807 8.31974 63.3646 8.24828 63.5591C8.40341 64.2996 8.63002 64.8457 8.85663 65.3918C11.9883 70.8658 14.6891 76.6539 18.3817 81.7189C21.6045 86.1395 25.9344 89.7556 29.8162 93.6867C30.0551 93.9287 30.6535 93.8157 31.3813 93.9446C32.0654 93.736 32.4528 93.4507 32.8403 93.1654C32.8403 93.1654 32.837 93.2161 33.0076 93.1946C33.2842 92.9501 33.3901 92.727 33.4959 92.504C33.4959 92.504 33.501 92.5488 33.6738 92.5284C33.9508 92.2855 34.0549 92.063 34.159 91.8406C34.159 91.8406 34.1644 91.8853 34.3374 91.8651C34.6144 91.6222 34.7183 91.3996 34.8223 91.177C34.8223 91.177 34.8279 91.2217 35.0015 91.2024C35.2785 90.9599 35.3819 90.7368 35.4853 90.5136C35.4853 90.5136 35.4913 90.5582 35.665 90.539C35.9421 90.2966 36.0454 90.0733 36.1487 89.85C36.1487 89.85 36.1547 89.8946 36.3285 89.8755C36.6056 89.6331 36.7088 89.4098 36.812 89.1864C36.812 89.1864 36.8181 89.231 36.9921 89.2121C37.2691 88.9697 37.3721 88.7462 37.4752 88.5227C37.4752 88.5227 37.4814 88.5673 37.6557 88.549C37.9328 88.3068 38.0355 88.083 38.1382 87.8591C38.1382 87.8591 38.1447 87.9036 38.3192 87.8856C38.5963 87.6435 38.6989 87.4195 38.8016 87.1955C38.8016 87.1955 38.8081 87.24 38.9827 87.2221C39.2598 86.9802 39.3624 86.7561 39.465 86.532C39.465 86.532 39.4716 86.5765 39.6465 86.5592C39.9237 86.3174 40.026 86.093 40.1283 85.8686C40.1283 85.8686 40.1351 85.913 40.3101 85.8958C40.5873 85.6541 40.6895 85.4296 40.7917 85.2051C40.7917 85.2051 40.7986 85.2495 40.9737 85.2325C41.2509 84.9909 41.353 84.7663 41.4551 84.5417C41.4551 84.5417 41.4621 84.586 41.6373 84.5691C41.9145 84.3274 42.0165 84.1028 42.1185 83.8782C42.1185 83.8782 42.1257 83.9226 42.3008 83.9055C42.578 83.6639 42.68 83.4393 42.7821 83.2147C42.7821 83.2147 42.7892 83.2591 42.9642 83.2419C43.2414 83.0002 43.3435 82.7757 43.4457 82.5512C43.4457 82.5512 43.4527 82.5956 43.6277 82.5783C43.9048 82.3366 44.007 82.1122 44.1092 81.8877C44.1092 81.8877 44.1162 81.9321 44.2912 81.9148C44.5683 81.6731 44.6705 81.4487 44.7727 81.2242C44.7727 81.2242 44.7797 81.2686 44.9547 81.2513C45.2318 81.0096 45.334 80.7852 45.4362 80.5607C45.4362 80.5607 45.4432 80.6051 45.6182 80.5879C45.8954 80.3462 45.9975 80.1217 46.0996 79.8972C46.0996 79.8972 46.1067 79.9416 46.2818 79.9246C46.559 79.683 46.6609 79.4584 46.7629 79.2338C46.7629 79.2338 46.7702 79.278 46.9455 79.2613C47.2227 79.0199 47.3244 78.7951 47.4262 78.5703C47.4262 78.5703 47.4337 78.6146 47.6092 78.5981C47.8863 78.3566 47.988 78.1317 48.0896 77.9068C48.0896 77.9068 48.0972 77.9511 48.2731 77.9351C48.5502 77.6939 48.6516 77.4687 48.7529 77.2434C48.7529 77.2434 48.7607 77.2876 48.9366 77.2717C49.2138 77.0305 49.3151 76.8052 49.4164 76.58C49.4164 76.58 49.4242 76.6241 49.6001 76.6082C49.8773 76.367 49.9786 76.1417 50.0799 75.9165C50.0799 75.9165 50.0878 75.9606 50.2636 75.9447C50.5408 75.7035 50.6421 75.4782 50.7434 75.253C50.7434 75.253 50.7513 75.2971 50.9271 75.2812C51.2043 75.04 51.3056 74.8148 51.407 74.5895C51.407 74.5895 51.4148 74.6336 51.5906 74.6177C51.8678 74.3765 51.9691 74.1512 52.0705 73.926C52.0705 73.926 52.0783 73.9701 52.2541 73.9541C52.5313 73.7129 52.6326 73.4877 52.734 73.2625C52.734 73.2625 52.7417 73.3066 52.9173 73.2902C53.1944 73.0488 53.2961 72.8239 53.3977 72.5989C53.3977 72.5989 53.4053 72.6431 53.5808 72.6266C53.8579 72.3852 53.9596 72.1603 54.0612 71.9354C54.0612 71.9354 54.0688 71.9796 54.2443 71.9631C54.5214 71.7218 54.6231 71.4969 54.7247 71.2719C54.7247 71.2719 54.7323 71.3161 54.9081 71.3001C55.1853 71.0589 55.2866 70.8337 55.388 70.6085C55.388 70.6085 55.3958 70.6527 55.5717 70.6368C55.8488 70.3956 55.9501 70.1703 56.0513 69.945C56.0514 69.945 56.0593 69.9891 56.2353 69.9734C56.5125 69.7324 56.6136 69.507 56.7147 69.2816C56.7147 69.2816 56.7228 69.3256 56.899 69.3102C57.1761 69.0693 57.2771 68.8437 57.378 68.6181C57.378 68.6181 57.3863 68.6621 57.5626 68.6469C57.8398 68.406 57.9405 68.1803 58.0413 67.9546C58.0413 67.9546 58.0498 67.9986 58.2262 67.9836C58.5034 67.7427 58.6041 67.5169 58.7048 67.2911C58.7048 67.2911 58.7133 67.3351 58.8898 67.3201C59.1669 67.0793 59.2676 66.8535 59.3682 66.6276C59.3682 66.6276 59.3768 66.6716 59.5533 66.6566C59.8304 66.4158 59.931 66.19 60.0317 65.9641C60.0317 65.9641 60.0402 66.0081 60.2168 65.9931C60.4939 65.7523 60.5945 65.5264 60.6951 65.3006C60.6951 65.3006 60.7037 65.3446 60.8803 65.3297C61.1574 65.0889 61.2579 64.8629 61.3585 64.637C61.3585 64.637 61.3672 64.681 61.5442 64.6667C61.8213 64.4261 61.9214 64.1997 62.0215 63.9733C62.0215 63.9733 62.0305 64.0173 62.2077 64.0033C62.4848 63.7628 62.5848 63.5362 62.6847 63.3097C62.6847 63.3097 62.6938 63.3536 62.8711 63.3399C63.1483 63.0994 63.2482 62.8728 63.348 62.6461C63.348 62.6461 63.3572 62.6901 63.5346 62.6765C63.8118 62.4361 63.9116 62.2093 64.0115 61.9825C64.0115 61.9825 64.0207 62.0265 64.1981 62.013C64.4753 61.7726 64.5751 61.5458 64.675 61.319C64.675 61.319 64.6842 61.363 64.8616 61.3495C65.1388 61.1091 65.2386 60.8823 65.3385 60.6555C65.3385 60.6555 65.3477 60.6995 65.5251 60.686C65.8023 60.4456 65.9021 60.2188 66.002 59.992C66.002 59.992 66.0112 60.036 66.1886 60.0225C66.4658 59.7821 66.5656 59.5553 66.6655 59.3285C66.6655 59.3285 66.6747 59.3725 66.8521 59.359C67.1293 59.1186 67.2291 58.8918 67.329 58.665C67.329 58.665 67.3382 58.709 67.5156 58.6955C67.7928 58.4552 67.8927 58.2283 67.9925 58.0015C67.9925 58.0015 68.0017 58.0455 68.1791 58.032C68.4564 57.7917 68.5562 57.5649 68.656 57.338C68.656 57.338 68.6652 57.3821 68.8426 57.3685C69.1199 57.1282 69.2198 56.9014 69.3196 56.6746C69.3196 56.6746 69.3288 56.7186 69.5061 56.705C69.7834 56.4647 69.8834 56.2379 69.9833 56.0112C69.9833 56.0112 69.9924 56.0552 70.1696 56.0415C70.447 55.8011 70.547 55.5745 70.6471 55.3479C70.6471 55.3479 70.6561 55.3919 70.8332 55.3779C71.1105 55.1375 71.2107 54.9111 71.3109 54.6846C71.3109 54.6846 71.3198 54.7286 71.4968 54.7145C71.7741 54.474 71.8743 54.2476 71.9744 54.0212C71.9744 54.0212 71.9833 54.0651 72.1604 54.0511C72.4377 53.8106 72.5378 53.5842 72.6379 53.3578C72.6379 53.3578 72.6469 53.4017 72.824 53.3877C73.1013 53.1473 73.2013 52.9208 73.3014 52.6943C73.3014 52.6943 73.3104 52.7382 73.4877 52.7244C73.7649 52.484 73.8648 52.2574 73.9648 52.0308C73.9648 52.0308 73.9739 52.0747 74.1512 52.061C74.4285 51.8207 74.5283 51.594 74.6282 51.3673C74.6282 51.3673 74.6374 51.4112 74.8148 51.3977C75.092 51.1574 75.1918 50.9306 75.2915 50.7038C75.2915 50.7038 75.3009 50.7477 75.4784 50.7342C75.7556 50.494 75.8552 50.2671 75.9549 50.0402C75.9549 50.0402 75.9643 50.0841 76.1419 50.0708C76.4191 49.8305 76.5187 49.6035 76.6182 49.3765C76.6182 49.3765 76.6276 49.4204 76.8052 49.4071C77.0825 49.1668 77.182 48.9398 77.2816 48.7128C77.2816 48.7128 77.2909 48.7567 77.4686 48.7435C77.7459 48.5033 77.8455 48.2763 77.9452 48.0493C77.9452 48.0493 77.9544 48.0932 78.132 48.08C78.4094 47.8399 78.5092 47.6129 78.6089 47.3859C78.6089 47.3859 78.618 47.4299 78.7955 47.4164C79.0728 47.1761 79.1728 46.9493 79.2727 46.7226C79.2727 46.7226 79.2817 46.7665 79.4591 46.7529C79.7364 46.5125 79.8364 46.2858 79.9363 46.0591C79.9363 46.0591 79.9452 46.103 80.1226 46.0893C80.3999 45.8489 80.4999 45.6223 80.5999 45.3956C80.5999 45.3956 80.6088 45.4395 80.7861 45.4258C81.0634 45.1854 81.1634 44.9588 81.2634 44.7321C81.2634 44.7321 81.2723 44.776 81.4496 44.7624C81.7269 44.522 81.8269 44.2953 81.9268 44.0686C81.9268 44.0686 81.9358 44.1125 82.1132 44.099C82.3905 43.8586 82.4904 43.6319 82.5903 43.4051C82.5903 43.4051 82.5992 43.449 82.7767 43.4355C83.054 43.1952 83.1539 42.9684 83.2538 42.7416C83.2538 42.7416 83.2627 42.7855 83.4402 42.772C83.7175 42.5316 83.8174 42.3048 83.9173 42.078C83.9173 42.078 83.9262 42.122 84.1036 42.1084C84.3809 41.868 84.4809 41.6413 84.5808 41.4145C84.5808 41.4145 84.5897 41.4584 84.7671 41.4449C85.0444 41.2045 85.1443 40.9777 85.2442 40.7509C85.2442 40.7509 85.2531 40.7949 85.4306 40.7815C85.7079 40.5411 85.8077 40.3142 85.9075 40.0874C85.9075 40.0874 85.918 40.1317 86.1058 40.1426C86.4164 40.0863 86.5392 40.0191 86.8469 39.8693C87.7878 39.8897 88.5438 39.9928 89.2997 40.0959C89.2997 40.0959 89.257 40.1317 89.2364 40.328C89.4699 40.61 89.724 40.6957 89.9781 40.7814C89.9781 40.7814 89.9326 40.7884 89.9061 40.988C90.1337 41.2734 90.3876 41.3592 90.6416 41.445C90.6416 41.445 90.5961 41.4519 90.5698 41.6515C90.7973 41.9369 91.0512 42.0227 91.3051 42.1085C91.3051 42.1085 91.2596 42.1154 91.2333 42.315C91.4609 42.6004 91.7147 42.6862 91.9686 42.772C91.9686 42.772 91.9231 42.7789 91.8968 42.9785C92.1244 43.2639 92.3782 43.3497 92.6321 43.4356C92.6321 43.4356 92.5866 43.4425 92.5604 43.642C92.788 43.9274 93.0418 44.0132 93.2956 44.0991C93.2956 44.0991 93.2501 44.106 93.2239 44.3054C93.4516 44.5908 93.7053 44.6767 93.9591 44.7626C93.9591 44.7626 93.9136 44.7695 93.8875 44.9689C94.1152 45.2543 94.3689 45.3402 94.6226 45.4261C94.6226 45.4261 94.5771 45.433 94.551 45.6324C94.7787 45.9178 95.0324 46.0037 95.2861 46.0896C95.2861 46.0896 95.2352 46.1074 95.1473 46.2672C95.2971 46.7499 95.5348 47.0727 95.7725 47.3956C99.851 51.7119 103.929 56.0282 108.663 61.038C110.115 56.3139 111.298 52.4626 112.731 48.1918C112.847 43.6695 112.714 39.5666 112.581 35.4638C111 30.6492 109.397 25.8414 107.861 21.0126C107.636 20.3059 107.724 19.4996 107.756 18.36C107.846 17.9806 107.943 17.6855 107.943 17.6855C107.943 17.6855 108.085 17.5828 108.381 17.5601C108.832 17.3124 108.987 17.0876 109.141 16.8627C109.141 16.8627 109.14 16.9084 109.318 16.8959C109.595 16.6561 109.694 16.4288 109.794 16.2015C109.794 16.2015 109.803 16.2454 109.981 16.2328C110.258 15.9928 110.358 15.7654 110.457 15.538C110.457 15.538 110.466 15.5819 110.645 15.5699C110.922 15.3301 111.021 15.1023 111.12 14.8746C111.12 14.8746 111.13 14.9184 111.308 14.9065C111.586 14.6667 111.685 14.4389 111.784 14.2111C111.784 14.2111 111.793 14.255 111.972 14.243C112.249 14.0032 112.348 13.7754 112.447 13.5476C112.447 13.5476 112.457 13.5915 112.635 13.5794C112.913 13.3396 113.012 13.1119 113.111 12.8841C113.111 12.8841 113.12 12.928 113.299 12.9159C113.576 12.676 113.675 12.4483 113.774 12.2205C113.774 12.2205 113.784 12.2644 113.962 12.2524C114.24 12.0126 114.339 11.7848 114.438 11.557C114.438 11.557 114.447 11.6009 114.626 11.5891C114.903 11.3493 115.002 11.1214 115.101 10.8935C115.101 10.8935 115.111 10.9374 115.289 10.9259C115.567 10.6863 115.666 10.4582 115.764 10.2301C115.764 10.2301 115.774 10.2739 115.953 10.2627C116.231 10.0232 116.329 9.79491 116.428 9.56666C116.428 9.56666 116.442 9.61245 116.616 9.64509C117.09 9.43662 117.389 9.1955 117.688 8.95439C118.874 10.2016 120.367 11.274 121.195 12.7258C125.058 19.5042 127.488 26.6808 128.531 34.5507C130.775 51.4909 125.964 66.0371 114.972 79.218C114.622 79.6563 114.522 79.8227 114.464 80.0145C114.464 80.0145 114.47 79.968 114.291 79.975C114.016 80.2131 113.921 80.4444 113.826 80.6756C113.826 80.6756 113.811 80.6322 113.635 80.6471C113.359 80.8879 113.259 81.1138 113.159 81.3397C113.159 81.3397 113.148 81.2961 112.975 81.3161C112.698 81.5585 112.596 81.7809 112.493 82.0034C112.493 82.0034 112.484 81.9596 112.311 81.9795C112.035 82.222 111.932 82.4444 111.83 82.6669C111.83 82.6669 111.818 82.6228 111.563 82.6057C110.572 82.6055 109.836 82.6225 109.101 82.6394C109.101 82.6394 109.143 82.6227 109.121 82.4498C108.877 82.1738 108.655 82.0707 108.433 81.9675C108.433 81.9675 108.477 81.9594 108.456 81.7865C108.213 81.5104 107.991 81.4072 107.769 81.304C107.769 81.304 107.813 81.2959 107.792 81.123C107.55 80.8469 107.328 80.7437 107.106 80.6404C107.106 80.6404 107.15 80.6324 107.129 80.4596C106.886 80.1835 106.664 80.0803 106.442 79.977C106.442 79.977 106.486 79.969 106.465 79.7962C106.222 79.5201 106.001 79.4168 105.779 79.3135C105.779 79.3135 105.823 79.3056 105.802 79.1328C105.559 78.8567 105.337 78.7534 105.115 78.65C105.115 78.65 105.159 78.6421 105.138 78.4693C104.895 78.1932 104.674 78.0899 104.452 77.9866C104.452 77.9866 104.496 77.9786 104.475 77.8057C104.232 77.5296 104.01 77.4264 103.788 77.3231C103.788 77.3231 103.832 77.315 103.811 77.1421C103.569 76.866 103.347 76.7629 103.125 76.6597C103.125 76.6597 103.169 76.6515 103.148 76.4785C102.905 76.2025 102.683 76.0994 102.461 75.9963C102.461 75.9963 102.505 75.9881 102.485 75.815C102.242 75.5389 102.02 75.4359 101.798 75.3329C101.798 75.3329 101.842 75.3246 101.821 75.1515C101.578 74.8754 101.356 74.7724 101.134 74.6694C101.134 74.6694 101.178 74.6612 101.158 74.4881C100.915 74.2119 100.693 74.1089 100.471 74.0059C100.471 74.0059 100.514 73.9977 100.494 73.8246C100.251 73.5485 100.029 73.4455 99.8071 73.3425C99.8071 73.3425 99.8509 73.3342 99.8306 73.161C99.588 72.8849 99.3658 72.782 99.1435 72.679C99.1435 72.679 99.1874 72.6707 99.1672 72.4975C98.9246 72.2214 98.7023 72.1185 98.48 72.0157C98.48 72.0157 98.5239 72.0073 98.5037 71.834C98.2612 71.5578 98.0388 71.455 97.8164 71.3522C97.8164 71.3522 97.8603 71.3438 97.8402 71.1705C97.5977 70.8944 97.3753 70.7916 97.1529 70.6888C97.1529 70.6888 97.1968 70.6803 97.1767 70.5071C96.9341 70.2309 96.7118 70.1281 96.4894 70.0253C96.4894 70.0253 96.5333 70.0169 96.5131 69.8436C96.2705 69.5675 96.0482 69.4646 95.8258 69.3617C95.8258 69.3617 95.8698 69.3534 95.8495 69.1802C95.6069 68.904 95.3846 68.8011 95.1624 68.6981C95.1624 68.6981 95.2063 68.6898 95.1859 68.5167C94.9433 68.2406 94.7211 68.1376 94.4989 68.0345C94.4989 68.0345 94.5428 68.0263 94.5223 67.8533C94.2797 67.5771 94.0576 67.474 93.8355 67.3709C93.8355 67.3709 93.8794 67.3627 93.8587 67.1898C93.616 66.9136 93.3941 66.8104 93.1721 66.7072C93.1721 66.7072 93.216 66.6991 93.1952 66.5263C92.9524 66.2502 92.7306 66.1468 92.5087 66.0435C92.5087 66.0435 92.5526 66.0355 92.5317 65.8627C92.2889 65.5866 92.0671 65.4833 91.8452 65.38C91.8452 65.38 91.8892 65.372 91.8682 65.1992C91.6254 64.9231 91.4036 64.8198 91.1817 64.7165C91.1817 64.7165 91.2257 64.7085 91.2047 64.5357C90.9619 64.2596 90.7401 64.1563 90.5182 64.0529C90.5182 64.0529 90.5622 64.045 90.541 63.8723C90.2982 63.5962 90.0764 63.4928 89.8547 63.3893C89.8547 63.3893 89.8987 63.3815 89.8768 63.2093C89.6336 62.9332 89.4124 62.8293 89.1911 62.7255C89.1911 62.7255 89.2351 62.718 89.2129 62.546C88.9697 62.27 88.7486 62.1659 88.5275 62.0618C88.5275 62.0618 88.5717 62.0546 88.5466 61.8823C88.2988 61.6042 88.0761 61.4983 87.8534 61.3925C87.8534 61.3925 87.9063 61.3847 87.8814 61.3C87.7761 61.0903 87.6955 60.9654 87.615 60.8404C87.5498 60.98 87.4845 61.1196 87.4193 61.2592C85.6299 62.9355 83.8405 64.6119 82.0414 66.606C82.2446 67.0625 82.4573 67.2011 82.67 67.3397C82.67 67.3397 82.6227 67.3334 82.6385 67.5093C82.8811 67.7864 83.108 67.8877 83.3348 67.9889C83.3348 67.9889 83.291 67.9985 83.306 68.175C83.5468 68.4518 83.7726 68.552 83.9984 68.6522C83.9984 68.6522 83.9546 68.6619 83.9694 68.8385C84.2102 69.1153 84.4361 69.2154 84.6619 69.3155C84.6619 69.3155 84.6181 69.3254 84.6329 69.5021C84.8736 69.7788 85.0995 69.8789 85.3255 69.9789C85.3255 69.9789 85.2817 69.9889 85.2964 70.1655C85.537 70.4423 85.763 70.5423 85.989 70.6424C85.989 70.6424 85.9451 70.6523 85.9599 70.829C86.2006 71.1058 86.4265 71.2058 86.6525 71.3059C86.6525 71.3059 86.6087 71.3158 86.6235 71.4925C86.8642 71.7693 87.0901 71.8694 87.316 71.9694C87.316 71.9694 87.2722 71.9794 87.2871 72.1559C87.5279 72.4327 87.7537 72.5329 87.9796 72.6331C87.9796 72.6331 87.9357 72.6428 87.9509 72.8193C88.1917 73.0961 88.4174 73.1965 88.6431 73.2969C88.6431 73.2969 88.5992 73.3063 88.615 73.4823C88.8561 73.7592 89.0814 73.86 89.3067 73.9607C89.3067 73.9607 89.2628 73.9697 89.2791 74.1454C89.5204 74.4222 89.7454 74.5233 89.9703 74.6245C89.9703 74.6245 89.9263 74.6332 89.9427 74.8089C90.184 75.0857 90.4089 75.1868 90.6338 75.288C90.6338 75.288 90.5898 75.2967 90.6061 75.4724C90.8474 75.7492 91.0723 75.8504 91.2973 75.9515C91.2973 75.9515 91.2533 75.9602 91.2696 76.1359C91.5109 76.4127 91.7358 76.5139 91.9607 76.6151C91.9607 76.6151 91.9167 76.6238 91.9331 76.7994C92.1743 77.0763 92.3991 77.1776 92.6239 77.2789C92.6239 77.2789 92.5799 77.2876 92.5965 77.463C92.8378 77.7398 93.0625 77.8412 93.2872 77.9426C93.2872 77.9426 93.2433 77.9513 93.26 78.1267C93.5013 78.4035 93.7259 78.5049 93.9506 78.6062C93.9506 78.6062 93.9067 78.6149 93.9235 78.7902C94.1649 79.067 94.3895 79.1684 94.614 79.2698C94.614 79.2698 94.5701 79.2784 94.5871 79.4537C94.8286 79.7305 95.0531 79.832 95.2776 79.9334C95.2776 79.9334 95.2336 79.9419 95.2508 80.1171C95.4923 80.3939 95.7167 80.4955 95.9411 80.5971C95.9411 80.5971 95.8971 80.6054 95.9145 80.7804C96.1561 81.0573 96.3804 81.159 96.6046 81.2608C96.6046 81.2608 96.5606 81.2689 96.5782 81.4438C96.82 81.7206 97.0441 81.8225 97.2682 81.9245C97.2682 81.9245 97.2241 81.9324 97.2424 82.1068C97.4843 82.3836 97.7081 82.4859 97.9318 82.5883C97.9318 82.5883 97.8877 82.5959 97.906 82.7703C98.1479 83.0471 98.3716 83.1494 98.5953 83.2518C98.5953 83.2518 98.5512 83.2594 98.5694 83.4338C98.8114 83.7105 99.0351 83.8129 99.2588 83.9153C99.2588 83.9153 99.2147 83.9229 99.2329 84.0973C99.4748 84.3741 99.6986 84.4764 99.9223 84.5787C99.9223 84.5787 99.8782 84.5864 99.8958 84.7612C100.138 85.038 100.362 85.14 100.586 85.2419C100.586 85.2419 100.542 85.2498 100.559 85.4247C100.801 85.7015 101.025 85.8035 101.249 85.9054C101.249 85.9054 101.205 85.9133 101.223 86.0882C101.465 86.365 101.689 86.467 101.913 86.5689C101.913 86.5689 101.869 86.5768 101.887 86.7513C102.129 87.0281 102.353 87.1304 102.576 87.2326C102.576 87.2326 102.532 87.2403 102.55 87.4148C102.792 87.6916 103.016 87.7939 103.24 87.8962C103.24 87.8962 103.196 87.9037 103.214 88.0782C103.456 88.355 103.68 88.4574 103.903 88.5597C103.903 88.5597 103.859 88.5672 103.878 88.7417C104.119 89.0185 104.343 89.1209 104.567 89.2232C104.567 89.2232 104.523 89.2307 104.541 89.4052C104.783 89.682 105.007 89.7844 105.23 89.8868C105.23 89.8868 105.186 89.8943 105.205 90.0686C105.447 90.3454 105.67 90.4479 105.894 90.5504C105.894 90.5504 105.85 90.5578 105.868 90.732C106.11 91.0089 106.334 91.1116 106.557 91.2143C106.557 91.2143 106.513 91.2214 106.532 91.3953C106.775 91.6721 106.998 91.7751 107.221 91.8781C107.221 91.8781 107.176 91.8851 107.196 92.0588C107.438 92.3356 107.661 92.4387 107.884 92.5418C107.884 92.5418 107.84 92.5486 107.86 92.7219C108.102 92.9987 108.325 93.1021 108.548 93.2056C108.548 93.2056 108.504 93.2133 108.512 93.3862C108.7 93.7431 108.878 93.927 109.057 94.111C110.393 93.5062 112.031 93.2075 113.011 92.2416C116.535 88.77 120.112 85.289 123.159 81.4106C127.739 75.5799 130.673 68.8889 133.272 61.8809C136.079 54.3104 136.381 46.7086 136.606 38.4145C136.23 34.0068 135.597 30.1021 134.965 26.1974C134.965 26.1974 135.013 26.2145 135.095 25.9983C134.723 24.8416 134.269 23.9011 133.816 22.9606C132.136 16.2538 129.297 10.0951 125.402 4.36777C124.805 3.48879 125.305 1.86295 125.298 0.582522C126.225 0.941416 127.637 1.03415 128.003 1.70078C131.29 7.70167 134.903 13.6004 137.423 19.9264C140.617 27.9443 141.412 36.5812 140.95 45.179C140.423 54.9918 138.025 64.2983 133.227 73.082C129.561 79.7939 125.375 85.9992 119.954 91.3132C116.799 94.4058 113.208 97.0543 109.605 100.078C98.7663 89.2162 88.1084 78.5351 77.3953 67.3814C77.3173 66.3739 77.2943 65.839 77.2714 65.3042C77.2714 65.3042 77.2905 65.347 77.474 65.3423C77.7529 65.1036 77.8482 64.8695 77.9435 64.6355C77.9435 64.6355 77.9532 64.6796 78.1372 64.677C78.4164 64.4402 78.5117 64.2061 78.6069 63.972C78.6069 63.972 78.6167 64.0161 78.8007 64.0136C79.08 63.7768 79.1751 63.5427 79.2703 63.3085C79.2703 63.3085 79.2802 63.3526 79.4643 63.3502C79.7435 63.1135 79.8386 62.8792 79.9337 62.645C79.9337 62.645 79.9437 62.6891 80.1279 62.6868C80.4071 62.4502 80.5021 62.2158 80.5971 61.9814C80.5971 61.9814 80.6072 62.0256 80.7914 62.0234C81.0706 61.7868 81.1656 61.5524 81.2605 61.3179C81.2605 61.3179 81.2707 61.3621 81.455 61.36C81.7342 61.1234 81.829 60.8889 81.9239 60.6544C81.9239 60.6544 81.9342 60.6986 82.1185 60.6966C82.3977 60.4601 82.4925 60.2255 82.5873 59.9909C82.5873 59.9909 82.5976 60.035 82.782 60.0331C83.0612 59.7966 83.156 59.562 83.2508 59.3274C83.2508 59.3274 83.2611 59.3715 83.4455 59.3696C83.7248 59.1331 83.8196 58.8985 83.9145 58.6639C83.9145 58.6639 83.9246 58.708 84.1088 58.7057C84.388 58.469 84.4832 58.2347 84.5782 58.0004C84.5782 58.0004 84.5881 58.0446 84.7724 58.0424C85.0517 57.8058 85.1466 57.5714 85.2416 57.3369C85.2416 57.3369 85.2517 57.3811 85.4361 57.3791C85.7153 57.1426 85.8101 56.9081 85.9049 56.6735C85.9049 56.6735 85.9176 56.7177 86.1062 56.7318C86.492 56.5509 86.6891 56.356 86.8862 56.1611C87.4054 56.2001 88.1382 56.0293 88.4125 56.3087C95.0443 63.0648 101.653 69.844 108.197 76.6849C109.53 78.0776 110.641 78.5006 111.952 76.8187C117.148 70.1531 121.341 62.9842 123.368 54.2434C124.247 51.1421 125.159 48.4134 125.385 45.6291C125.904 39.2411 125.674 32.8794 123.025 26.8583C123.025 26.8583 123.076 26.8757 123.123 26.6991C122.957 26.1934 122.744 25.8643 122.531 25.5352C121.294 22.4709 120.058 19.4063 118.82 16.3423C118.158 14.7048 117.347 14.535 115.938 15.7416C112.048 19.0719 111.956 19.6686 113.787 24.2652C118.97 37.2741 118.468 50.0962 112.211 62.6595C112.02 63.0418 111.857 63.4375 111.251 63.9976C110.498 64.8046 110.176 65.441 109.853 66.0774C109.853 66.0774 109.828 66.0232 109.656 65.9652C109.357 65.9614 109.23 66.0155 109.102 66.0697C109.102 66.0697 109.143 66.0223 109.171 65.822C108.722 65.3217 108.245 65.0219 107.769 64.7221C107.769 64.7221 107.813 64.7106 107.807 64.5281C107.568 64.2485 107.336 64.1514 107.104 64.0543C107.104 64.0543 107.148 64.0468 107.142 63.8645C106.905 63.585 106.672 63.4878 106.44 63.3906C106.44 63.3906 106.485 63.3832 106.479 63.201C106.241 62.9215 106.009 62.8243 105.777 62.727C105.777 62.727 105.821 62.7197 105.815 62.5375C105.577 62.258 105.345 62.1608 105.113 62.0635C105.113 62.0635 105.158 62.0561 105.152 61.874C104.914 61.5945 104.682 61.4973 104.45 61.4C104.45 61.4 104.494 61.3927 104.488 61.2104C104.251 60.931 104.018 60.8338 103.786 60.7366C103.786 60.7366 103.831 60.7292 103.825 60.5469C103.587 60.2674 103.355 60.1703 103.123 60.0733C103.123 60.0733 103.167 60.0657 103.162 59.8833C102.924 59.6039 102.692 59.5069 102.459 59.4099C102.459 59.4099 102.503 59.4022 102.498 59.2197C102.261 58.9403 102.028 58.8434 101.796 58.7465C101.796 58.7465 101.84 58.7388 101.835 58.5562C101.597 58.2768 101.365 58.1799 101.132 58.0831C101.132 58.0831 101.176 58.0753 101.171 57.8927C100.934 57.6133 100.701 57.5164 100.469 57.4196C100.469 57.4196 100.513 57.4118 100.508 57.2293C100.27 56.9499 100.037 56.8528 99.805 56.7558C99.805 56.7558 99.8494 56.7483 99.8435 56.5662C99.6056 56.2868 99.3735 56.1894 99.1414 56.092C99.1414 56.092 99.1859 56.0848 99.1799 55.9028C98.9419 55.6233 98.7099 55.5259 98.4779 55.4285C98.4779 55.4285 98.5224 55.4213 98.5165 55.2392C98.2786 54.9599 98.0465 54.8626 97.8144 54.7652C97.8144 54.7652 97.8589 54.7578 97.8537 54.5753C97.616 54.296 97.3835 54.199 97.151 54.1021C97.151 54.1021 97.1953 54.0944 97.1903 53.9118C96.9527 53.6324 96.7201 53.5355 96.4875 53.4387C96.4875 53.4387 96.5318 53.4309 96.5268 53.2482C96.2892 52.9688 96.0566 52.872 95.824 52.7753C95.824 52.7753 95.8683 52.7674 95.8634 52.5847C95.6258 52.3053 95.3931 52.2085 95.1605 52.1118C95.1605 52.1118 95.2048 52.1039 95.1998 51.9212C94.9622 51.6418 94.7296 51.545 94.497 51.4482C94.497 51.4482 94.5413 51.4404 94.5363 51.2577C94.2987 50.9783 94.0661 50.8815 93.8335 50.7847C93.8335 50.7847 93.8779 50.7768 93.8727 50.5943C93.635 50.3149 93.4025 50.218 93.17 50.1211C93.17 50.1211 93.2144 50.1133 93.209 49.9309C92.9713 49.6515 92.7389 49.5544 92.5065 49.4573C92.5065 49.4573 92.5509 49.4498 92.5451 49.2676C92.3073 48.9882 92.0751 48.8909 91.843 48.7935C91.843 48.7935 91.8875 48.7862 91.8815 48.6042C91.6436 48.3248 91.4116 48.2273 91.1796 48.1299C91.1796 48.1299 91.224 48.1227 91.2179 47.9407C90.9799 47.6613 90.748 47.5638 90.5161 47.4663C90.5161 47.4663 90.5606 47.4591 90.5544 47.2772C90.3164 46.9978 90.0845 46.9003 89.8527 46.8028C89.8527 46.8028 89.8971 46.7956 89.891 46.6137C89.653 46.3343 89.4212 46.2368 89.1893 46.1393C89.1893 46.1393 89.2337 46.132 89.228 45.9499C88.9902 45.6704 88.758 45.5732 88.5259 45.4759C88.5259 45.4759 88.5703 45.4684 88.5644 45.2863C88.3264 45.0069 88.0943 44.9096 87.8622 44.8123C87.8622 44.8123 87.9081 44.807 87.8758 44.6233C87.4356 44.5831 87.0277 44.7266 86.6197 44.8701C75.2896 56.2809 63.9604 67.6927 52.6284 79.1017C50.6096 81.1344 48.5795 83.1559 46.1371 85.3466C45.6488 85.8881 45.5779 86.2657 45.5071 86.6432C45.5071 86.6432 45.4716 86.5994 45.2689 86.5667C44.9853 86.7964 44.9043 87.0586 44.8234 87.3209C44.8234 87.3209 44.8151 87.2754 44.6088 87.2363C44.3217 87.4596 44.2408 87.722 44.1599 87.9844C44.1599 87.9844 44.1516 87.9389 43.9453 87.8997C43.6582 88.1229 43.5773 88.3854 43.4964 88.6479C43.4964 88.6479 43.4881 88.6024 43.2818 88.5632C42.9947 88.7864 42.9138 89.0489 42.8329 89.3114C42.8329 89.3114 42.8246 89.2659 42.6184 89.2267C42.3312 89.4499 42.2503 89.7124 42.1694 89.9749C42.1694 89.9749 42.1611 89.9294 41.9549 89.8902C41.6677 90.1135 41.5868 90.3759 41.5059 90.6384C41.5059 90.6384 41.4976 90.5929 41.2914 90.5537C41.0042 90.777 40.9233 91.0394 40.8424 91.3019C40.8424 91.3019 40.8341 91.2564 40.6278 91.2172C40.3407 91.4404 40.2598 91.7029 40.1788 91.9653C40.1788 91.9653 40.1705 91.9199 39.9643 91.8807C39.6772 92.1039 39.5962 92.3663 39.5153 92.6288C39.5153 92.6288 39.507 92.5833 39.3008 92.5442C39.0137 92.7675 38.9327 93.0299 38.8517 93.2922C38.8517 93.2922 38.8435 93.2468 38.6374 93.2078C38.3502 93.4311 38.2692 93.6934 38.1881 93.9557C38.1881 93.9557 38.1799 93.9103 37.9739 93.8715C37.6868 94.0948 37.6057 94.357 37.5246 94.6192C37.5246 94.6192 37.5164 94.5738 37.3104 94.5351C37.0233 94.7584 36.9422 95.0206 36.8611 95.2827C36.8611 95.2827 36.8529 95.2373 36.6469 95.1986C36.3598 95.422 36.2787 95.6841 36.1976 95.9462C36.1976 95.9462 36.1894 95.9008 35.9834 95.8621C35.6963 96.0854 35.6152 96.3476 35.5341 96.6097C35.5341 96.6097 35.5259 96.5643 35.32 96.5256C35.0328 96.749 34.9517 97.0111 34.8705 97.2732C34.8705 97.2732 34.8624 97.2278 34.6566 97.1892C34.3695 97.4127 34.2882 97.6747 34.2069 97.9367C34.2069 97.9367 34.1989 97.8913 33.9932 97.8529C33.7061 98.0765 33.6247 98.3384 33.5434 98.6003C33.5434 98.6003 33.5229 98.5486 33.3495 98.4428C32.1685 98.421 31.1609 98.505 30.1532 98.589C18.6581 90.9251 10.8201 80.1243 5.37627 67.7791C2.84057 62.0288 2.26639 55.3802 1.06723 49.0885C0.500644 46.1156 0.317547 43.0199 0.373666 39.9876C0.541829 30.9012 1.92574 22.0359 6.22338 13.8681C8.37974 9.76978 10.6504 5.72968 12.9685 1.72055C13.328 1.09881 14.2198 0.784827 15.2181 0.546875C15.8206 0.835053 16.0705 0.904883 16.3204 0.974709C16.3204 0.974709 16.2766 0.983996 16.2865 1.16412C16.5262 1.44331 16.756 1.54237 16.9858 1.64143C16.9858 1.64143 16.9412 1.64799 16.9514 1.82731C17.1908 2.10621 17.4201 2.2058 17.6493 2.30539C17.6493 2.30539 17.6047 2.31158 17.6151 2.49072C17.8547 2.76957 18.0838 2.86927 18.3129 2.96896C18.3129 2.96896 18.2682 2.97505 18.2792 3.15381C18.5191 3.43261 18.7478 3.53263 18.9766 3.63265C18.9766 3.63265 18.9318 3.63851 18.9429 3.8172C19.1827 4.09598 19.4114 4.19607 19.6401 4.29615C19.6401 4.29615 19.5953 4.30196 19.6066 4.48058C19.8464 4.75935 20.0751 4.85952 20.3037 4.95968C20.3037 4.95968 20.2588 4.96545 20.2701 5.14402C20.51 5.42279 20.7386 5.523 20.9672 5.62321C20.9672 5.62321 20.9223 5.62894 20.9336 5.80754C21.1735 6.08632 21.4021 6.18649 21.6307 6.28667C21.6307 6.28667 21.5858 6.29246 21.5969 6.47116C21.8367 6.74994 22.0654 6.85001 22.2941 6.95008C22.2941 6.95008 22.2494 6.95598 22.2598 7.13511C22.4993 7.41393 22.7284 7.51361 22.9575 7.6133C22.9575 7.6133 22.9128 7.61947 22.9231 7.79871C23.1626 8.07754 23.3918 8.17714 23.621 8.27673C23.621 8.27673 23.5763 8.28297 23.5865 8.46229C23.8259 8.74113 24.0552 8.84065 24.2845 8.94017C24.2845 8.94017 24.2398 8.94647 24.2499 9.12585C24.4893 9.40469 24.7186 9.50416 24.948 9.60362C24.948 9.60362 24.9038 9.61366 24.8602 9.89119C24.8262 10.9742 24.8356 11.7797 24.8451 12.5852C24.8451 12.5852 24.8876 12.6114 24.6444 12.6937C24.3556 13.0704 24.3101 13.3648 24.2646 13.6592C24.2646 13.6592 24.2372 13.6147 24.0562 13.6178C23.7768 13.8562 23.6785 14.0915 23.5802 14.3268C23.5802 14.3268 23.5706 14.2726 23.3762 14.3826C23.0711 14.9611 22.9604 15.4295 22.8497 15.898C22.8497 15.898 22.8966 15.9276 22.6697 16.026C22.3821 16.4093 22.3213 16.6941 22.2605 16.979C22.2605 16.979 22.2524 16.9332 22.061 16.9981C21.7811 17.4761 21.6925 17.8892 21.6039 18.3023C21.6039 18.3023 21.5898 18.2591 21.402 18.3289C21.1222 18.809 21.0301 19.2193 20.938 19.6296C20.938 19.6296 20.925 19.5852 20.8204 19.6345C20.6537 19.7521 20.5259 19.8464 20.5409 19.8839C20.6062 20.0482 20.7129 20.1959 20.8046 20.3497C19.5166 25.5031 17.8685 30.5974 17.0113 35.8215C14.8457 49.019 18.8275 60.9132 25.6154 72.0308C26.9533 74.2222 28.8166 76.093 30.7164 78.4586C45.9215 63.2413 60.8685 48.2823 75.9055 32.9929C75.7501 32.5078 75.5047 32.3531 75.2593 32.1985C75.2593 32.1985 75.305 32.1979 75.2953 32.0173C75.0546 31.7386 74.8235 31.6406 74.5924 31.5425C74.5924 31.5425 74.6368 31.5349 74.6287 31.3541C74.3901 31.0753 74.1595 30.9772 73.9289 30.879C73.9289 30.879 73.9732 30.8714 73.9652 30.6907C73.7266 30.4118 73.496 30.3136 73.2654 30.2155C73.2654 30.2155 73.3097 30.208 73.3013 30.0275C73.0625 29.7486 72.8322 29.6501 72.6018 29.5517C72.6018 29.5517 72.6462 29.5444 72.6376 29.3641C72.3988 29.0852 72.1686 28.9865 71.9385 28.8879C71.9385 28.8879 71.9829 28.8807 71.9739 28.7006C71.735 28.4217 71.505 28.323 71.275 28.2242C71.275 28.2242 71.3197 28.2169 71.3424 28.0445C70.9223 28.0013 70.4796 28.1304 70.0368 28.2595C70.0368 28.2595 70.0213 28.2169 69.8412 28.2259C69.5625 28.4649 69.4639 28.695 69.3653 28.9251C69.3653 28.9251 69.3581 28.8807 69.1779 28.8895C68.899 29.1284 68.8004 29.3585 68.7017 29.5886C68.7017 29.5886 68.6946 29.5442 68.5144 29.5531C68.2355 29.792 68.1369 30.0221 68.0382 30.2521C68.0382 30.2521 68.0311 30.2077 67.8509 30.2166C67.5721 30.4556 67.4733 30.6856 67.3746 30.9156C67.3746 30.9156 67.3676 30.8712 67.1874 30.8801C66.9086 31.1191 66.8099 31.3491 66.7112 31.5791C66.7112 31.5791 66.7041 31.5347 66.5239 31.5435C66.245 31.7825 66.1464 32.0126 66.0478 32.2427C66.0478 32.2427 66.0406 32.1982 65.8602 32.2068C65.5814 32.4456 65.4829 32.6759 65.3845 32.9062C65.3845 32.9062 65.3772 32.8618 65.1964 32.8697C64.9175 33.1083 64.8195 33.339 64.7214 33.5697C64.7214 33.5697 64.7138 33.5254 64.5329 33.5331C64.254 33.7716 64.156 34.0025 64.0581 34.2333C64.0581 34.2333 64.0504 34.189 63.8694 34.1966C63.5905 34.4351 63.4925 34.666 63.3946 34.8968C63.3946 34.8968 63.3869 34.8525 63.206 34.8602C62.927 35.0987 62.8289 35.3294 62.7308 35.5602C62.7308 35.5602 62.7233 35.5158 62.5429 35.5244C62.264 35.7633 62.1654 35.9935 62.0668 36.2237C62.0668 36.2237 62.0597 36.1793 61.8793 36.1879C61.6004 36.4268 61.5019 36.657 61.4033 36.8872C61.4033 36.8872 61.3961 36.8427 61.2157 36.8513C60.9369 37.0901 60.8384 37.3204 60.7399 37.5507C60.7399 37.5507 60.7326 37.5063 60.5518 37.5142C60.273 37.7528 60.1749 37.9835 60.0768 38.2142C60.0768 38.2141 60.0692 38.1698 59.8882 38.1774C59.6093 38.4158 59.5115 38.6468 59.4137 38.8777C59.4137 38.8777 59.4058 38.8334 59.2241 38.8401C58.9452 39.0783 58.848 39.3097 58.7507 39.5412C58.7507 39.5412 58.7424 39.497 58.5606 39.5035C58.2817 39.7416 58.1845 39.9731 58.0873 40.2047C58.0873 40.2047 58.0789 40.1605 57.8971 40.167C57.6182 40.405 57.521 40.6366 57.4238 40.8682C57.4238 40.8682 57.4154 40.824 57.2336 40.8305C56.9547 41.0685 56.8575 41.3001 56.7604 41.5317C56.7604 41.5317 56.7519 41.4875 56.5701 41.4939C56.2911 41.7319 56.1941 41.9636 56.0971 42.1953C56.0971 42.1953 56.0885 42.1511 55.9065 42.1573C55.6276 42.3953 55.5307 42.6271 55.4337 42.8588C55.4337 42.8588 55.425 42.8146 55.243 42.8208C54.9641 43.0587 54.8672 43.2905 54.7703 43.5223C54.7703 43.5223 54.7616 43.4782 54.5795 43.4842C54.3006 43.7221 54.2037 43.954 54.1068 44.1858C54.1068 44.1858 54.0981 44.1417 53.916 44.1477C53.6371 44.3856 53.5402 44.6175 53.4433 44.8493C53.4433 44.8493 53.4345 44.8051 53.2525 44.8112C52.9736 45.0491 52.8767 45.281 52.7798 45.5128C52.7798 45.5128 52.771 45.4686 52.589 45.4747C52.31 45.7126 52.2131 45.9445 52.1162 46.1763C52.1163 46.1763 52.1075 46.1321 51.9255 46.1382C51.6465 46.3761 51.5497 46.608 51.4528 46.8398C51.4528 46.8398 51.444 46.7956 51.262 46.8017C50.983 47.0396 50.8862 47.2715 50.7893 47.5033C50.7893 47.5033 50.7805 47.4591 50.5985 47.4652C50.3195 47.7031 50.2226 47.9349 50.1257 48.1668C50.1257 48.1668 50.117 48.1226 49.935 48.1287C49.656 48.3666 49.5591 48.5985 49.4622 48.8303C49.4622 48.8303 49.4535 48.7861 49.2715 48.7923C48.9925 49.0302 48.8955 49.262 48.7985 49.4938C48.7985 49.4938 48.79 49.4496 48.608 49.4559C48.329 49.6938 48.232 49.9255 48.1349 50.1573C48.1349 50.1573 48.1265 50.1131 47.9446 50.1194C47.6656 50.3574 47.5685 50.5891 47.4714 50.8208C47.4714 50.8208 47.4629 50.7765 47.2811 50.7829C47.0021 51.021 46.9049 51.2526 46.8078 51.4842C46.8078 51.4842 46.7994 51.44 46.6176 51.4464C46.3386 51.6845 46.2414 51.9161 46.1443 52.1477C46.1443 52.1477 46.1359 52.1035 45.954 52.1099C45.6751 52.3479 45.5779 52.5796 45.4807 52.8112C45.4807 52.8112 45.4724 52.767 45.2905 52.7734C45.0115 53.0114 44.9144 53.2431 44.8172 53.4747C44.8172 53.4747 44.8089 53.4305 44.627 53.4369C44.348 53.6749 44.2509 53.9066 44.1537 54.1382C44.1537 54.1382 44.1453 54.094 43.9635 54.1004C43.6845 54.3385 43.5873 54.5701 43.4901 54.8017C43.4901 54.8017 43.4818 54.7575 43.3001 54.764C43.0211 55.002 42.9238 55.2336 42.8266 55.4652C42.8266 55.4652 42.8183 55.421 42.6365 55.4274C42.3575 55.6655 42.2604 55.8971 42.1632 56.1287C42.1632 56.1287 42.1548 56.0845 41.973 56.0908C41.694 56.3288 41.5969 56.5605 41.4998 56.7922C41.4998 56.7922 41.4913 56.748 41.3094 56.7541C41.0304 56.9921 40.9335 57.2238 40.8366 57.4556C40.8366 57.4556 40.8278 57.4115 40.6454 57.4169C40.3665 57.6545 40.27 57.8868 40.1735 58.119C40.1735 58.119 40.1643 58.0749 39.9818 58.0802C39.7029 58.3178 39.6065 58.5501 39.5101 58.7825C39.5101 58.7825 39.5008 58.7384 39.3182 58.7436C39.0393 58.9812 38.943 59.2136 38.8466 59.4459C38.8466 59.4459 38.8372 59.4019 38.6547 59.4071C38.3758 59.6447 38.2795 59.8771 38.1831 60.1095C38.1831 60.1095 38.1738 60.0654 37.9912 60.0706C37.7123 60.3081 37.616 60.5406 37.5197 60.773C37.5197 60.773 37.5103 60.729 37.3276 60.734C37.0487 60.9715 36.9525 61.204 36.8563 61.4365C36.8563 61.4365 36.8468 61.3925 36.6641 61.3974C36.3852 61.6349 36.289 61.8675 36.1928 62.1C36.1928 62.1 36.1833 62.056 36.0006 62.0609C35.7217 62.2984 35.6255 62.5309 35.5293 62.7635C35.5293 62.7635 35.5198 62.7195 35.3371 62.7244C35.0582 62.9619 34.962 63.1945 34.8657 63.427C34.8657 63.427 34.8563 63.383 34.6736 63.388C34.3947 63.6256 34.2984 63.858 34.2021 64.0905C34.2021 64.0905 34.1928 64.0465 34.0102 64.0517C33.7313 64.2892 33.6349 64.5216 33.5386 64.754C33.5386 64.754 33.5278 64.7099 33.3182 64.6961C32.8111 65.1469 32.5136 65.6116 32.216 66.0762C32.216 66.0762 32.1972 66.0318 32.0266 65.9992C31.7278 65.9951 31.5997 66.0236 31.4715 66.052C31.4715 66.052 31.5137 66.0314 31.5413 65.8281C31.0719 65.0931 30.5749 64.5615 30.0779 64.0298C24.3313 54.6411 22.8198 44.3933 24.9205 33.8005C26.0041 28.3365 28.4524 23.1431 30.7352 17.7624C32.2042 18.0921 33.2221 18.4869 34.24 18.8817C34.24 18.8817 34.1925 18.9066 34.1049 19.134C34.054 19.5377 34.0907 19.714 34.1274 19.8904C34.1274 19.8904 34.1687 19.8992 33.9135 19.9781C33.4005 20.7998 33.1427 21.5426 32.8849 22.2854C32.8849 22.2854 32.8727 22.2411 32.6714 22.2937C32.3871 22.7685 32.3041 23.1908 32.2211 23.613C32.2211 23.613 32.2093 23.5684 32.0116 23.6219C31.7263 24.0969 31.6388 24.5183 31.5512 24.9397C31.5512 24.9397 31.5374 24.8883 31.3443 24.9937C31.0687 25.708 30.986 26.3169 30.9034 26.9257C30.9034 26.9257 30.8824 26.8849 30.7044 26.923C30.487 27.3487 30.4475 27.7365 30.408 28.1242C29.6715 31.8002 28.6083 35.4466 28.2714 39.159C27.6979 45.4788 29.0805 51.5857 31.2839 57.8524C31.5528 58.5054 31.8485 58.805 32.1441 59.1046C32.1441 59.1046 32.1729 59.0907 32.2132 59.2743C32.4484 59.4101 32.6432 59.3623 32.838 59.3145C32.838 59.3145 32.8371 59.3653 33.0333 59.3908C33.3154 59.1633 33.4012 58.9103 33.4871 58.6573C33.4871 58.6573 33.4936 58.7029 33.6924 58.7278C33.9778 58.4997 34.0642 58.2467 34.1507 57.9938C34.1507 57.9938 34.1571 58.0394 34.356 58.0643C34.6413 57.8363 34.7277 57.5833 34.8142 57.3302C34.8142 57.3302 34.8206 57.3759 35.0195 57.4009C35.3048 57.1728 35.3912 56.9198 35.4776 56.6667C35.4776 56.6667 35.4841 56.7124 35.683 56.7374C35.9683 56.5094 36.0547 56.2563 36.1411 56.0033C36.1411 56.0033 36.1476 56.0489 36.3466 56.074C36.6319 55.846 36.7183 55.5929 36.8046 55.3398C36.8046 55.3398 36.8111 55.3854 37.0101 55.4106C37.2954 55.1826 37.3818 54.9294 37.4681 54.6763C37.4681 54.6763 37.4746 54.7219 37.6736 54.7471C37.9589 54.5191 38.0453 54.266 38.1316 54.0128C38.1316 54.0128 38.1381 54.0584 38.3371 54.0836C38.6224 53.8556 38.7088 53.6024 38.7951 53.3493C38.7951 53.3493 38.8016 53.3949 39.0006 53.4201C39.2859 53.1921 39.3722 52.9389 39.4586 52.6858C39.4586 52.6858 39.4651 52.7314 39.6641 52.7566C39.9495 52.5287 40.0357 52.2755 40.122 52.0223C40.122 52.0223 40.1286 52.0679 40.3277 52.0933C40.6131 51.8654 40.6993 51.6121 40.7855 51.3588C40.7855 51.3588 40.7921 51.4044 40.9916 51.4304C41.277 51.2028 41.3629 50.9491 41.4488 50.6954C41.4487 50.6954 41.4556 50.7409 41.6552 50.7671C41.9406 50.5395 42.0264 50.2857 42.1122 50.0319C42.1122 50.0319 42.1191 50.0774 42.3188 50.1037C42.6041 49.8762 42.6899 49.6223 42.7757 49.3684C42.7757 49.3684 42.7826 49.4139 42.9822 49.4403C43.2676 49.2127 43.3534 48.9588 43.4392 48.7049C43.4392 48.7049 43.4461 48.7504 43.6457 48.7767C43.9311 48.5492 44.0169 48.2953 44.1027 48.0414C44.1027 48.0414 44.1096 48.0869 44.3092 48.1132C44.5946 47.8856 44.6804 47.6317 44.7663 47.3779C44.7663 47.3779 44.7731 47.4234 44.9726 47.4496C45.258 47.222 45.3439 46.9682 45.4298 46.7144C45.4298 46.7144 45.4366 46.7599 45.6361 46.7861C45.9215 46.5584 46.0074 46.3046 46.0933 46.0509C46.0933 46.0509 46.1001 46.0964 46.2996 46.1225C46.585 45.8949 46.6709 45.6411 46.7568 45.3874C46.7568 45.3874 46.7636 45.4329 46.9631 45.4591C47.2485 45.2314 47.3344 44.9776 47.4203 44.7239C47.4203 44.7239 47.4271 44.7694 47.6267 44.7956C47.912 44.568 47.9979 44.3142 48.0838 44.0604C48.0838 44.0604 48.0907 44.1059 48.2902 44.1321C48.5756 43.9045 48.6614 43.6507 48.7473 43.3969C48.7473 43.3969 48.7542 43.4424 48.9537 43.4687C49.2391 43.2411 49.3249 42.9872 49.4107 42.7334C49.4107 42.7334 49.4177 42.7789 49.6172 42.8052C49.9026 42.5776 49.9884 42.3238 50.0742 42.0699C50.0742 42.0699 50.0812 42.1154 50.2807 42.1417C50.5661 41.9141 50.6519 41.6603 50.7378 41.4064C50.7378 41.4064 50.7447 41.4519 50.9442 41.4782C51.2296 41.2506 51.3154 40.9967 51.4013 40.7429C51.4013 40.7429 51.4082 40.7884 51.6077 40.8146C51.8931 40.5871 51.9789 40.3332 52.0648 40.0794C52.0648 40.0794 52.0717 40.1249 52.2712 40.1511C52.5566 39.9236 52.6425 39.6697 52.7283 39.4159C52.7283 39.4159 52.7352 39.4614 52.9348 39.4877C53.2202 39.2601 53.306 39.0063 53.3917 38.7524C53.3917 38.7524 53.3987 38.7979 53.5984 38.8243C53.8838 38.5968 53.9695 38.3429 54.0552 38.0889C54.0552 38.0889 54.0622 38.1344 54.262 38.161C54.5474 37.9335 54.633 37.6795 54.7187 37.4255C54.7187 37.4255 54.7257 37.471 54.9255 37.4976C55.2109 37.2702 55.2965 37.0161 55.3821 36.762C55.3821 36.762 55.3892 36.8075 55.5891 36.8343C55.8745 36.6069 55.96 36.3527 56.0456 36.0985C56.0456 36.0985 56.0527 36.144 56.2527 36.1709C56.5381 35.9435 56.6236 35.6893 56.709 35.435C56.709 35.435 56.7163 35.4805 56.9162 35.5075C57.2017 35.2802 57.2871 35.0259 57.3725 34.7715C57.3725 34.7715 57.3798 34.817 57.5798 34.8441C57.8652 34.6169 57.9506 34.3625 58.036 34.108C58.036 34.108 58.0433 34.1535 58.2434 34.1808C58.5288 33.9535 58.6141 33.699 58.6994 33.4446C58.6994 33.4446 58.7068 33.49 58.9069 33.5173C59.1923 33.2901 59.2776 33.0356 59.3629 32.7811C59.3629 32.7811 59.3703 32.8265 59.5705 32.8539C59.8559 32.6267 59.9411 32.3722 60.0264 32.1176C60.0264 32.1176 60.0338 32.163 60.234 32.1905C60.5195 31.9634 60.6047 31.7087 60.6898 31.4541C60.6898 31.4541 60.6973 31.4995 60.8976 31.5271C61.1831 31.3 61.2682 31.0453 61.3533 30.7906C61.3533 30.7906 61.3608 30.836 61.5613 30.8638C61.8467 30.6368 61.9317 30.3819 62.0166 30.1271C62.0166 30.1271 62.0243 30.1725 62.2252 30.2011C62.5106 29.9743 62.5953 29.719 62.6799 29.4637C62.6799 29.4637 62.6878 29.509 62.8888 29.5378C63.1742 29.3111 63.2587 29.0556 63.3433 28.8001C63.3433 28.8001 63.3513 28.8455 63.5523 28.8745C63.8378 28.6478 63.9222 28.3922 64.0067 28.1366C64.0067 28.1366 64.0148 28.182 64.2158 28.2111C64.5013 27.9845 64.5858 27.7288 64.6702 27.4731C64.6702 27.4731 64.6783 27.5185 64.8793 27.5476C65.1648 27.321 65.2493 27.0653 65.3337 26.8096C65.3337 26.8096 65.3418 26.855 65.5428 26.8841C65.8283 26.6575 65.9128 26.4018 65.9972 26.1461C65.9972 26.1461 66.0053 26.1915 66.2064 26.2206C66.4919 25.994 66.5763 25.7383 66.6607 25.4826C66.6607 25.4826 66.6688 25.528 66.8699 25.5572C67.1554 25.3307 67.2398 25.0749 67.3241 24.8191C67.3241 24.8191 67.3323 24.8645 67.5335 24.8939C67.8191 24.6674 67.9033 24.4115 67.9875 24.1556C67.9875 24.1556 67.9958 24.201 68.1972 24.2306C68.4827 24.0043 68.5668 23.7482 68.6509 23.4922C68.6509 23.4922 68.6593 23.5375 68.8608 23.5674C69.1463 23.3411 69.2304 23.0849 69.3144 22.8287C69.3144 22.8287 69.3272 22.8741 69.5349 22.9283C69.9535 22.7577 70.1645 22.5329 70.3754 22.3081C70.4912 22.2025 70.6254 22.1673 70.9871 22.4648C71.4836 22.7713 71.771 22.8154 72.0584 22.8596C72.0584 22.8596 72.0136 22.8741 71.9861 23.0754C72.2146 23.3609 72.4707 23.4451 72.7267 23.5293C72.7267 23.5293 72.6814 23.5376 72.6519 23.7388C72.8783 24.0243 73.1343 24.1086 73.3902 24.1928C73.3902 24.1928 73.3449 24.2011 73.3155 24.4023C73.5419 24.6878 73.7978 24.7721 74.0537 24.8564C74.0537 24.8564 74.0013 24.8764 73.9087 25.0368C74.0577 25.5265 74.2993 25.8558 74.5409 26.1851C76.7822 28.5248 79.0235 30.8645 81.1068 33.5206C80.8518 33.984 80.7358 34.1138 80.6009 34.2267C80.6009 34.2267 80.6261 34.1634 80.4645 34.1998C80.1948 34.456 80.0867 34.6759 79.9786 34.8957C79.9786 34.8957 79.9729 34.8511 79.8024 34.8754C79.5265 35.1194 79.4211 35.3392 79.3158 35.559C79.3158 35.559 79.3094 35.5146 79.1388 35.5388C78.8629 35.7828 78.7576 36.0026 78.6523 36.2225C78.6523 36.2225 78.6459 36.178 78.4753 36.2023C78.1994 36.4463 78.0941 36.6661 77.9887 36.8859C77.9887 36.8859 77.9824 36.8415 77.8119 36.8659C77.536 37.11 77.4305 37.3297 77.3251 37.5494C77.3251 37.5494 77.3188 37.505 77.1484 37.5295C76.8725 37.7736 76.767 37.9933 76.6615 38.2129C76.6615 38.2129 76.6553 38.1684 76.4849 38.193C76.2091 38.4371 76.1035 38.6567 75.998 38.8764C75.998 38.8764 75.9918 38.8319 75.8214 38.8564C75.5455 39.1005 75.44 39.3201 75.3345 39.5398C75.3345 39.5398 75.3282 39.4954 75.1578 39.5198C74.8819 39.7639 74.7765 39.9836 74.6711 40.2033C74.6711 40.2033 74.6647 40.1589 74.4943 40.1833C74.2184 40.4273 74.113 40.647 74.0076 40.8667C74.0076 40.8667 74.0012 40.8223 73.8307 40.8467C73.5548 41.0907 73.4494 41.3104 73.3441 41.5302C73.3441 41.5302 73.3376 41.4858 73.1667 41.5095C72.8908 41.7533 72.7858 41.9734 72.6808 42.1936C72.6808 42.1936 72.6741 42.1493 72.5031 42.1729C72.2272 42.4167 72.1223 42.6368 72.0174 42.857C72.0174 42.857 72.0106 42.8128 71.8396 42.8364C71.5637 43.0802 71.4588 43.3003 71.3538 43.5205C71.3538 43.5205 71.3471 43.4763 71.1761 43.5C70.9002 43.7438 70.7952 43.9639 70.6903 44.184C70.6903 44.184 70.6836 44.1397 70.5127 44.1635C70.2368 44.4074 70.1318 44.6275 70.0268 44.8475C70.0268 44.8475 70.0201 44.8032 69.8491 44.827C69.5732 45.0708 69.4683 45.2909 69.3633 45.511C69.3633 45.511 69.3566 45.4668 69.1856 45.4904C68.9096 45.7342 68.8048 45.9543 68.6999 46.1745C68.6999 46.1745 68.6931 46.1303 68.522 46.1537C68.2461 46.3975 68.1412 46.6177 68.0364 46.838C68.0364 46.838 68.0296 46.7938 67.8584 46.8171C67.5825 47.0608 67.4777 47.2811 67.373 47.5015C67.373 47.5015 67.3661 47.4573 67.1949 47.4806C66.9189 47.7243 66.8142 47.9446 66.7094 48.1649C66.7094 48.1649 66.7026 48.1207 66.5314 48.1441C66.2554 48.3878 66.1507 48.6081 66.0459 48.8284C66.0459 48.8284 66.039 48.7842 65.8679 48.8076C65.5919 49.0513 65.4871 49.2716 65.3823 49.4919C65.3823 49.4919 65.3755 49.4477 65.2044 49.4711C64.9284 49.7148 64.8236 49.9351 64.7188 50.1554C64.7188 50.1554 64.712 50.1112 64.5409 50.1347C64.265 50.3784 64.1601 50.5986 64.0553 50.8189C64.0553 50.8189 64.0485 50.7747 63.8774 50.7982C63.6015 51.0419 63.4966 51.2622 63.3917 51.4824C63.3917 51.4824 63.385 51.4382 63.2139 51.4617C62.938 51.7055 62.8331 51.9257 62.7282 52.1459C62.7282 52.1459 62.7215 52.1017 62.5504 52.1253C62.2745 52.369 62.1696 52.5892 62.0647 52.8094C62.0647 52.8094 62.058 52.7652 61.887 52.7888C61.611 53.0326 61.5061 53.2527 61.4012 53.4729C61.4012 53.4729 61.3945 53.4287 61.2235 53.4523C60.9476 53.6962 60.8426 53.9163 60.7376 54.1364C60.7376 54.1364 60.731 54.0922 60.56 54.1159C60.2841 54.3597 60.1791 54.5798 60.0741 54.7999C60.0741 54.7999 60.0675 54.7557 59.8966 54.7795C59.6206 55.0233 59.5156 55.2434 59.4106 55.4634C59.4106 55.4634 59.404 55.4192 59.2334 55.4435C58.9575 55.6875 58.8522 55.9073 58.7469 56.127C58.7469 56.127 58.7404 56.0827 58.5695 56.1064C58.2936 56.3502 58.1886 56.5703 58.0837 56.7904C58.0837 56.7904 58.077 56.7462 57.9059 56.7697C57.63 57.0134 57.5252 57.2337 57.4204 57.4539C57.4204 57.4539 57.4135 57.4097 57.2418 57.4322C56.9658 57.6756 56.8615 57.8964 56.7573 58.1173C56.7573 58.1173 56.75 58.0732 56.5781 58.0955C56.3021 58.3388 56.198 58.5598 56.0939 58.7807C56.0939 58.7807 56.0865 58.7367 55.9145 58.7589C55.6385 59.0022 55.5345 59.2232 55.4304 59.4442C55.4304 59.4442 55.423 59.4002 55.2511 59.4225C54.975 59.6657 54.8709 59.8867 54.7668 60.1076C54.7668 60.1076 54.7594 60.0636 54.5876 60.086C54.3116 60.3293 54.2074 60.5502 54.1033 60.7711C54.1033 60.7711 54.0959 60.7271 53.9241 60.7496C53.6481 60.9929 53.5439 61.2138 53.4397 61.4346C53.4397 61.4346 53.4324 61.3906 53.2606 61.4131C52.9846 61.6564 52.8804 61.8773 52.7762 62.0981C52.7762 62.0981 52.7689 62.0541 52.5971 62.0766C52.3211 62.32 52.2169 62.5408 52.1127 62.7616C52.1127 62.7616 52.1054 62.7176 51.9336 62.7401C51.6576 62.9835 51.5534 63.2043 51.4492 63.4251C51.4492 63.4251 51.4419 63.3811 51.2701 63.4037C50.9941 63.6471 50.8899 63.8679 50.7856 64.0887C50.7856 64.0887 50.7784 64.0446 50.6067 64.0672C50.3307 64.3106 50.2264 64.5314 50.1221 64.7522C50.1221 64.7522 50.1149 64.7081 49.9432 64.7307C49.6672 64.9741 49.5629 65.1949 49.4587 65.4157C49.4587 65.4157 49.4514 65.3717 49.2797 65.3942C49.0037 65.6376 48.8995 65.8585 48.7953 66.0793C48.7953 66.0793 48.788 66.0353 48.6161 66.0576C48.3402 66.301 48.2361 66.522 48.1321 66.743C48.1321 66.743 48.1247 66.6989 47.9525 66.7208C47.6766 66.9641 47.5728 67.1854 47.469 67.4067C47.469 67.4067 47.4613 67.3626 47.2887 67.3837C47.0126 67.6266 46.9093 67.8484 46.8059 68.0702C46.8059 68.0702 46.798 68.0262 46.6252 68.0471C46.3491 68.29 46.2458 68.5119 46.1425 68.7337C46.1425 68.7337 46.1345 68.6898 45.9616 68.7106C45.6855 68.9533 45.5823 69.1753 45.4791 69.3972C45.4791 69.3972 45.471 69.3533 45.2981 69.374C45.022 69.6167 44.9188 69.8387 44.8157 70.0607C44.8157 70.0607 44.8075 70.0168 44.6345 70.0373C44.3584 70.28 44.2553 70.5021 44.1523 70.7242C44.1523 70.7242 44.144 70.6803 43.9709 70.7007C43.6948 70.9433 43.5918 71.1655 43.4888 71.3877C43.4888 71.3877 43.4805 71.3438 43.3073 71.3641C43.0312 71.6066 42.9283 71.8289 42.8254 72.0512C42.8254 72.0512 42.817 72.0072 42.6438 72.0275C42.3677 72.27 42.2648 72.4923 42.1619 72.7147C42.1619 72.7147 42.1535 72.6707 41.9803 72.691C41.7042 72.9335 41.6013 73.1558 41.4984 73.3782C41.4984 73.3782 41.49 73.3342 41.3168 73.3545C41.0407 73.597 40.9378 73.8194 40.8349 74.0417C40.8349 74.0417 40.8265 73.9977 40.6533 74.018C40.3772 74.2606 40.2743 74.4829 40.1714 74.7052C40.1714 74.7052 40.163 74.6612 39.9898 74.6815C39.7137 74.9241 39.6108 75.1463 39.5079 75.3686C39.5079 75.3686 39.4995 75.3247 39.3262 75.345C39.0501 75.5875 38.9473 75.8098 38.8445 76.0321C38.8445 76.0321 38.836 75.9882 38.6627 76.0084C38.3866 76.2509 38.2838 76.4732 38.181 76.6956C38.181 76.6956 38.1725 76.6517 37.9991 76.6718C37.723 76.9143 37.6203 77.1367 37.5176 77.3591C37.5176 77.3591 37.509 77.3152 37.3356 77.3352C37.0595 77.5777 36.9567 77.8002 36.854 78.0226C36.854 78.0226 36.8455 77.9787 36.6721 77.9988C36.396 78.2413 36.2932 78.4637 36.1904 78.6861C36.1904 78.6861 36.182 78.6422 36.0088 78.6625C35.7326 78.9051 35.6297 79.1274 35.5268 79.3497C35.5268 79.3497 35.5185 79.3057 35.3454 79.3263C35.0693 79.5689 34.9661 79.791 34.863 80.0131C34.863 80.0131 34.8549 79.9692 34.6821 79.99C34.4059 80.2327 34.3026 80.4546 34.1993 80.6765C34.1993 80.6765 34.1913 80.6326 34.0186 80.6536C33.7424 80.8964 33.639 81.1181 33.5356 81.3399C33.5356 81.3399 33.5277 81.296 33.355 81.317C33.0789 81.5598 32.9755 81.7816 32.8721 82.0034C32.8721 82.0034 32.8642 81.9594 32.6914 81.9804C32.4153 82.2232 32.312 82.445 32.2086 82.6668C32.2086 82.6668 32.1983 82.6228 31.9431 82.6056C30.952 82.6055 30.2162 82.6227 29.4803 82.6399C29.4803 82.6399 29.5224 82.6228 29.5011 82.4495C29.2575 82.1737 29.0351 82.0712 28.8127 81.9687C28.8127 81.9687 28.8564 81.9596 28.8377 81.7853C28.5957 81.5096 28.3724 81.4082 28.1491 81.3067C28.1491 81.3067 28.1927 81.2962 28.1777 81.1183C27.9364 80.8397 27.7101 80.739 27.4839 80.6383C27.4839 80.6383 27.5373 80.623 27.467 80.5328C27.3039 80.2727 27.1699 80.1469 26.9945 80.0652C20.4056 72.3717 15.5762 63.767 13.5107 53.764C11.1851 42.502 11.6359 31.4342 16.0739 20.6947C16.9288 18.6261 17.9327 16.6191 19.0385 14.2366C19.2643 13.668 19.4062 13.5656 19.6346 13.5824C19.6346 13.5824 19.5756 13.6709 19.7361 13.555C20.0039 13.0338 20.1112 12.6286 20.2185 12.2234C20.2185 12.2234 20.2283 12.272 20.4044 12.2047C20.446 11.7488 20.3115 11.3602 20.177 10.9715C20.177 10.9715 20.2227 10.9676 20.2489 10.7694C20.0228 10.4881 19.7705 10.405 19.5182 10.3219C19.5182 10.3219 19.5637 10.3052 19.5873 10.1074C19.3587 9.8258 19.1067 9.74203 18.8547 9.65825C18.8547 9.65825 18.9001 9.64176 18.9236 9.44388C18.6951 9.16118 18.4431 9.07637 18.191 8.99155C18.191 8.99155 18.2355 8.98031 18.2426 8.79066C18.0084 8.50878 17.7672 8.41654 17.526 8.3243C17.526 8.3243 17.5712 8.31583 17.5959 8.1173C17.3684 7.83412 17.1162 7.74946 16.864 7.6648C16.864 7.6648 16.9086 7.65318 16.9172 7.46284C16.6838 7.18016 16.4417 7.08782 16.1996 6.99547C16.1996 6.99547 16.2449 6.98908 16.254 6.79896C16.0213 6.51604 15.7795 6.42325 15.5376 6.33047C15.5376 6.33047 15.5831 6.32586 15.5896 6.15522C15.3832 6.11295 15.1704 6.24133 14.9575 6.36971C14.9575 6.36971 14.9524 6.32419 14.7683 6.31906C14.485 6.55261 14.3859 6.79129 14.2868 7.02997C14.2868 7.02997 14.2803 6.97351 14.0975 7.04804C13.8235 7.53267 13.7322 7.94277 13.641 8.35287C13.641 8.35287 13.6302 8.30762 13.4309 8.36362C13.1474 8.83946 13.0633 9.25928 12.9792 9.67911C12.9792 9.67911 12.9671 9.63479 12.7696 9.68569C12.4843 10.1666 12.3965 10.5967 12.3086 11.0267C8.83376 17.2623 6.5034 23.8797 5.36524 31.3709C3.27716 38.0923 3.77906 44.478 4.74364 50.8649C4.77555 51.0762 5.26167 51.2189 5.53607 51.3935C5.53607 51.3935 5.64001 51.6765 5.4216 52.0141C5.81577 54.6997 6.42835 57.0478 7.04092 59.3958C7.04092 59.3958 6.99289 59.3826 6.92658 59.5987C7.09989 60.2315 7.3395 60.6483 7.5791 61.065Z" fill="url(#paint0_linear_360_94)"/>
<defs>
<linearGradient id="paint0_linear_360_94" x1="0.364011" y1="46.3337" x2="132.343" y2="69.7144" gradientUnits="userSpaceOnUse">
<stop stop-color="#4285F4"/>
<stop offset="0.530246" stop-color="#9738F6"/>
<stop offset="1" stop-color="#3054F8"/>
</linearGradient>
</defs>
</svg>
